<?xml version="1.0" encoding="UTF-8"?>
<svg version="1.1" xmlns="http://www.w3.org/2000/svg" width="512" height="324.235" viewBox="0 0 512 512">
<path d="M0 0 C0.98870087 0.00081573 0.98870087 0.00081573 1.99737549 0.00164795 C12.97851814 0.04318906 22.9941372 0.99005212 33.4375 4.375 C34.1190918 4.58930664 34.80068359 4.80361328 35.50292969 5.02441406 C49.73101879 9.60701941 62.12362402 16.56213576 73.4375 26.375 C74.24574219 27.03886719 75.05398437 27.70273437 75.88671875 28.38671875 C95.94773729 45.42441267 109.49777183 71.21162355 112.4375 97.375 C112.54230435 100.02782828 112.6162337 102.66323042 112.640625 105.31640625 C112.65060265 106.36605309 112.65060265 106.36605309 112.66078186 107.43690491 C112.68101741 110.33351142 112.69398063 113.2291358 112.66748047 116.12573242 C112.60862747 124.59012252 112.83531551 131.26777597 118.05371094 138.37475586 C122.10394571 144.22930305 121.10884591 153.52863482 120.4375 160.375 C119.33571455 164.74941549 117.91329742 168.71583392 114.88755798 172.11752319 C112.99145473 175.06941143 113.06552413 177.01532325 113.06860352 180.51025391 C113.06172012 181.75320221 113.05483673 182.99615051 113.04774475 184.27676392 C113.05092272 184.93964039 113.05410069 185.60251686 113.05737495 186.2854805 C113.0665435 188.38296188 113.05618934 190.47955962 113.04075623 192.57699585 C113.00086756 198.53992334 112.99941909 204.50278148 113.00170898 210.46582031 C112.99471773 242.0574941 108.7368203 270.00084962 88.4375 295.375 C91.4075 295.705 94.3775 296.035 97.4375 296.375 C97.4375 299.015 97.4375 301.655 97.4375 304.375 C98.9534375 304.313125 98.9534375 304.313125 100.5 304.25 C104.61826052 304.38073843 107.55580533 305.10750786 111.4375 306.375 C111.705625 305.09625 111.97375 303.8175 112.25 302.5 C113.00940099 298.87824145 113.13827803 298.57448132 116.4375 296.375 C119.03995498 296.23278935 121.52867684 296.18697068 124.125 296.25 C124.82689453 296.25902344 125.52878906 296.26804687 126.25195312 296.27734375 C127.98061525 296.30086296 129.70910145 296.33673287 131.4375 296.375 C130.9425 295.385 130.4475 294.395 129.9375 293.375 C127.11362709 285.84467225 126.90345196 275.04432275 130.125 267.625 C130.558125 266.5525 130.99125 265.48 131.4375 264.375 C130.14282323 262.31509522 130.14282323 262.31509522 128.4375 260.375 C127.75367251 255.24629384 127.98838165 252.63111398 130.9375 248.375 C133.28187871 244.94550885 134.18934297 242.53978676 133.9453125 238.375 C133.15828196 235.27531048 131.36620073 232.99545576 129.56640625 230.390625 C127.58072662 226.84525929 127.83882339 224.36617741 128.4375 220.375 C129.83203125 218.1875 129.83203125 218.1875 132.4375 216.375 C135.84731721 215.74163486 139.22584017 215.67833089 142.6875 215.625 C143.62335938 215.59535156 144.55921875 215.56570312 145.5234375 215.53515625 C147.82766382 215.46461871 150.13258655 215.41752608 152.4375 215.375 C152.4375 210.755 152.4375 206.135 152.4375 201.375 C150.148125 201.00375 150.148125 201.00375 147.8125 200.625 C140.01198334 199.03193674 134.90629912 194.84937463 130.4375 188.375 C127.21442439 181.92884878 127.31078181 173.839086 129.0546875 166.9296875 C131.69257439 160.97693391 136.81429048 156.16953715 142.61425781 153.296875 C146.10318664 152.15763293 149.0380053 152.14948976 152.70703125 152.1796875 C153.38803391 152.1825174 154.06903656 152.18534729 154.77067566 152.18826294 C156.93063455 152.19939475 159.09016794 152.22448543 161.25 152.25 C162.72069711 152.26003889 164.19140076 152.26916315 165.66210938 152.27734375 C169.25404286 152.29931087 172.84572985 152.3337918 176.4375 152.375 C176.4375 155.015 176.4375 157.655 176.4375 160.375 C181.7175 160.375 186.9975 160.375 192.4375 160.375 C192.4375 157.735 192.4375 155.095 192.4375 152.375 C206.44980209 152.28155764 220.46205586 152.21128734 234.47460556 152.16775131 C240.98090149 152.14685835 247.48698843 152.11850892 253.99316406 152.07324219 C260.26957509 152.0298463 266.54578484 152.00587578 272.82233429 151.99549103 C275.21939514 151.98808847 277.61644473 151.97363341 280.0134201 151.95207977 C283.36563605 151.92312984 286.71701552 151.91904059 290.06933594 151.92089844 C291.06483459 151.90651733 292.06033325 151.89213623 293.08599854 151.87731934 C299.7712215 151.91752788 299.7712215 151.91752788 303.050354 154.16900635 C305.15914885 157.52264616 305.26976029 160.60575504 304.4375 164.375 C303.2628979 166.47221344 301.92833761 168.38814829 300.5546875 170.359375 C298.07980901 174.82454039 299.15600096 179.6271511 300.4375 184.375 C301.14358398 184.35405273 301.84966797 184.33310547 302.57714844 184.31152344 C305.78045376 184.22830702 308.98353163 184.17632215 312.1875 184.125 C313.29867188 184.09148437 314.40984375 184.05796875 315.5546875 184.0234375 C316.62460937 184.01054687 317.69453125 183.99765625 318.796875 183.984375 C319.78139648 183.96342773 320.76591797 183.94248047 321.78027344 183.92089844 C325.20686469 184.50647908 326.35378664 185.6382366 328.4375 188.375 C329.20805997 193.51206646 328.88387785 196.11072665 325.9375 200.375 C323.59312129 203.80449115 322.68565703 206.21021324 322.9296875 210.375 C323.71671804 213.47468952 325.50879927 215.75454424 327.30859375 218.359375 C329.29427338 221.90474071 329.03617661 224.38382259 328.4375 228.375 C327.04296875 230.5625 327.04296875 230.5625 324.4375 232.375 C321.02768279 233.00836514 317.64915983 233.07166911 314.1875 233.125 C313.25164062 233.15464844 312.31578125 233.18429688 311.3515625 233.21484375 C309.04733618 233.28538129 306.74241345 233.33247392 304.4375 233.375 C304.4375 237.995 304.4375 242.615 304.4375 247.375 C305.83484375 247.40078125 307.2321875 247.4265625 308.671875 247.453125 C310.51044783 247.50940784 312.34898828 247.56675514 314.1875 247.625 C315.10789062 247.63917969 316.02828125 247.65335938 316.9765625 247.66796875 C323.77628775 247.91433561 323.77628775 247.91433561 327.0390625 250.1875 C328.7379621 252.84499658 329.10897951 255.08308441 328.96875 258.2265625 C328.12896397 261.62275598 326.0905599 263.85487022 323.90625 266.5234375 C319.42597404 272.17144496 319.71331721 279.50409497 320.4375 286.375 C321.7532683 290.89201901 323.5847777 294.40384405 326.6875 297.9375 C329.33989605 301.63190878 329.00824072 303.88041685 328.4375 308.375 C326.890625 310.60546875 326.890625 310.60546875 324.4375 312.375 C321.70067029 312.6661521 319.39809961 312.75822418 316.6875 312.625 C315.99011719 312.60695313 315.29273438 312.58890625 314.57421875 312.5703125 C312.86138461 312.52338554 311.14926176 312.45164605 309.4375 312.375 C309.9325 313.365 310.4275 314.355 310.9375 315.375 C313.50094187 322.01828597 312.66670809 329.3799088 312.4375 336.375 C309.4675 336.045 306.4975 335.715 303.4375 335.375 C303.355 336.096875 303.2725 336.81875 303.1875 337.5625 C302.28999799 340.92813254 300.7260722 342.79112816 298.4375 345.375 C298.72625 345.9525 299.015 346.53 299.3125 347.125 C300.35416667 349.20833333 301.39583333 351.29166667 302.4375 353.375 C301.23459989 354.17489804 300.02483705 354.96447824 298.8125 355.75 C298.13960938 356.19085938 297.46671875 356.63171875 296.7734375 357.0859375 C291.3123427 360.09958513 286.16427326 360.73518525 280.0625 361 C279.32644531 361.03867187 278.59039062 361.07734375 277.83203125 361.1171875 C276.03422594 361.21057998 274.23589892 361.2938371 272.4375 361.375 C272.22996094 362.05304688 272.02242188 362.73109375 271.80859375 363.4296875 C267.91694888 375.18603727 262.0206704 383.7862519 251.01171875 389.671875 C232.88020833 398.375 232.88020833 398.375 225.4375 398.375 C225.5514209 399.13006836 225.6653418 399.88513672 225.78271484 400.66308594 C227.54045209 413.0074735 228.62326628 425.41064257 229.72460938 437.828125 C230.06301387 441.63077438 230.41014547 445.4325626 230.7578125 449.234375 C230.97709071 451.68224441 231.19585836 454.13015962 231.4140625 456.578125 C231.51715729 457.69922668 231.62025208 458.82032837 231.72647095 459.97540283 C231.82011932 461.04731873 231.9137677 462.11923462 232.01025391 463.22363281 C232.13444199 464.61137909 232.13444199 464.61137909 232.26113892 466.02716064 C232.51275271 470.80351225 232.4375 475.5920256 232.4375 480.375 C192.5075 480.375 152.5775 480.375 111.4375 480.375 C107.77083333 473.04166667 104.10416667 465.70833333 100.4375 458.375 C100.06238281 459.08785156 99.68726563 459.80070312 99.30078125 460.53515625 C94.60827338 469.31735612 94.60827338 469.31735612 91.625 473.3125 C89.19021343 476.32566016 89.19021343 476.32566016 88.4375 480.375 C14.5175 480.375 -59.4025 480.375 -135.5625 480.375 C-135.624375 457.605 -135.68625 434.835 -135.75 411.375 C-135.77731201 404.19105469 -135.80462402 397.00710938 -135.83276367 389.60546875 C-135.84631348 380.81835938 -135.84631348 380.81835938 -135.84883118 376.7019043 C-135.85162088 373.83301808 -135.86284224 370.96429918 -135.87922668 368.09545898 C-135.89988046 364.43024319 -135.90595943 360.76526897 -135.90171683 357.10000038 C-135.90301997 355.12801059 -135.91907096 353.15604719 -135.93578625 351.18412781 C-135.91240888 344.51943866 -135.40972 339.43205224 -132.5625 333.375 C-129.9225 334.035 -127.2825 334.695 -124.5625 335.375 C-124.459375 334.653125 -124.35625 333.93125 -124.25 333.1875 C-123.50263068 330.13008007 -122.28204811 327.99170365 -120.5625 325.375 C-121.366875 325.106875 -122.17125 324.83875 -123 324.5625 C-123.845625 324.170625 -124.69125 323.77875 -125.5625 323.375 C-126.0575 321.89 -126.0575 321.89 -126.5625 320.375 C-122.2156446 312.90832945 -115.86368631 307.76041464 -108.5625 303.375 C-107.91667969 302.98699219 -107.27085938 302.59898437 -106.60546875 302.19921875 C-100.63817263 298.94547202 -94.06595881 297.23879612 -87.5625 295.375 C-88.119375 294.6221875 -88.67625 293.869375 -89.25 293.09375 C-98.71834677 279.9148349 -105.61424643 266.17398596 -109.5625 250.375 C-109.73598276 249.68913818 -109.90946552 249.00327637 -110.08820534 248.29663086 C-111.74454833 240.98136296 -111.85835152 233.87580286 -111.85302734 226.3984375 C-111.85902491 225.01731508 -111.86583324 223.63619599 -111.87338257 222.25508118 C-111.89093189 218.52935874 -111.89573343 214.80372838 -111.89701414 211.0779686 C-111.89844341 208.74033422 -111.90272772 206.40272266 -111.90800858 204.06509399 C-111.92647725 195.88110897 -111.93468378 187.69718877 -111.93310547 179.51318359 C-111.93190721 171.93218873 -111.95295551 164.35148 -111.9845928 156.7705574 C-112.01091799 150.2248923 -112.02146592 143.67931965 -112.02019465 137.13360214 C-112.01968945 133.2408006 -112.02512254 129.3482533 -112.04655075 125.45550537 C-112.20879797 93.76265031 -107.68467 65.32556331 -86.5625 40.375 C-83.48713146 41.03400754 -81.48514434 41.91367783 -78.5625 43.375 C-76.5825 40.735 -74.6025 38.095 -72.5625 35.375 C-73.8825 34.055 -75.2025 32.735 -76.5625 31.375 C-75.01969241 26.97285568 -71.57454544 24.75009401 -67.9375 22.125 C-66.93650269 21.40147339 -66.93650269 21.40147339 -65.9152832 20.66333008 C-46.34670186 6.8887852 -23.84990713 -0.03333956 0 0 Z M158.4375 360.375 C158.7675 362.025 159.0975 363.675 159.4375 365.375 C159.7675 365.375 160.0975 365.375 160.4375 365.375 C160.4375 363.725 160.4375 362.075 160.4375 360.375 C159.7775 360.375 159.1175 360.375 158.4375 360.375 Z " fill="#010101" transform="translate(159.5625,15.625)"/>
<path d="M0 0 C0.68100266 0.0028299 1.36200531 0.00565979 2.06364441 0.00857544 C4.2236033 0.01970725 6.38313669 0.04479793 8.54296875 0.0703125 C10.01366586 0.08035139 11.48436951 0.08947565 12.95507812 0.09765625 C16.54701161 0.11962337 20.1386986 0.1541043 23.73046875 0.1953125 C23.73046875 2.8353125 23.73046875 5.4753125 23.73046875 8.1953125 C29.01046875 8.1953125 34.29046875 8.1953125 39.73046875 8.1953125 C39.73046875 5.5553125 39.73046875 2.9153125 39.73046875 0.1953125 C53.74277084 0.10187014 67.75502461 0.03159984 81.76757431 -0.01193619 C88.27387024 -0.03282915 94.77995718 -0.06117858 101.28613281 -0.10644531 C107.56254384 -0.1498412 113.83875359 -0.17381172 120.11530304 -0.18419647 C122.51236389 -0.19159903 124.90941348 -0.20605409 127.30638885 -0.22760773 C130.6586048 -0.25655766 134.00998427 -0.26064691 137.36230469 -0.25878906 C138.35780334 -0.27317017 139.353302 -0.28755127 140.37896729 -0.30236816 C147.06419025 -0.26215962 147.06419025 -0.26215962 150.34332275 1.98931885 C152.4521176 5.34295866 152.56272904 8.42606754 151.73046875 12.1953125 C150.55586665 14.29252594 149.22130636 16.20846079 147.84765625 18.1796875 C145.37277776 22.64485289 146.44896971 27.4474636 147.73046875 32.1953125 C148.43655273 32.17436523 149.14263672 32.15341797 149.87011719 32.13183594 C153.07342251 32.04861952 156.27650038 31.99663465 159.48046875 31.9453125 C161.14722656 31.89503906 161.14722656 31.89503906 162.84765625 31.84375 C163.91757812 31.83085937 164.9875 31.81796875 166.08984375 31.8046875 C167.07436523 31.78374023 168.05888672 31.76279297 169.07324219 31.74121094 C172.49983344 32.32679158 173.64675539 33.4585491 175.73046875 36.1953125 C176.50102872 41.33237896 176.1768466 43.93103915 173.23046875 48.1953125 C170.88609004 51.62480365 169.97862578 54.03052574 170.22265625 58.1953125 C171.00968679 61.29500202 172.80176802 63.57485674 174.6015625 66.1796875 C176.58724213 69.72505321 176.32914536 72.20413509 175.73046875 76.1953125 C174.3359375 78.3828125 174.3359375 78.3828125 171.73046875 80.1953125 C168.32065154 80.82867764 164.94212858 80.89198161 161.48046875 80.9453125 C160.07667969 80.98978516 160.07667969 80.98978516 158.64453125 81.03515625 C156.34030493 81.10569379 154.0353822 81.15278642 151.73046875 81.1953125 C151.73046875 85.8153125 151.73046875 90.4353125 151.73046875 95.1953125 C153.1278125 95.22109375 154.52515625 95.246875 155.96484375 95.2734375 C157.80341658 95.32972034 159.64195703 95.38706764 161.48046875 95.4453125 C162.86105469 95.46658203 162.86105469 95.46658203 164.26953125 95.48828125 C171.0692565 95.73464811 171.0692565 95.73464811 174.33203125 98.0078125 C176.03093085 100.66530908 176.40194826 102.90339691 176.26171875 106.046875 C175.42193272 109.44306848 173.38352865 111.67518272 171.19921875 114.34375 C166.71894279 119.99175746 167.00628596 127.32440747 167.73046875 134.1953125 C169.04623705 138.71233151 170.87774645 142.22415655 173.98046875 145.7578125 C176.6328648 149.45222128 176.30120947 151.70072935 175.73046875 156.1953125 C174.18359375 158.42578125 174.18359375 158.42578125 171.73046875 160.1953125 C168.99363904 160.4864646 166.69106836 160.57853668 163.98046875 160.4453125 C163.28308594 160.42726563 162.58570313 160.40921875 161.8671875 160.390625 C160.15435336 160.34369804 158.44223051 160.27195855 156.73046875 160.1953125 C157.47296875 161.6803125 157.47296875 161.6803125 158.23046875 163.1953125 C160.79391062 169.83859847 159.95967684 177.2002213 159.73046875 184.1953125 C156.76046875 183.8653125 153.79046875 183.5353125 150.73046875 183.1953125 C150.64796875 183.9171875 150.56546875 184.6390625 150.48046875 185.3828125 C149.58296674 188.74844504 148.01904095 190.61144066 145.73046875 193.1953125 C146.01921875 193.7728125 146.30796875 194.3503125 146.60546875 194.9453125 C147.64713542 197.02864583 148.68880208 199.11197917 149.73046875 201.1953125 C148.52756864 201.99521054 147.3178058 202.78479074 146.10546875 203.5703125 C145.43257813 204.01117188 144.7596875 204.45203125 144.06640625 204.90625 C138.60531145 207.91989763 133.45724201 208.55549775 127.35546875 208.8203125 C126.61941406 208.85898437 125.88335937 208.89765625 125.125 208.9375 C123.32719469 209.03089248 121.52886767 209.1141496 119.73046875 209.1953125 C119.52292969 209.87335938 119.31539062 210.55140625 119.1015625 211.25 C115.20991763 223.00634977 109.31363915 231.6065644 98.3046875 237.4921875 C80.17317708 246.1953125 80.17317708 246.1953125 72.73046875 246.1953125 C72.9013501 247.32791504 72.9013501 247.32791504 73.07568359 248.48339844 C74.83342084 260.827786 75.91623503 273.23095507 77.01757812 285.6484375 C77.35598262 289.45108688 77.70311422 293.2528751 78.05078125 297.0546875 C78.27005946 299.50255691 78.48882711 301.95047212 78.70703125 304.3984375 C78.86167343 306.08009003 78.86167343 306.08009003 79.0194397 307.79571533 C79.11308807 308.86763123 79.20673645 309.93954712 79.30322266 311.04394531 C79.38601471 311.9691095 79.46880676 312.89427368 79.55410767 313.84747314 C79.80572146 318.62382475 79.73046875 323.4123381 79.73046875 328.1953125 C39.80046875 328.1953125 -0.12953125 328.1953125 -41.26953125 328.1953125 C-44.93619792 320.86197917 -48.60286458 313.52864583 -52.26953125 306.1953125 C-52.64464844 306.90816406 -53.01976562 307.62101562 -53.40625 308.35546875 C-58.09875787 317.13766862 -58.09875787 317.13766862 -61.08203125 321.1328125 C-63.51681782 324.14597266 -63.51681782 324.14597266 -64.26953125 328.1953125 C-82.74953125 328.1953125 -101.22953125 328.1953125 -120.26953125 328.1953125 C-120.26953125 312.11469757 -120.26953125 312.11469757 -114.9453125 304.71484375 C-114.379832 303.87401245 -113.8143515 303.03318115 -113.23173523 302.16687012 C-111.37798622 299.42570424 -109.48091203 296.71785958 -107.58203125 294.0078125 C-106.27488338 292.09155556 -104.97089592 290.17313934 -103.66992188 288.25268555 C-100.95249642 284.25170359 -98.21754241 280.26363877 -95.46728516 276.28515625 C-89.29431577 267.34829654 -83.23789749 258.33291356 -77.17074585 249.32406616 C-75.30445559 246.55954564 -73.42957667 243.8010552 -71.55200195 241.04418945 C-70.67231499 239.74850037 -70.67231499 239.74850037 -69.77485657 238.42663574 C-68.69175713 236.83154358 -67.60598054 235.23826391 -66.51676941 233.64733887 C-59.99280006 224.66159337 -59.99280006 224.66159337 -57.01953125 214.3203125 C-58.00081674 210.92779761 -58.00081674 210.92779761 -61.33203125 209.4453125 C-62.63814458 209.00903813 -63.95138688 208.59376298 -65.26953125 208.1953125 C-66.75149434 207.6402218 -68.23074779 207.07783654 -69.70703125 206.5078125 C-70.88265625 206.0746875 -72.05828125 205.6415625 -73.26953125 205.1953125 C-69.1859182 200.27403524 -64.92299938 195.93463864 -60.125 191.69921875 C-58.13458543 189.01320667 -57.17627014 186.79523687 -56.91625977 183.4362793 C-57.67706195 178.61015401 -61.15227365 175.0189956 -64.14453125 171.3203125 C-65.45496384 169.6358341 -66.76488558 167.95095812 -68.07421875 166.265625 C-68.66187012 165.53102051 -69.24952148 164.79641602 -69.85498047 164.03955078 C-71.26953125 162.1953125 -71.26953125 162.1953125 -72.26953125 160.1953125 C-66.98953125 160.1953125 -61.70953125 160.1953125 -56.26953125 160.1953125 C-56.26953125 157.5553125 -56.26953125 154.9153125 -56.26953125 152.1953125 C-50.74275392 152.00139049 -46.51338214 152.4473622 -41.26953125 154.1953125 C-41.00140625 152.9165625 -40.73328125 151.6378125 -40.45703125 150.3203125 C-39.69763026 146.69855395 -39.56875322 146.39479382 -36.26953125 144.1953125 C-33.66707627 144.05310185 -31.17835441 144.00728318 -28.58203125 144.0703125 C-27.88013672 144.07933594 -27.17824219 144.08835937 -26.45507812 144.09765625 C-24.726416 144.12117546 -22.9979298 144.15704537 -21.26953125 144.1953125 C-21.76453125 143.2053125 -22.25953125 142.2153125 -22.76953125 141.1953125 C-25.59340416 133.66498475 -25.80357929 122.86463525 -22.58203125 115.4453125 C-22.14890625 114.3728125 -21.71578125 113.3003125 -21.26953125 112.1953125 C-22.56420802 110.13540772 -22.56420802 110.13540772 -24.26953125 108.1953125 C-24.95335874 103.06660634 -24.7186496 100.45142648 -21.76953125 96.1953125 C-19.42515254 92.76582135 -18.51768828 90.36009926 -18.76171875 86.1953125 C-19.54874929 83.09562298 -21.34083052 80.81576826 -23.140625 78.2109375 C-25.12630463 74.66557179 -24.86820786 72.18648991 -24.26953125 68.1953125 C-22.875 66.0078125 -22.875 66.0078125 -20.26953125 64.1953125 C-16.85971404 63.56194736 -13.48119108 63.49864339 -10.01953125 63.4453125 C-8.61574219 63.40083984 -8.61574219 63.40083984 -7.18359375 63.35546875 C-4.87936743 63.28493121 -2.5744447 63.23783858 -0.26953125 63.1953125 C-0.26953125 58.5753125 -0.26953125 53.9553125 -0.26953125 49.1953125 C-1.79578125 48.9478125 -3.32203125 48.7003125 -4.89453125 48.4453125 C-12.69504791 46.85224924 -17.80073213 42.66968713 -22.26953125 36.1953125 C-25.49260686 29.74916128 -25.39624944 21.6593985 -23.65234375 14.75 C-21.01445686 8.79724641 -15.89274077 3.98984965 -10.09277344 1.1171875 C-6.60384461 -0.02205457 -3.66902595 -0.03019774 0 0 Z M5.73046875 208.1953125 C6.06046875 209.8453125 6.39046875 211.4953125 6.73046875 213.1953125 C7.06046875 213.1953125 7.39046875 213.1953125 7.73046875 213.1953125 C7.73046875 211.5453125 7.73046875 209.8953125 7.73046875 208.1953125 C7.07046875 208.1953125 6.41046875 208.1953125 5.73046875 208.1953125 Z " fill="#000000" transform="translate(312.26953125,167.8046875)"/>
<path d="M0 0 C2.56669964 2.3193409 4.06628188 4.6846946 5.6796875 7.734375 C6.19023682 8.69029541 6.70078613 9.64621582 7.22680664 10.63110352 C7.77071045 11.66033936 8.31461426 12.6895752 8.875 13.75 C13.50594083 22.41185505 18.21496854 31.01982182 23.0625 39.5625 C23.59794434 40.50641602 24.13338867 41.45033203 24.68505859 42.42285156 C27.73878424 47.83507301 27.73878424 47.83507301 31.14257812 53.02905273 C34.04295331 58.14407262 33.55243514 63.6800858 33.49609375 69.40625 C33.49754898 70.60374878 33.49900421 71.80124756 33.50050354 73.03503418 C33.49884681 75.56667514 33.48731111 78.09832641 33.46655273 80.62988281 C33.43780454 84.45943255 33.44590983 88.28757799 33.45898438 92.1171875 C33.43643404 119.46381841 28.81240364 142.74024066 9.08984375 163.0703125 C1.0286482 170.96710037 -8.47654845 176.96748411 -19 181 C-20.5778125 181.61875 -20.5778125 181.61875 -22.1875 182.25 C-38.09255481 186.49134795 -54.95001055 184.38253804 -69.25 176.3125 C-90.17049999 163.87762588 -103.61988815 145.58600694 -109.7421875 122.16015625 C-111.70479122 112.57565999 -111.13143428 102.72613685 -111 93 C-105.06 90.36 -99.12 87.72 -93 85 C-91.02 86.65 -89.04 88.3 -87 90 C-83.51096194 91.74451903 -79.80658999 91.57578672 -76 91 C-72.86318048 89.34904236 -70.76518012 87.00864652 -68.625 84.1875 C-67.27330921 79.45658222 -67.69025433 74.69412849 -69 70 C-68.21238281 69.47792969 -67.42476562 68.95585937 -66.61328125 68.41796875 C-58.26038312 62.77358433 -50.54988547 56.67372592 -43 50 C-42.49082031 49.55398437 -41.98164063 49.10796875 -41.45703125 48.6484375 C-25.14806824 34.30996617 -12.14346764 17.92188099 0 0 Z " fill="#FBC6A1" transform="translate(199,88)"/>
<path d="M0 0 C6.05249201 -0.33013593 11.6826725 -0.20183161 17 3 C23.32720911 9.92865485 26.50491789 16.80607261 26.31640625 26.15625 C25.64164198 32.22079801 22.96703638 36.88558767 19.1875 41.5625 C17.1336853 44.26721598 16.68882942 45.92013056 17 49.3125 C17.62744785 53.22675443 17.62744785 53.22675443 21 55 C23.51502177 55.36696181 23.51502177 55.36696181 26.32421875 55.4140625 C27.86625977 55.47207031 27.86625977 55.47207031 29.43945312 55.53125 C30.51130859 55.5621875 31.58316406 55.593125 32.6875 55.625 C33.77095703 55.66367187 34.85441406 55.70234375 35.97070312 55.7421875 C38.64696467 55.83650509 41.32321843 55.92210005 44 56 C44.27030029 56.66177246 44.54060059 57.32354492 44.8190918 58.00537109 C47.6974628 64.98857864 47.6974628 64.98857864 50.81884766 71.86425781 C67.00713971 106.15303666 65.50695864 138.9623054 64 176 C47.83 176 31.66 176 15 176 C11.33333333 168.66666667 7.66666667 161.33333333 4 154 C3.43732422 155.06927734 3.43732422 155.06927734 2.86328125 156.16015625 C-1.82922662 164.94235612 -1.82922662 164.94235612 -4.8125 168.9375 C-7.24728657 171.95066016 -7.24728657 171.95066016 -8 176 C-26.48 176 -44.96 176 -64 176 C-64 159.91938507 -64 159.91938507 -58.67578125 152.51953125 C-58.11030075 151.67869995 -57.54482025 150.83786865 -56.96220398 149.97155762 C-55.10845497 147.23039174 -53.21138078 144.52254708 -51.3125 141.8125 C-50.00535213 139.89624306 -48.70136467 137.97782684 -47.40039062 136.05737305 C-44.68296517 132.05639109 -41.94801116 128.06832627 -39.19775391 124.08984375 C-33.02478452 115.15298404 -26.96836624 106.13760106 -20.9012146 97.12875366 C-19.03492434 94.36423314 -17.16004542 91.6057427 -15.2824707 88.84887695 C-14.69601273 87.98508423 -14.10955475 87.1212915 -13.50532532 86.23132324 C-12.42222588 84.63623108 -11.33644929 83.04295141 -10.24723816 81.45202637 C-3.72326881 72.46628087 -3.72326881 72.46628087 -0.75 62.125 C-1.73128549 58.73248511 -1.73128549 58.73248511 -5.0625 57.25 C-6.36861333 56.81372563 -7.68185563 56.39845048 -9 56 C-10.48196309 55.4449093 -11.96121654 54.88252404 -13.4375 54.3125 C-14.613125 53.879375 -15.78875 53.44625 -17 53 C-12.91638695 48.07872274 -8.65346813 43.73932614 -3.85546875 39.50390625 C-1.86505418 36.81789417 -0.90673889 34.59992437 -0.64672852 31.2409668 C-1.4075307 26.41484151 -4.8827424 22.8236831 -7.875 19.125 C-9.18543259 17.4405216 -10.49535433 15.75564562 -11.8046875 14.0703125 C-12.39233887 13.33570801 -12.97999023 12.60110352 -13.58544922 11.84423828 C-15 10 -15 10 -16 8 C-10.72 8 -5.44 8 0 8 C0 5.36 0 2.72 0 0 Z " fill="#416786" transform="translate(256,320)"/>
<path d="M0 0 C-2.66149101 4.13313899 -5.32663288 8.17447781 -8.4375 11.98828125 C-9.2625 13.00277344 -10.0875 14.01726562 -10.9375 15.0625 C-11.73027344 16.00222656 -12.52304688 16.94195312 -13.33984375 17.91015625 C-15.09106189 21.16948224 -15.53079035 23.26150057 -14.83862305 26.92358398 C-13.13074518 31.15225975 -9.7400707 33.97138913 -6.4375 37 C-5.72658203 37.67933594 -5.01566406 38.35867188 -4.28320312 39.05859375 C-2.5369756 40.72278374 -0.77661045 42.36838646 1 44 C-2.65535097 46.43690064 -6.34995068 47.53975806 -10.50390625 48.90234375 C-13.29799567 49.86376393 -13.29799567 49.86376393 -15 53 C-14.93093334 59.97199971 -12.53187738 64.04913994 -8.578125 69.640625 C-8.01401413 70.46510635 -7.44990326 71.28958771 -6.86869812 72.13905334 C-5.64714108 73.92109133 -4.41875337 75.69846233 -3.18429565 77.47158813 C-0.55455024 81.24894029 2.04268476 85.04820452 4.64149475 88.84687805 C6.00294964 90.83666046 7.36604276 92.82532286 8.73069763 94.81291199 C16.32132413 105.8828096 23.69739797 117.0918412 31.0625 128.3125 C32.31009291 130.21069641 33.55781103 132.10881052 34.80566406 134.00683594 C36.49328169 136.57401007 38.18056846 139.14139453 39.86604309 141.7099762 C40.35376694 142.45319626 40.84149078 143.19641632 41.34399414 143.9621582 C41.79670685 144.66950104 42.24941956 145.37684387 42.71585083 146.10562134 C44.08047185 148.2053344 44.08047185 148.2053344 46.35717773 150.66870117 C48 154 48 154 48 168 C13.68 168 -20.64 168 -56 168 C-56.1209091 133.46477779 -56.1209091 133.46477779 -56.14648438 118.98046875 C-56.16427751 108.98383969 -56.18518238 98.98728656 -56.22631836 88.99072266 C-56.25626465 81.70991075 -56.27558541 74.42916051 -56.28226548 67.14828873 C-56.28616891 63.29480606 -56.29531244 59.44149975 -56.31719017 55.58807373 C-56.33763811 51.95687119 -56.34381715 48.32591674 -56.33932304 44.69466209 C-56.34053458 42.73523663 -56.3566331 40.77583783 -56.3732605 38.81648254 C-56.34996956 32.14904591 -55.84840702 27.05957744 -53 21 C-50.36 21.66 -47.72 22.32 -45 23 C-44.9175 22.278125 -44.835 21.55625 -44.75 20.8125 C-43.85249799 17.44686746 -42.2885722 15.58387184 -40 13 C-37.69 14.32 -35.38 15.64 -33 17 C-32.57589844 16.48050781 -32.15179688 15.96101563 -31.71484375 15.42578125 C-23.37254218 5.506693 -13.46529442 -1.01624864 0 0 Z " fill="#416786" transform="translate(80,328)"/>
<path d="M0 0 C1.23363281 0.00676758 1.23363281 0.00676758 2.4921875 0.01367188 C4.49482396 0.02531511 6.49742227 0.04324444 8.5 0.0625 C6.33892159 2.22357841 5.31651542 2.5730227 2.44921875 3.40234375 C-25.39972463 11.83807222 -47.26990375 26.32382591 -67.5 47.0625 C-64.52575322 51.06629374 -61.44676137 54.05952939 -57.5 57.0625 C-56.84 57.0625 -56.18 57.0625 -55.5 57.0625 C-54.10658099 55.60600433 -54.10658099 55.60600433 -52.625 53.6875 C-32.4849027 30.14227285 -1.37932662 17.88554091 28.5 13.0625 C29.49 13.0625 30.48 13.0625 31.5 13.0625 C32.68975895 28.36463047 32.95572312 39.9362898 23.04443359 52.14697266 C21.41293564 54.17048403 19.88617257 56.24920232 18.36328125 58.35546875 C12.10554788 66.9168314 5.35390887 74.92831716 -2.02490234 82.54052734 C-3.50263851 84.06522235 -4.96394756 85.60460293 -6.42578125 87.14453125 C-13.55721313 94.56022549 -21.26117285 100.91871495 -29.5 107.0625 C-30.33869629 107.70034424 -30.33869629 107.70034424 -31.19433594 108.35107422 C-47.12124319 120.44269294 -75.753823 141.0625 -96.5 141.0625 C-96.55105481 133.59182684 -96.58588149 126.12119933 -96.60986328 118.65039062 C-96.61986976 116.11326415 -96.63347911 113.57614905 -96.65087891 111.0390625 C-96.67536379 107.37497127 -96.68653701 103.71103362 -96.6953125 100.046875 C-96.71079636 98.36800201 -96.71079636 98.36800201 -96.72659302 96.6552124 C-96.7294301 76.36781541 -90.96223444 57.17767663 -79.234375 40.5859375 C-77.76933709 38.45437333 -76.57826768 36.4060818 -75.5 34.0625 C-77.15 32.0825 -78.8 30.1025 -80.5 28.0625 C-78.19 25.4225 -75.88 22.7825 -73.5 20.0625 C-70.45048605 21.58725697 -68.13600494 22.99135326 -65.5 25.0625 C-65.09652344 24.66160156 -64.69304687 24.26070312 -64.27734375 23.84765625 C-46.83666776 7.51785134 -23.64500087 -0.25031353 0 0 Z " fill="#FBB130" transform="translate(160.5,31.9375)"/>
<path d="M0 0 C0.82387207 0.21221191 1.64774414 0.42442383 2.49658203 0.64306641 C9.38779144 2.33928767 15.77913618 3.49729228 22.875 3.375 C23.71708008 3.36919922 24.55916016 3.36339844 25.42675781 3.35742188 C33.21628023 3.19827159 40.44758804 1.84082806 48 0 C48.01401855 1.20160767 48.01401855 1.20160767 48.02832031 2.42749023 C48.08238939 6.09809119 48.1659674 9.76746762 48.25 13.4375 C48.26417969 14.69755859 48.27835938 15.95761719 48.29296875 17.25585938 C48.48053588 24.43968031 48.83922383 30.91546974 53 37 C55.99244806 39.83194676 59.0682823 41.68942743 63 43 C62.76501733 46.67869426 62.39211801 50.33489693 62 54 C61.91057129 54.99676758 61.91057129 54.99676758 61.81933594 56.01367188 C60.67667854 68.03641492 57.15880174 76.30215164 50.65576172 86.35693359 C47.58388521 91.26052178 44.76752385 96.31532925 41.91659546 101.34942627 C40.26060141 104.27171162 38.59443507 107.1881612 36.9296875 110.10546875 C36.29256836 111.22356934 35.65544922 112.34166992 34.99902344 113.49365234 C31.67143432 119.33219462 28.33523621 125.16582397 25 131 C24.34 131 23.68 131 23 131 C22.64921387 130.36835938 22.29842773 129.73671875 21.93701172 129.0859375 C14.15322049 115.08671208 6.25479155 101.16749554 -1.84375 87.34765625 C-2.62758057 85.99849121 -2.62758057 85.99849121 -3.42724609 84.62207031 C-4.45920124 82.90161109 -5.53439408 81.20621428 -6.65478516 79.54199219 C-11.00771184 72.94697016 -12.37228181 66.90756504 -13.375 59.125 C-13.53871094 58.01125 -13.70242187 56.8975 -13.87109375 55.75 C-14.4883886 51.44449813 -15 47.35592288 -15 43 C-12.63304984 41.39643643 -10.16109866 40.27051881 -7.578125 39.05078125 C-2.82622784 35.27086306 -1.31079265 30.58511003 -0.59667969 24.64526367 C-0.38550263 20.90537802 -0.29214883 17.18299865 -0.25 13.4375 C-0.20552734 11.49520508 -0.20552734 11.49520508 -0.16015625 9.51367188 C-0.0899433 6.34238707 -0.037004 3.17181688 0 0 Z " fill="#FBC6A1" transform="translate(136,284)"/>
<path d="M0 0 C0.03738281 0.99257812 0.07476562 1.98515625 0.11328125 3.0078125 C1.45512891 32.81679188 12.7093522 57.65574378 34.11083984 78.53759766 C36.08671114 80.16419533 36.08671114 80.16419533 39.00244141 81.50537109 C42.58079313 83.39587098 45.21418829 85.04921063 48 88 C49.54355234 93.85690684 49.23202186 99.3752912 48.875 105.375 C48.8318954 106.95949905 48.79408737 108.54415153 48.76171875 110.12890625 C48.42889625 121.57110375 48.42889625 121.57110375 46 124 C38.80684043 125.39422028 28.87528651 126.11502297 22.04833984 123.15332031 C18.16885367 120.52593089 15.59694733 116.81399497 13 113 C12.12784132 111.84030562 11.25277066 110.68279626 10.375 109.52734375 C-3.00963602 91.28432445 -8.18804411 70.54278102 -8.09765625 48.19140625 C-8.09578833 46.85619663 -8.0943662 45.52098631 -8.09336853 44.18577576 C-8.08957277 40.69237332 -8.079768 37.19901327 -8.06866455 33.70562744 C-8.0583868 30.1325335 -8.05385735 26.55943263 -8.04882812 22.98632812 C-8.03814275 15.99086814 -8.02110215 8.99543611 -8 2 C-4.91190305 0.23537317 -3.76687864 0 0 0 Z " fill="#F69C0B" transform="translate(72,188)"/>
<path d="M0 0 C0.10289141 7.05756925 0.17207817 14.11493966 0.21972656 21.1730957 C0.2396265 23.56542181 0.26675634 25.9577007 0.30175781 28.34985352 C0.73336899 58.6451501 -4.71162918 84.23682094 -25.95703125 106.9140625 C-26.63121094 107.60242188 -27.30539063 108.29078125 -28 109 C-28.51691406 109.7425 -29.03382813 110.485 -29.56640625 111.25 C-33.66304952 114.19590078 -38.22560994 113.49419131 -43.125 113.375 C-44.13949219 113.37371094 -45.15398437 113.37242187 -46.19921875 113.37109375 C-53.71902375 113.28097625 -53.71902375 113.28097625 -56 111 C-56.61348594 106.2664716 -56.71264712 101.53143334 -56.81005859 96.76220703 C-56.85308491 95.18058557 -56.92115135 93.59943222 -57.01513672 92.02001953 C-57.32382257 86.78114828 -57.34987153 82.10024223 -56 77 C-52.46333894 73.23169448 -48.61003175 71.22618136 -44 69 C-26.06048487 56.14147621 -13.77929898 32.78139827 -10.1171875 11.37890625 C-9.61480119 7.92960989 -9.25811647 4.47667088 -9 1 C-5.94152152 0.45627049 -3.11227195 0 0 0 Z " fill="#F69C0B" transform="translate(256,199)"/>
<path d="M0 0 C0.33 0 0.66 0 1 0 C0.09483893 8.8001771 -1.15036629 17.55246817 -2.375 26.3125 C-2.48671539 27.11380341 -2.59843079 27.91510681 -2.71353149 28.74069214 C-4.00764797 38.0190026 -5.30605906 47.29671514 -6.6875 56.5625 C-6.86297363 57.74066284 -6.86297363 57.74066284 -7.04199219 58.94262695 C-7.63141463 62.82213711 -8.32412581 66.65931138 -9.125 70.5 C-10.73717443 78.84300267 -10.65960058 87.54674781 -11 96 C-21.56 96 -32.12 96 -43 96 C-43.04125 93.48375 -43.0825 90.9675 -43.125 88.375 C-43.56800596 76.11419025 -45.72145021 64.07330359 -47.74072266 51.99560547 C-48.00334179 50.42031604 -48.26555248 48.84495847 -48.52734375 47.26953125 C-48.71929825 46.11470749 -48.71929825 46.11470749 -48.91513062 44.93655396 C-49.90408207 38.86585697 -50.68145433 32.78370982 -51.34593201 26.66938782 C-51.79650234 22.53920785 -52.39201925 18.46434844 -53.125 14.375 C-53.8683916 10.15857575 -54.19427746 6.27410414 -54 2 C-51.20721548 4.48416349 -49.6135389 7.21754723 -47.8203125 10.48046875 C-47.22089844 11.56263672 -46.62148437 12.64480469 -46.00390625 13.75976562 C-45.38386719 14.89091797 -44.76382813 16.02207031 -44.125 17.1875 C-38.5985957 29.53624511 -38.5985957 29.53624511 -30 39 C-27.0842309 39.41702122 -27.0842309 39.41702122 -24 39 C-20.72996115 36.25079557 -18.79714523 33.2150757 -16.7578125 29.4921875 C-16.16613281 28.42226563 -15.57445312 27.35234375 -14.96484375 26.25 C-14.05412109 24.579375 -14.05412109 24.579375 -13.125 22.875 C-3.10504789 4.64515164 -3.10504789 4.64515164 0 0 Z " fill="#EDDABE" transform="translate(187,400)"/>
<path d="M0 0 C10.73527442 -0.16221221 21.47025721 -0.28658003 32.20650768 -0.3626852 C37.19190451 -0.39921307 42.17646278 -0.44875448 47.16137695 -0.52807617 C51.97250411 -0.60415312 56.78282499 -0.64599365 61.59450722 -0.6641407 C63.42983 -0.67707193 65.26510878 -0.70232487 67.10008812 -0.7401104 C69.67210461 -0.79096488 72.24079381 -0.79792294 74.81323242 -0.79467773 C75.57136734 -0.81984467 76.32950226 -0.8450116 77.11061096 -0.87094116 C80.11993525 -0.8298809 82.35215019 -0.61728086 84.5809269 1.50633049 C89.11709225 7.65901241 89.75007153 13.48928376 89 21 C87.6874544 25.22378419 86.1444165 28.8555835 83 32 C80.34955896 32.18795611 77.80449186 32.25183861 75.15380859 32.22705078 C74.34397018 32.22734283 73.53413177 32.22763489 72.69975281 32.22793579 C70.01587304 32.2265395 67.33226893 32.21096435 64.6484375 32.1953125 C62.79041699 32.19158343 60.93239452 32.18873596 59.07437134 32.18673706 C54.17853386 32.17909224 49.28281461 32.15943649 44.38702393 32.1373291 C39.39344889 32.11688893 34.39985479 32.10773926 29.40625 32.09765625 C19.60411466 32.07619138 9.80206715 32.04204522 0 32 C0.14129333 31.39531387 0.28258667 30.79062775 0.42816162 30.1676178 C0.61138977 29.36730637 0.79461792 28.56699493 0.98339844 27.74243164 C1.16594177 26.95212051 1.34848511 26.16180939 1.53656006 25.34754944 C2.19246584 22.02506663 2.26434258 18.81876286 2.25 15.4375 C2.25515625 14.21933594 2.2603125 13.00117188 2.265625 11.74609375 C2.05973913 8.84249741 1.70763227 6.53928197 0.98339844 3.76586914 C0.65887695 2.52313232 0.33435547 1.28039551 0 0 Z " fill="#F0DCC0" transform="translate(295,328)"/>
<path d="M0 0 C0.76892075 0.00719055 1.53784149 0.0143811 2.33006287 0.02178955 C3.13990128 0.0214975 3.94973969 0.02120544 4.78411865 0.02090454 C7.46799842 0.02230083 10.15160253 0.03787598 12.83543396 0.05352783 C14.69345447 0.0572569 16.55147694 0.06010437 18.40950012 0.06210327 C23.3053376 0.0697481 28.20105685 0.08940384 33.09684753 0.11151123 C38.09042257 0.1319514 43.08401667 0.14110107 48.07762146 0.15118408 C57.8797568 0.17264896 67.68180431 0.20679511 77.48387146 0.24884033 C76.97168477 2.21023051 76.45949809 4.17162069 75.9473114 6.13301086 C75.246771 9.33131961 75.22004586 12.42004199 75.23387146 15.68634033 C75.22871521 16.90192627 75.22355896 18.11751221 75.21824646 19.36993408 C75.42794482 22.43214687 75.81615968 25.02857575 76.50047302 27.99127197 C76.68370117 28.7915834 76.86692932 29.59189484 77.05570984 30.41645813 C77.26764984 31.32348732 77.26764984 31.32348732 77.48387146 32.24884033 C66.73121426 32.36464383 55.97870517 32.45350985 45.22555161 32.50790119 C40.23249552 32.53400528 35.23986576 32.5694182 30.24705505 32.6260376 C25.4294897 32.68032835 20.61233463 32.71025475 15.794487 32.72322655 C13.95561004 32.73247172 12.11675577 32.75052552 10.27805328 32.77749062 C7.70391157 32.81374286 5.13146918 32.81878743 2.55711365 32.81646729 C1.79538345 32.83444366 1.03365326 32.85242004 0.24884033 32.87094116 C-3.57378303 32.83361326 -5.16198667 32.59494932 -7.94258118 29.87742615 C-11.70192926 23.59749503 -12.37235846 17.45544216 -11.51612854 10.24884033 C-9.30170989 3.78315569 -7.21122868 0.0282775 0 0 Z " fill="#F0DCC0" transform="translate(387.51612854003906,279.75115966796875)"/>
<path d="M0 0 C8.50167538 -0.06961858 17.00323094 -0.1228712 25.50512123 -0.15543652 C29.45322387 -0.17106904 33.40113097 -0.1922628 37.34912109 -0.22631836 C41.16167489 -0.25899851 44.974041 -0.27687117 48.78672409 -0.28463173 C50.23874235 -0.29015977 51.69075074 -0.30095474 53.14268875 -0.31719017 C55.18210005 -0.33908046 57.22074336 -0.34196223 59.26025391 -0.34057617 C60.41941315 -0.34723801 61.57857239 -0.35389984 62.77285767 -0.36076355 C67.08255643 0.12101942 70.4598705 1.56230192 73.64453125 4.53515625 C76.73473175 8.57618768 78.13467257 10.57292042 78.0625 15.625 C78.05347656 16.44226563 78.04445313 17.25953125 78.03515625 18.1015625 C78.02355469 18.72804688 78.01195312 19.35453125 78 20 C79.7015625 20.185625 79.7015625 20.185625 81.4375 20.375 C83.2009375 20.684375 83.2009375 20.684375 85 21 C85.495 21.99 85.495 21.99 86 23 C84.41240356 27.58747193 82.31014337 31.53706093 78 34 C76.02 32.35 74.04 30.7 72 29 C70.72351089 29.73196342 70.72351089 29.73196342 69.42123413 30.47871399 C65.69381691 32.13614738 63.31322972 32.36386914 59.26025391 32.34057617 C58.61564209 32.34101425 57.97103027 32.34145233 57.30688477 32.34190369 C55.19645885 32.33982956 53.08684797 32.31656576 50.9765625 32.29296875 C49.50540602 32.28736785 48.03424392 32.28310009 46.56307983 32.28010559 C42.70620048 32.26869557 38.84966441 32.23926212 34.99291992 32.20599365 C31.05131676 32.1752094 27.10965769 32.16158247 23.16796875 32.14648438 C15.44515664 32.11438818 7.72262657 32.0632391 0 32 C0.27714844 31.45730469 0.55429687 30.91460937 0.83984375 30.35546875 C1.20207031 29.64003906 1.56429688 28.92460937 1.9375 28.1875 C2.47697266 27.12595703 2.47697266 27.12595703 3.02734375 26.04296875 C5.74274001 20.33954608 6.26310663 13.57114692 4.140625 7.5703125 C3.17040198 5.65095827 2.13803255 3.82359432 1 2 C0.67 1.34 0.34 0.68 0 0 Z " fill="#DD543F" transform="translate(378,328)"/>
<path d="M0 0 C5 1.66666667 10 3.33333333 15 5 C14.83826325 5.86862986 14.67652651 6.73725971 14.50988865 7.63221169 C14.03376828 10.77696227 13.86233003 13.70841494 13.84178162 16.88461304 C13.8319928 18.03718597 13.82220398 19.18975891 13.81211853 20.3772583 C13.80636307 21.62738708 13.8006076 22.87751587 13.79467773 24.16552734 C13.78508898 25.50629979 13.77507833 26.84706928 13.76467896 28.18783569 C13.73773178 31.81544487 13.71666733 35.44306691 13.69667697 39.0707202 C13.67475429 42.86639447 13.64739644 46.66202953 13.62062073 50.45767212 C13.57077856 57.63980897 13.52580842 64.82196769 13.48259836 72.00414717 C13.43315338 80.18311667 13.37826226 88.36204681 13.32291877 96.54097819 C13.20922891 113.36061603 13.10255493 130.18029054 13 147 C7.72 147 2.44 147 -3 147 C-3.0695124 129.01483601 -3.12301737 111.02971828 -3.15543652 93.04444885 C-3.17089086 84.6931602 -3.19195293 76.34195667 -3.22631836 67.99072266 C-3.25626465 60.70991075 -3.27558541 53.42916051 -3.28226548 46.14828873 C-3.28616891 42.29480606 -3.29531244 38.44149975 -3.31719017 34.58807373 C-3.33763811 30.95687119 -3.34381715 27.32591674 -3.33932304 23.69466209 C-3.34053458 21.73523663 -3.3566331 19.77583783 -3.3732605 17.81648254 C-3.34996956 11.14904591 -2.84840702 6.05957744 0 0 Z " fill="#000000" transform="translate(27,349)"/>
<path d="M0 0 C5.28 0 10.56 0 16 0 C16 2.64 16 5.28 16 8 C45.7 8 75.4 8 106 8 C106 13.28 106 18.56 106 24 C88.74535497 24.11574873 71.49086501 24.20497462 54.23592091 24.25906086 C46.22412207 24.28484167 38.21256889 24.31998951 30.20092773 24.37719727 C23.21789199 24.42703641 16.23503417 24.45929192 9.25182551 24.47044247 C5.55422897 24.47696051 1.85714141 24.4922761 -1.84029198 24.52865028 C-5.96822045 24.56893008 -10.09526433 24.56994913 -14.22338867 24.56762695 C-15.44906052 24.58560333 -16.67473236 24.60357971 -17.93754578 24.62210083 C-27.15950649 24.56580599 -27.15950649 24.56580599 -30.25947571 21.65202332 C-32 19 -32 19 -32.625 16 C-31.9894095 12.94916561 -31.22387827 11.18895695 -28.95703125 9.02978516 C-24.27770544 6.56753512 -18.32127921 7.51486904 -13.1875 7.6875 C-11.92228516 7.71005859 -10.65707031 7.73261719 -9.35351562 7.75585938 C-6.23447381 7.81470922 -3.11784098 7.8968863 0 8 C0 5.36 0 2.72 0 0 Z " fill="#EFDBBF" transform="translate(336,176)"/>
<path d="M0 0 C0.65378128 -0.00014603 1.30756256 -0.00029205 1.9811554 -0.0004425 C4.14551086 0.00025504 6.30978063 0.00803999 8.47412109 0.01586914 C9.97341871 0.01773388 11.47271694 0.01915752 12.97201538 0.02015686 C16.92087482 0.0239776 20.86969756 0.03380411 24.81854248 0.04486084 C28.84695947 0.05508448 32.87538238 0.05965653 36.90380859 0.06469727 C44.81007545 0.07542677 52.71631246 0.09249789 60.62255859 0.11352539 C60.26891739 0.79982529 59.91527618 1.48612518 59.55091858 2.19322205 C59.09253098 3.09367752 58.63414337 3.994133 58.16186523 4.921875 C57.70509903 5.8144249 57.24833282 6.70697479 56.77772522 7.62657166 C54.32296334 12.91141895 54.67953363 18.2844505 56.49755859 23.73852539 C57.45148895 25.92695385 58.47703959 28.02030794 59.62255859 30.11352539 C60.11755859 31.10352539 60.11755859 31.10352539 60.62255859 32.11352539 C51.99054041 32.20634392 43.3586949 32.27735005 34.72628593 32.32077408 C30.71757207 32.34161909 26.70920049 32.36987946 22.70068359 32.4152832 C18.82976051 32.45885238 14.95916594 32.48268571 11.08801651 32.49303436 C9.61364701 32.500406 8.13929481 32.51480131 6.66506577 32.53644562 C4.594354 32.56562896 2.52498699 32.56947549 0.45410156 32.56762695 C-1.31128464 32.58095062 -1.31128464 32.58095062 -3.11233521 32.59454346 C-8.2201797 31.84205171 -11.29234344 29.31593124 -14.68994141 25.55102539 C-17.83430076 21.00917299 -18.03782224 16.46994774 -17.37744141 11.11352539 C-13.44297254 3.39030872 -8.44077469 -0.01580669 0 0 Z " fill="#416786" transform="translate(321.37744140625,279.886474609375)"/>
<path d="M0 0 C17.12429181 -0.06945026 34.24852736 -0.12298553 51.37292767 -0.15543652 C59.32410667 -0.17090464 67.27519656 -0.19199306 75.22631836 -0.22631836 C82.15661533 -0.25622245 89.08684775 -0.2755754 96.01720744 -0.28226548 C99.68671554 -0.28617605 103.35603899 -0.29536513 107.0254879 -0.31719017 C111.12213707 -0.3413584 115.21846532 -0.34196935 119.31518555 -0.34057617 C121.13966721 -0.35675491 121.13966721 -0.35675491 123.00100708 -0.3732605 C124.11854874 -0.36913651 125.23609039 -0.36501251 126.38749695 -0.36076355 C127.35630137 -0.36352893 128.3251058 -0.36629431 129.32326794 -0.36914349 C132.51704108 0.07130424 134.40345837 1.11873259 137 3 C138.40457737 5.80915474 138.24895157 7.88810534 138 11 C136.22015595 14.1359157 135.47691793 14.84102736 132 16 C130.21117742 16.09055683 128.41911845 16.12195548 126.62800598 16.12025452 C125.51321365 16.12162918 124.39842133 16.12300385 123.24984741 16.12442017 C122.02633575 16.12082489 120.8028241 16.11722961 119.54223633 16.11352539 C117.61037224 16.11374443 117.61037224 16.11374443 115.63948059 16.1139679 C112.10669914 16.11425513 108.57395156 16.10837032 105.04117799 16.10139394 C101.34961255 16.09514812 97.65804635 16.09455563 93.96647644 16.09336853 C86.97545691 16.09025884 79.98445299 16.08205033 72.99344033 16.07201904 C65.0346368 16.06084667 57.07583253 16.05534461 49.11702311 16.05032361 C32.74467267 16.03986743 16.37233894 16.02207385 0 16 C0 10.72 0 5.44 0 0 Z " fill="#F0DCBF" transform="translate(310,248)"/>
<path d="M0 0 C3 1 3 1 4.4296875 3.37890625 C7.11073999 9.28446781 9.34926217 14.94591404 11.125 21.1875 C14.295733 32.13872396 19.53152709 42.24559718 24.38183594 52.52636719 C27.08775013 58.33501943 29.6734811 64.19555352 32.25 70.0625 C32.96663818 71.6865979 32.96663818 71.6865979 33.69775391 73.34350586 C37 80.87113427 37 80.87113427 37 82 C31.06 82 25.12 82 19 82 C15.33333333 74.66666667 11.66666667 67.33333333 8 60 C7.62488281 60.71285156 7.24976563 61.42570312 6.86328125 62.16015625 C2.17077338 70.94235612 2.17077338 70.94235612 -0.8125 74.9375 C-3.24728657 77.95066016 -3.24728657 77.95066016 -4 82 C-9.28 82 -14.56 82 -20 82 C-20.9690799 72.55147098 -20.9690799 72.55147098 -18.39453125 68.4296875 C-16.98362922 66.78319395 -15.55316084 65.15330324 -14.10546875 63.5390625 C-5.77530873 53.49341498 -4.08576747 40.59399022 -4.78710938 27.99658203 C-5.44034391 21.87026089 -7.60136926 16.09794611 -11 11 C-10.9296875 9.05078125 -10.9296875 9.05078125 -10 7 C-7.8203125 5.04296875 -7.8203125 5.04296875 -5.125 3.1875 C-3.79855469 2.24970703 -3.79855469 2.24970703 -2.4453125 1.29296875 C-1.63835937 0.86628906 -0.83140625 0.43960937 0 0 Z " fill="#000101" transform="translate(252,414)"/>
<path d="M0 0 C5.85693328 3.0045681 10.82743887 6.17619252 15.5625 10.75 C16.3963623 11.54313599 16.3963623 11.54313599 17.24707031 12.35229492 C18.84557114 13.88779491 20.42592371 15.43951587 22 17 C22.75667969 17.74378906 23.51335937 18.48757812 24.29296875 19.25390625 C41.38313165 37.23098379 48.6212386 61.5087538 48.2043457 85.85351562 C48.15081717 87.90277673 48.07770866 89.95151331 48 92 C43.76656971 92.33770212 40.08341459 92.23420708 36 91 C32.70672549 87.61838246 30.99368939 83.64464255 29.0625 79.375 C28.1839784 77.59339994 27.30538276 75.8118279 26.42079163 74.03323364 C25.52049487 72.21279989 24.63849337 70.38420721 23.75683594 68.5546875 C21.11244259 63.204164 18.16046892 58.04772088 15.1875 52.875 C14.65431152 51.91940186 14.12112305 50.96380371 13.57177734 49.97924805 C11.2570613 45.83914938 8.92416031 41.80239274 6.1875 37.92578125 C-1.91098534 26.06575454 -0.93497882 13.96235039 0 0 Z " fill="#FCB130" transform="translate(208,45)"/>
<path d="M0 0 C11.88 0 23.76 0 36 0 C36.474375 4.393125 36.94875 8.78625 37.4375 13.3125 C37.58501709 14.65352783 37.73253418 15.99455566 37.88452148 17.3762207 C38.96528951 27.61250237 39.4565151 37.67378699 40 48 C26.8 48 13.6 48 0 48 C0 32.16 0 16.32 0 0 Z " fill="#507593" transform="translate(336,448)"/>
<path d="M0 0 C1.06092734 1.90607285 2.09820101 3.82532746 3.125 5.75 C3.70507812 6.81734375 4.28515625 7.8846875 4.8828125 8.984375 C6 12 6 12 5.6328125 14.15234375 C3.17192996 16.93702663 0.04772162 18.24029988 -3.25 19.8125 C-22.71863861 29.61332642 -40.75348885 43.2173209 -56.76953125 57.953125 C-58.83296274 59.84671187 -60.93574581 61.67826164 -63.0625 63.5 C-71.23529973 70.61599342 -71.23529973 70.61599342 -78 79 C-81.47775179 77.48446596 -83.9557984 75.4226544 -86.75 72.875 C-87.54921875 72.15054688 -88.3484375 71.42609375 -89.171875 70.6796875 C-89.77515625 70.12539062 -90.3784375 69.57109375 -91 69 C-85.16665153 60.60455338 -78.07713386 53.61405349 -70.32421875 46.98828125 C-68.54027804 45.46218743 -66.77557425 43.91358292 -65.01953125 42.35546875 C-17.01808347 0 -17.01808347 0 0 0 Z " fill="#040300" transform="translate(173,62)"/>
<path d="M0 0 C1.2065625 0.0309375 1.2065625 0.0309375 2.4375 0.0625 C3.77955729 2.74661458 3.94699555 5.23600933 4.33984375 8.21484375 C4.50806641 9.46716797 4.67628906 10.71949219 4.84960938 12.00976562 C5.025065 13.33980086 5.20019341 14.6698793 5.375 16 C6.40414773 23.78317424 7.48292621 31.52160982 8.93969727 39.23657227 C10.17129781 46.22812516 11.00228568 53.28819227 11.9375 60.32421875 C12.79051231 66.6485053 13.74845141 72.91957915 14.92871094 79.19042969 C15.97218222 85.08073495 16.7495273 91.01183232 17.5625 96.9375 C17.74425781 98.22914063 17.92601562 99.52078125 18.11328125 100.8515625 C18.28472656 102.09421875 18.45617187 103.336875 18.6328125 104.6171875 C18.78766113 105.73593262 18.94250977 106.85467773 19.10205078 108.00732422 C19.40064818 110.72686409 19.50301815 113.33045669 19.4375 116.0625 C15.54016431 111.41194307 12.21988825 106.41067686 8.84375 101.37890625 C8.21521118 100.4457811 7.58667236 99.51265594 6.93908691 98.55125427 C4.93652434 95.57719898 2.93698842 92.60112272 0.9375 89.625 C-0.40735632 87.62682135 -1.75240636 85.62877307 -3.09765625 83.63085938 C-9.98386143 73.40045879 -9.98386143 73.40045879 -12.1027832 70.22195435 C-13.01281223 68.875689 -13.94082337 67.54119652 -14.89526367 66.2260437 C-16.03710938 64.63647461 -16.03710938 64.63647461 -17.5625 62.0625 C-17.2325 61.0725 -16.9025 60.0825 -16.5625 59.0625 C-14.07282289 58.09837474 -11.68191002 57.29439483 -9.125 56.5625 C-3.51228021 55.12951284 -3.51228021 55.12951284 0.4375 51.0625 C1.07788885 48.00286436 1.06047896 46.02329149 -0.671875 43.3515625 C-2.54654193 41.15207705 -4.52321138 39.11165615 -6.5625 37.0625 C-7.35817383 36.25643311 -7.35817383 36.25643311 -8.16992188 35.43408203 C-11.94062824 31.6160842 -15.74233001 27.83096844 -19.5625 24.0625 C-18.26313656 20.44128413 -16.72046756 17.68712983 -14.33984375 14.671875 C-13.71916016 13.88039063 -13.09847656 13.08890625 -12.45898438 12.2734375 C-11.81251953 11.46132813 -11.16605469 10.64921875 -10.5 9.8125 C-9.84966797 8.98492187 -9.19933594 8.15734375 -8.52929688 7.3046875 C-2.82972416 0.06901766 -2.82972416 0.06901766 0 0 Z " fill="#63819B" transform="translate(102.5625,327.9375)"/>
<path d="M0 0 C2.23046875 -0.30078125 2.23046875 -0.30078125 5 0 C7.17578125 2.01953125 7.17578125 2.01953125 9.3125 4.8125 C10.08078125 5.80507813 10.8490625 6.79765625 11.640625 7.8203125 C15.12951825 12.52223154 18.61075124 17.22549971 22 22 C20.56001825 25.34263246 18.77625749 27.39392668 16.12109375 29.86328125 C15.36505859 30.58580078 14.60902344 31.30832031 13.83007812 32.05273438 C12.23879049 33.55568931 10.63982616 35.0505589 9.03320312 36.53710938 C4.40482791 40.9904103 4.40482791 40.9904103 1.84765625 46.79296875 C1.91233408 50.81667876 1.91233408 50.81667876 4 54 C6.61855634 55.35754296 9.33513066 56.30558827 12.125 57.25 C12.87910156 57.518125 13.63320312 57.78625 14.41015625 58.0625 C16.26889479 58.72129341 18.13389286 59.36237797 20 60 C18.72539482 63.44129479 17.25245555 66.35624437 15.19018555 69.38793945 C14.62587326 70.2226326 14.06156097 71.05732574 13.48014832 71.91731262 C12.87181656 72.80698227 12.2634848 73.69665192 11.63671875 74.61328125 C11.00772171 75.54166306 10.37872467 76.47004486 9.73066711 77.42655945 C7.72072014 80.39158331 5.70442037 83.35221632 3.6875 86.3125 C1.68243364 89.26282915 -0.32126913 92.21407316 -2.3235321 95.16630554 C-3.56823917 97.00076679 -4.81473398 98.83401676 -6.06330872 100.66584778 C-8.74298873 104.60829117 -11.36878026 108.56111151 -13.86010742 112.62573242 C-14.91935425 114.29599487 -14.91935425 114.29599487 -16 116 C-16.33 116 -16.66 116 -17 116 C-16.49095759 105.3978753 -15.06191025 95.06851945 -13.40722656 84.59667969 C-12.74925283 80.40111097 -12.12598328 76.20043856 -11.5 72 C-11.2501752 70.33330706 -11.00017499 68.66664041 -10.75 67 C-10.564375 65.7625 -10.564375 65.7625 -10.375 64.5 C-9 55.33333333 -7.625 46.16666667 -6.25 37 C-6.12608887 36.1735498 -6.00217773 35.34709961 -5.87451172 34.49560547 C-5.62658579 32.84352018 -5.37821972 31.19150087 -5.12939453 29.53955078 C-4.4688735 25.15025403 -3.81797848 20.75977625 -3.1796875 16.3671875 C-2.97762695 14.98853516 -2.97762695 14.98853516 -2.77148438 13.58203125 C-2.51217951 11.81160495 -2.25555814 10.04078301 -2.00195312 8.26953125 C-1.1124622 2.2249244 -1.1124622 2.2249244 0 0 Z " fill="#63819B" transform="translate(215,328)"/>
<path d="M0 0 C25.74 0 51.48 0 78 0 C76.73588267 6.32058663 74.40460896 9.62666264 69.1171875 13.3125 C66.47897583 14.74980528 63.78120496 15.86147552 61 17 C60.07743408 17.44206787 60.07743408 17.44206787 59.13623047 17.89306641 C40.52109356 26.71871113 20.05796809 24.61611506 0 24 C0 16.08 0 8.16 0 0 Z " fill="#FCC7A1" transform="translate(336,376)"/>
<path d="M0 0 C3.56305823 1.28544658 6.32844233 2.79844656 9.3125 5.125 C10.00988281 5.66382813 10.70726563 6.20265625 11.42578125 6.7578125 C12.20501953 7.37269531 12.20501953 7.37269531 13 8 C12.44092443 12.3328357 10.78051574 15.90677359 8.9375 19.81640625 C5.21781462 28.48017345 5.72090742 41.20278687 9 50 C13.09845216 59.5583714 13.09845216 59.5583714 19.4375 67.6875 C22.28712044 70.62026587 22.36987373 72.89800221 22.375 76.9375 C22.189375 79.4434375 22.189375 79.4434375 22 82 C16.72 82 11.44 82 6 82 C5.34 79.69 4.68 77.38 4 75 C2.69821809 72.84358072 2.69821809 72.84358072 1.125 71.0625 C-9.19064396 57.89252738 -11.65890972 41.3149855 -10 25 C-8.3721316 15.79065461 -4.86222689 7.94163725 0 0 Z " fill="#010102" transform="translate(66,414)"/>
<path d="M0 0 C2.97390747 -0.36076355 2.97390747 -0.36076355 6.83642578 -0.34057617 C7.53897491 -0.34101425 8.24152405 -0.34145233 8.96536255 -0.34190369 C11.29229326 -0.33981021 13.61850736 -0.31645395 15.9453125 -0.29296875 C17.55670783 -0.28737476 19.16810825 -0.28310373 20.7795105 -0.28010559 C25.0244145 -0.26864126 29.26901142 -0.23916068 33.51379395 -0.20599365 C37.84378912 -0.17532682 42.17383382 -0.16160752 46.50390625 -0.14648438 C55.00276091 -0.11429221 63.5013069 -0.06151159 72 0 C72 5.28 72 10.56 72 16 C48.24 16 24.48 16 0 16 C-1.81406528 12.37186945 -2.27562126 11.22304066 -2.25 7.4375 C-2.25773437 6.29087891 -2.25773437 6.29087891 -2.265625 5.12109375 C-2 3 -2 3 0 0 Z " fill="#EFDBBF" transform="translate(394,216)"/>
<path d="M0 0 C5.28 0 10.56 0 16 0 C16 2.64 16 5.28 16 8 C21.94 8 27.88 8 34 8 C33.67 8.99 33.34 9.98 33 11 C32.90691456 12.66458673 32.87003815 14.33281997 32.875 16 C32.87242187 16.86625 32.86984375 17.7325 32.8671875 18.625 C32.90405795 21.15011695 32.90405795 21.15011695 34 24 C26.13308783 24.1159815 18.26637686 24.20475893 10.39882374 24.25906086 C6.74531107 24.28512695 3.0923844 24.32046776 -0.56079102 24.37719727 C-4.08808948 24.43162765 -7.61482527 24.46144302 -11.14251137 24.47438622 C-13.13956402 24.48808639 -15.13639106 24.52710294 -17.13310242 24.56648254 C-27.23423586 24.56960711 -27.23423586 24.56960711 -30.32543945 21.65698242 C-32.40559705 18.35644952 -32.79743156 16.82767148 -32 13 C-30.34889531 10.37131817 -29.67293188 9.40649035 -27 8 C-22.38410192 7.37090765 -17.83498616 7.53122137 -13.1875 7.6875 C-11.92228516 7.71005859 -10.65707031 7.73261719 -9.35351562 7.75585938 C-6.23447381 7.81470922 -3.11784098 7.8968863 0 8 C0 5.36 0 2.72 0 0 Z " fill="#DD543F" transform="translate(336,176)"/>
<path d="M0 0 C1.36047565 0.00933313 2.72096817 0.01644689 4.08146667 0.0214386 C7.65097992 0.04046994 11.21946528 0.08953445 14.78857422 0.1449585 C18.43507992 0.19623621 22.0817528 0.21897063 25.72851562 0.24414062 C32.87541885 0.29765912 40.02162646 0.38292307 47.16796875 0.48828125 C46.83796875 1.47828125 46.50796875 2.46828125 46.16796875 3.48828125 C46.07549494 4.96514236 46.03797804 6.44603626 46.04296875 7.92578125 C46.04039062 8.68761719 46.0378125 9.44945312 46.03515625 10.234375 C46.16547154 12.44590221 46.60336332 14.3534896 47.16796875 16.48828125 C39.30105658 16.60426275 31.43434561 16.69304018 23.56679249 16.74734211 C19.91327982 16.7734082 16.26035315 16.80874901 12.60717773 16.86547852 C9.07987927 16.9199089 5.55314348 16.94972427 2.02545738 16.96266747 C0.02840473 16.97636764 -1.96842231 17.01538419 -3.96513367 17.05476379 C-14.06626711 17.05788836 -14.06626711 17.05788836 -17.1574707 14.14526367 C-19.2376283 10.84473077 -19.62946281 9.31595273 -18.83203125 5.48828125 C-14.41309119 -1.52313801 -7.56407681 -0.14918049 0 0 Z " fill="#834D39" transform="translate(346.83203125,215.51171875)"/>
<path d="M0 0 C7.73660514 -0.06959394 15.47317771 -0.12285889 23.21002483 -0.15543652 C26.80280829 -0.17107439 30.39537715 -0.19227779 33.98803711 -0.22631836 C37.45694391 -0.25897965 40.92564464 -0.27686714 44.39469337 -0.28463173 C46.35838752 -0.29285018 48.32199908 -0.31625892 50.28556824 -0.33988953 C51.4864357 -0.34011612 52.68730316 -0.34034271 53.92456055 -0.34057617 C54.97935104 -0.34723801 56.03414154 -0.35389984 57.12089539 -0.36076355 C60.44249262 0.05544613 62.31748239 1.02912749 65 3 C66.40457737 5.80915474 66.24895157 7.88810534 66 11 C64.22015595 14.1359157 63.47691793 14.84102736 60 16 C58.05219171 16.08877175 56.10143718 16.11761308 54.15161133 16.11352539 C52.35008354 16.11341209 52.35008354 16.11341209 50.51216125 16.11329651 C48.5667469 16.10555458 48.5667469 16.10555458 46.58203125 16.09765625 C45.24110466 16.09579077 43.90017739 16.09436748 42.55924988 16.09336853 C39.03290927 16.08955356 35.50660996 16.07973199 31.98028564 16.06866455 C28.38074299 16.0584285 24.78119365 16.05386621 21.18164062 16.04882812 C14.12107687 16.0381088 7.06054113 16.02104462 0 16 C0.24339111 15.07973022 0.24339111 15.07973022 0.49169922 14.14086914 C1.03882752 11.83646566 1.1330053 9.80306681 1.125 7.4375 C1.12757813 6.67308594 1.13015625 5.90867188 1.1328125 5.12109375 C1.07907384 2.81001505 1.07907384 2.81001505 0 0 Z " fill="#FDB330" transform="translate(382,248)"/>
<path d="M0 0 C1.00732399 1.93370231 2.00563288 3.87210306 3 5.8125 C3.556875 6.89144531 4.11375 7.97039062 4.6875 9.08203125 C6 12 6 12 6 15 C-8.56109462 20.94406687 -21.13187243 23.32056823 -37 23 C-37 17.72 -37 12.44 -37 7 C-33.3803125 6.8453125 -33.3803125 6.8453125 -29.6875 6.6875 C-19.58817882 6.13047294 -9.50510835 0 0 0 Z " fill="#030202" transform="translate(181,209)"/>
<path d="M0 0 C4.79765866 2.39882933 7.565249 5.22414226 10 10 C10.65293024 15.22344192 9.845108 18.58517724 7 23 C2.67899005 26.89944801 0.00536835 28.36020885 -5.90234375 28.28515625 C-10.21394851 27.69903493 -13.03150384 25.10208184 -15.8125 21.9375 C-18.23959201 17.97750777 -18.38595477 14.55426632 -18 10 C-14.19674018 2.53975959 -8.39570848 -1.64555886 0 0 Z " fill="#040302" transform="translate(206,152)"/>
<path d="M0 0 C10.89 0 21.78 0 33 0 C34 6 34 6 34 16 C22.78 16 11.56 16 0 16 C0 10.72 0 5.44 0 0 Z " fill="#EFDBBF" transform="translate(336,416)"/>
<path d="M0 0 C7.91317365 1.13045338 7.91317365 1.13045338 10.8125 3.8125 C11.37582031 4.31394531 11.93914062 4.81539062 12.51953125 5.33203125 C16.17097285 9.44592455 16.43409959 13.19581856 16.31640625 18.53125 C15.69970296 23.34305841 12.99340629 26.00659371 9.6875 29.3125 C7 31 7 31 0 32 C0 21.44 0 10.88 0 0 Z " fill="#F7BA8E" transform="translate(248,152)"/>
<path d="M0 0 C1.05960938 0.32484375 1.05960938 0.32484375 2.140625 0.65625 C17.3901704 4.79431759 32.7962542 3.87004438 48 0 C48 2.64 48 5.28 48 8 C31.8304734 13.26834985 16.26919278 13.42306426 0 8 C0 5.36 0 2.72 0 0 Z " fill="#FBBD91" transform="translate(136,284)"/>
<path d="M0 0 C0.66 0 1.32 0 2 0 C0.44499019 3.81684226 -2.03595495 6.19195732 -5 9 C-5.66 8.67 -6.32 8.34 -7 8 C-5.88200014 6.66079162 -4.75538103 5.32877444 -3.625 4 C-2.68527344 2.88625 -2.68527344 2.88625 -1.7265625 1.75 C-1.15679687 1.1725 -0.58703125 0.595 0 0 Z " fill="#FDB01E" transform="translate(87,52)"/>
</svg>
