<?xml version="1.0" encoding="UTF-8"?>
<svg version="1.1" xmlns="http://www.w3.org/2000/svg" width="512" height="512">
<path d="M0 0 C3.76513235 1.21798241 5.33266797 0.51212522 8.91015625 -1.05859375 C9.833125 -1.43757812 10.75609375 -1.8165625 11.70703125 -2.20703125 C12.6815625 -2.61179687 13.65609375 -3.0165625 14.66015625 -3.43359375 C46.03065932 -15.27218226 78.44308798 -11.48680897 108.91015625 0.94140625 C109.57015625 1.27140625 110.23015625 1.60140625 110.91015625 1.94140625 C110.91015625 18.44140625 110.91015625 34.94140625 110.91015625 51.94140625 C112.89015625 52.27140625 114.87015625 52.60140625 116.91015625 52.94140625 C123.84015625 55.91140625 130.77015625 58.88140625 137.91015625 61.94140625 C137.91015625 90.32140625 137.91015625 118.70140625 137.91015625 147.94140625 C149.13015625 147.94140625 160.35015625 147.94140625 171.91015625 147.94140625 C178.6513391 158.05318053 178.6513391 158.05318053 181.06640625 162.4453125 C181.87754883 163.90976807 181.87754883 163.90976807 182.70507812 165.40380859 C183.5490918 166.93835693 183.5490918 166.93835693 184.41015625 168.50390625 C189.8513902 178.31599147 195.41809799 188.0435113 201.11523438 197.70922852 C202.7249367 200.44682566 204.31894024 203.19303131 205.91015625 205.94140625 C206.49539063 206.93043945 207.080625 207.91947266 207.68359375 208.93847656 C208.24304688 209.91139648 208.8025 210.88431641 209.37890625 211.88671875 C210.14364258 213.19793701 210.14364258 213.19793701 210.92382812 214.53564453 C211.91015625 216.94140625 211.91015625 216.94140625 210.91015625 220.94140625 C198.70015625 220.94140625 186.49015625 220.94140625 173.91015625 220.94140625 C173.91015625 289.91140625 173.91015625 358.88140625 173.91015625 429.94140625 C183.81015625 429.94140625 193.71015625 429.94140625 203.91015625 429.94140625 C209.02902863 433.01272968 210.01604363 433.61345075 211.91015625 438.94140625 C212.31542666 442.12055928 212.32996249 445.24024941 212.28515625 448.44140625 C212.29675781 449.27027344 212.30835938 450.09914063 212.3203125 450.953125 C212.29620517 456.00762796 211.73898125 459.58087601 208.91015625 463.94140625 C208.25015625 464.27140625 207.59015625 464.60140625 206.91015625 464.94140625 C208.14318481 464.9554248 208.14318481 464.9554248 209.40112305 464.96972656 C213.13390587 465.02348496 216.86544306 465.10712456 220.59765625 465.19140625 C221.89123047 465.20558594 223.18480469 465.21976562 224.51757812 465.234375 C225.76474609 465.26660156 227.01191406 465.29882812 228.296875 465.33203125 C230.01716919 465.36345215 230.01716919 465.36345215 231.7722168 465.39550781 C235.52715322 466.04874346 237.19663958 467.31652664 239.91015625 469.94140625 C242.59812052 474.42405361 242.2420879 479.36585938 242.22265625 484.44140625 C242.23876953 485.28316406 242.25488281 486.12492187 242.27148438 486.9921875 C242.2752619 491.78964532 242.08820424 495.0961834 238.91015625 498.94140625 C235.9409814 501.87304743 233.55145019 502.2946741 229.42854339 502.34406722 C228.69955893 502.33761541 227.97057448 502.33116361 227.21949959 502.3245163 C226.43665315 502.32947581 225.65380671 502.33443533 224.84723765 502.33954513 C222.20806453 502.35256116 219.5693924 502.34409767 216.9302063 502.33581543 C215.0253688 502.3407015 213.12053426 502.34688997 211.2157048 502.35427332 C205.96875452 502.3707321 200.72195391 502.36834286 195.47498679 502.36289835 C189.82115552 502.36023545 184.16736482 502.37474602 178.5135498 502.38699341 C167.43218298 502.40808101 156.35086845 502.41258635 145.26948394 502.41080552 C136.26504657 502.40949956 127.26062555 502.41329356 118.25619125 502.42073059 C115.6656605 502.42282971 113.07512975 502.42492731 110.48459899 502.42702341 C108.55072205 502.4285887 108.55072205 502.4285887 106.57777689 502.43018562 C89.1120303 502.44372524 71.64629481 502.45130929 54.1805439 502.44686127 C53.49727783 502.44668931 52.81401177 502.44651736 52.11004067 502.44634019 C48.64684597 502.44545128 45.18365129 502.44450647 41.72045662 502.44354218 C41.03263503 502.44335115 40.34481345 502.44316012 39.63614879 502.44296329 C38.24520571 502.4425762 36.85426264 502.44218588 35.46331956 502.44179232 C13.81908994 502.43582197 -7.82503277 502.45126041 -29.46923828 502.48339844 C-53.77776694 502.51946179 -78.08620733 502.53876614 -102.39476883 502.53385973 C-115.26895762 502.5316121 -128.14304044 502.53690111 -141.0172081 502.56175232 C-151.97730182 502.58272804 -162.93723145 502.58639452 -173.89733182 502.56745273 C-179.491999 502.55827188 -185.08635994 502.55722374 -190.68100357 502.57780838 C-195.79962124 502.59643366 -200.91768005 502.59211003 -206.03627588 502.56926256 C-207.89089491 502.56505538 -209.74555608 502.56934741 -211.60013066 502.5828585 C-214.11660286 502.59994737 -216.63110795 502.58637982 -219.14750481 502.56502533 C-219.87180693 502.57730286 -220.59610905 502.58958038 -221.34235972 502.60222995 C-226.97346348 502.50203366 -229.31138623 500.84122302 -233.08984375 496.94140625 C-234.46457659 492.81720773 -234.31376082 488.94889116 -234.33984375 484.62890625 C-234.36046875 483.78650391 -234.38109375 482.94410156 -234.40234375 482.07617188 C-234.43441099 476.94942254 -234.03709025 473.32908629 -231.08984375 468.94140625 C-227.73972602 465.73263964 -225.13428511 465.53332537 -220.57421875 465.4296875 C-218.69863281 465.37651367 -218.69863281 465.37651367 -216.78515625 465.32226562 C-215.48320312 465.29970703 -214.18125 465.27714844 -212.83984375 465.25390625 C-211.52242187 465.21974609 -210.205 465.18558594 -208.84765625 465.15039062 C-205.59513697 465.06789919 -202.34288779 464.99874955 -199.08984375 464.94140625 C-199.72921875 464.34328125 -200.36859375 463.74515625 -201.02734375 463.12890625 C-205.00020025 458.91527057 -204.30690315 454.08469291 -204.33984375 448.62890625 C-204.36046875 447.78650391 -204.38109375 446.94410156 -204.40234375 446.07617188 C-204.43427799 440.97068486 -204.10186652 437.26955201 -201.08984375 432.94140625 C-196.08984375 429.94140625 -196.08984375 429.94140625 -166.08984375 429.94140625 C-166.08984375 360.97140625 -166.08984375 292.00140625 -166.08984375 220.94140625 C-178.29984375 220.94140625 -190.50984375 220.94140625 -203.08984375 220.94140625 C-204.27814202 216.18821317 -203.73248075 215.59210874 -201.3984375 211.48828125 C-200.7902417 210.40595215 -200.1820459 209.32362305 -199.55541992 208.20849609 C-198.87976193 207.03592103 -198.20372711 205.86356304 -197.52734375 204.69140625 C-196.8393401 203.47919472 -196.15225806 202.2664597 -195.46606445 201.05322266 C-193.35892399 197.33867628 -191.22683066 193.63884037 -189.08984375 189.94140625 C-188.45369141 188.83829102 -187.81753906 187.73517578 -187.16210938 186.59863281 C-183.69836694 180.60426028 -180.20530469 174.62769006 -176.69140625 168.66259766 C-175.13162101 166.01238938 -173.57842156 163.35843692 -172.02734375 160.703125 C-171.11080061 159.13664647 -170.1941417 157.57023566 -169.27734375 156.00390625 C-168.86250732 155.29347168 -168.4476709 154.58303711 -168.02026367 153.85107422 C-165.20459447 149.05615697 -165.20459447 149.05615697 -164.08984375 147.94140625 C-152.86984375 147.94140625 -141.64984375 147.94140625 -130.08984375 147.94140625 C-130.08984375 119.56140625 -130.08984375 91.18140625 -130.08984375 61.94140625 C-106.33984375 51.94140625 -106.33984375 51.94140625 -103.08984375 51.94140625 C-103.08984375 35.44140625 -103.08984375 18.94140625 -103.08984375 1.94140625 C-85.76434319 -4.98879397 -85.76434319 -4.98879397 -78.08984375 -6.87109375 C-76.92001953 -7.17563477 -76.92001953 -7.17563477 -75.7265625 -7.48632812 C-50.99151566 -13.78441148 -22.77264293 -11.71083868 0 0 Z " fill="#E4EFFE" transform="translate(252.08984375,10.05859375)"/>
<path d="M0 0 C3.76513235 1.21798241 5.33266797 0.51212522 8.91015625 -1.05859375 C9.833125 -1.43757812 10.75609375 -1.8165625 11.70703125 -2.20703125 C12.6815625 -2.61179687 13.65609375 -3.0165625 14.66015625 -3.43359375 C46.03065932 -15.27218226 78.44308798 -11.48680897 108.91015625 0.94140625 C109.57015625 1.27140625 110.23015625 1.60140625 110.91015625 1.94140625 C110.91015625 18.44140625 110.91015625 34.94140625 110.91015625 51.94140625 C112.89015625 52.27140625 114.87015625 52.60140625 116.91015625 52.94140625 C123.84015625 55.91140625 130.77015625 58.88140625 137.91015625 61.94140625 C137.91015625 90.32140625 137.91015625 118.70140625 137.91015625 147.94140625 C149.13015625 147.94140625 160.35015625 147.94140625 171.91015625 147.94140625 C178.6513391 158.05318053 178.6513391 158.05318053 181.06640625 162.4453125 C181.87754883 163.90976807 181.87754883 163.90976807 182.70507812 165.40380859 C183.5490918 166.93835693 183.5490918 166.93835693 184.41015625 168.50390625 C189.8513902 178.31599147 195.41809799 188.0435113 201.11523438 197.70922852 C202.7249367 200.44682566 204.31894024 203.19303131 205.91015625 205.94140625 C206.49539063 206.93043945 207.080625 207.91947266 207.68359375 208.93847656 C208.24304688 209.91139648 208.8025 210.88431641 209.37890625 211.88671875 C210.14364258 213.19793701 210.14364258 213.19793701 210.92382812 214.53564453 C211.91015625 216.94140625 211.91015625 216.94140625 210.91015625 220.94140625 C74.29015625 220.94140625 -62.32984375 220.94140625 -203.08984375 220.94140625 C-204.27814202 216.18821317 -203.73248075 215.59210874 -201.3984375 211.48828125 C-200.4861438 209.8647876 -200.4861438 209.8647876 -199.55541992 208.20849609 C-198.87976193 207.03592103 -198.20372711 205.86356304 -197.52734375 204.69140625 C-196.8393401 203.47919472 -196.15225806 202.2664597 -195.46606445 201.05322266 C-193.35892399 197.33867628 -191.22683066 193.63884037 -189.08984375 189.94140625 C-188.13561523 188.2867334 -188.13561523 188.2867334 -187.16210938 186.59863281 C-183.69836694 180.60426028 -180.20530469 174.62769006 -176.69140625 168.66259766 C-175.13162101 166.01238938 -173.57842156 163.35843692 -172.02734375 160.703125 C-171.11080061 159.13664647 -170.1941417 157.57023566 -169.27734375 156.00390625 C-168.86250732 155.29347168 -168.4476709 154.58303711 -168.02026367 153.85107422 C-165.20459447 149.05615697 -165.20459447 149.05615697 -164.08984375 147.94140625 C-152.86984375 147.94140625 -141.64984375 147.94140625 -130.08984375 147.94140625 C-130.08984375 119.56140625 -130.08984375 91.18140625 -130.08984375 61.94140625 C-106.33984375 51.94140625 -106.33984375 51.94140625 -103.08984375 51.94140625 C-103.08984375 35.44140625 -103.08984375 18.94140625 -103.08984375 1.94140625 C-85.76434319 -4.98879397 -85.76434319 -4.98879397 -78.08984375 -6.87109375 C-77.30996094 -7.07412109 -76.53007812 -7.27714844 -75.7265625 -7.48632812 C-50.99151566 -13.78441148 -22.77264293 -11.71083868 0 0 Z " fill="#F44857" transform="translate(252.08984375,10.05859375)"/>
<path d="M0 0 C0.67962071 -0.00436032 1.35924143 -0.00872064 2.05945671 -0.0132131 C4.34149118 -0.02417952 6.62292273 -0.01374128 8.904953 -0.00342751 C10.55562811 -0.00688353 12.20630092 -0.01164772 13.85696888 -0.01760924 C18.39671121 -0.03015653 22.93626484 -0.02393193 27.47600794 -0.01465058 C32.37041675 -0.00787568 37.26479263 -0.01833357 42.15919495 -0.02659035 C51.74883353 -0.03994654 61.33840176 -0.03704154 70.92804313 -0.02835242 C78.72012647 -0.02158371 86.51219007 -0.02065564 94.30427551 -0.02392387 C95.41229894 -0.02438357 96.52032238 -0.02484327 97.66192228 -0.0253169 C99.91268596 -0.02627605 102.16344963 -0.02724869 104.4142133 -0.02823468 C125.53122426 -0.0367941 146.64819618 -0.02694578 167.76520073 -0.01083358 C185.89375425 0.0025701 204.02225014 0.00024216 222.15080261 -0.01358986 C243.19104684 -0.02963592 264.23125682 -0.03597007 285.27150631 -0.02675307 C287.51409848 -0.0257974 289.75669066 -0.02485429 291.99928284 -0.02392387 C293.65448125 -0.02322963 293.65448125 -0.02322963 295.34311801 -0.02252137 C303.12794904 -0.01992856 310.91275839 -0.02430875 318.69758606 -0.03136253 C328.18166998 -0.03976691 337.6656794 -0.03751978 347.14975476 -0.0215203 C351.99083766 -0.01362327 356.83179622 -0.01057033 361.67287827 -0.02046776 C366.10170649 -0.02938556 370.53029473 -0.02453009 374.95910108 -0.0085351 C376.56400736 -0.00517491 378.16893379 -0.00690905 379.7738272 -0.01416247 C381.95069493 -0.02324873 384.12673427 -0.01396611 386.30355835 0 C387.51405444 0.00048706 388.72455053 0.00097411 389.97172832 0.00147593 C393.48387465 0.41679439 395.34047753 1.2681947 398.15177917 3.37752342 C401.60554425 8.38472869 401.60881932 13.01621117 401.52677917 18.87752342 C401.53838074 19.70639061 401.5499823 20.5352578 401.56193542 21.38924217 C401.5378281 26.44374513 400.98060417 30.01699318 398.15177917 34.37752342 C397.49177917 34.70752342 396.83177917 35.03752342 396.15177917 35.37752342 C396.97379822 35.38686913 397.79581726 35.39621483 398.64274597 35.40584373 C402.3755288 35.45960213 406.10706598 35.54324173 409.83927917 35.62752342 C411.13285339 35.64170311 412.42642761 35.6558828 413.75920105 35.67049217 C415.00636902 35.70271873 416.25353699 35.7349453 417.53849792 35.76814842 C418.68536072 35.78909569 419.83222351 35.81004295 421.01383972 35.83162498 C424.76877614 36.48486064 426.43826251 37.75264381 429.15177917 40.37752342 C431.83974344 44.86017078 431.48371082 49.80197655 431.46427917 54.87752342 C431.48039246 55.71928123 431.49650574 56.56103905 431.5131073 57.42830467 C431.51688483 62.22576249 431.32982717 65.53230057 428.15177917 69.37752342 C425.18260433 72.3091646 422.79307311 72.73079127 418.67016631 72.78018439 C417.94118186 72.77373258 417.21219741 72.76728078 416.46112251 72.76063347 C415.67827607 72.76559298 414.89542963 72.7705525 414.08886057 72.7756623 C411.44968746 72.78867833 408.81101532 72.78021485 406.17182922 72.7719326 C404.26699172 72.77681867 402.36215718 72.78300715 400.45732772 72.79039049 C395.21037745 72.80684927 389.96357684 72.80446003 384.71660972 72.79901552 C379.06277845 72.79635262 373.40898774 72.81086319 367.75517273 72.82311058 C356.67380591 72.84419818 345.59249137 72.84870352 334.51110686 72.8469227 C325.50666949 72.84561673 316.50224847 72.84941073 307.49781418 72.85684776 C304.90728343 72.85894689 302.31675267 72.86104449 299.72622192 72.86314058 C297.79234498 72.86470587 297.79234498 72.86470587 295.81939982 72.86630279 C278.35365323 72.87984241 260.88791773 72.88742646 243.42216682 72.88297844 C242.73890076 72.88280648 242.05563469 72.88263453 241.3516636 72.88245736 C237.8884689 72.88156845 234.42527422 72.88062364 230.96207954 72.87965935 C230.27425796 72.87946832 229.58643638 72.87927729 228.87777171 72.87908047 C227.48682864 72.87869338 226.09588556 72.87830305 224.70494249 72.87790949 C203.06071286 72.87193914 181.41659015 72.88737759 159.77238464 72.91951561 C135.46385598 72.95557896 111.1554156 72.97488332 86.84685409 72.9699769 C73.9726653 72.96772927 61.09858249 72.97301828 48.22441483 72.99786949 C37.26432111 73.01884521 26.30439147 73.02251169 15.34429111 73.0035699 C9.74962392 72.99438905 4.15526299 72.99334091 -1.43938065 73.01392555 C-6.55799832 73.03255083 -11.67605712 73.0282272 -16.79465295 73.00537974 C-18.64927198 73.00117255 -20.50393315 73.00546458 -22.35850774 73.01897568 C-24.87497993 73.03606454 -27.38948502 73.02249699 -29.90588188 73.0011425 C-30.630184 73.01342003 -31.35448613 73.02569755 -32.1007368 73.03834713 C-37.73184056 72.93815083 -40.0697633 71.2773402 -43.84822083 67.37752342 C-45.22295366 63.25332491 -45.0721379 59.38500833 -45.09822083 55.06502342 C-45.11884583 54.22262108 -45.13947083 53.38021873 -45.16072083 52.51228905 C-45.19278806 47.38553972 -44.79546733 43.76520346 -41.84822083 39.37752342 C-38.49810309 36.16875681 -35.89266219 35.96944254 -31.33259583 35.86580467 C-30.0822052 35.83035545 -28.83181458 35.79490623 -27.54353333 35.7583828 C-26.2415802 35.7358242 -24.93962708 35.71326561 -23.59822083 35.69002342 C-21.62208801 35.63878319 -21.62208801 35.63878319 -19.60603333 35.5865078 C-16.35351405 35.50401637 -13.10126487 35.43486672 -9.84822083 35.37752342 C-10.48759583 34.77939842 -11.12697083 34.18127342 -11.78572083 33.56502342 C-15.75857733 29.35138774 -15.06528023 24.52081008 -15.09822083 19.06502342 C-15.11884583 18.22262108 -15.13947083 17.38021873 -15.16072083 16.51228905 C-15.19265507 11.40680203 -14.8602436 7.70566919 -11.84822083 3.37752342 C-7.86069227 0.38767372 -4.92972424 0.00198353 0 0 Z " fill="#74C97C" transform="translate(62.84822082519531,439.6224765777588)"/>
<path d="M0 0 C3.76513235 1.21798241 5.33266797 0.51212522 8.91015625 -1.05859375 C9.833125 -1.43757812 10.75609375 -1.8165625 11.70703125 -2.20703125 C12.6815625 -2.61179687 13.65609375 -3.0165625 14.66015625 -3.43359375 C46.03065932 -15.27218226 78.44308798 -11.48680897 108.91015625 0.94140625 C109.90015625 1.43640625 109.90015625 1.43640625 110.91015625 1.94140625 C110.980605 34.54278336 110.81346015 67.13577321 110.44659424 99.73504639 C110.38430874 105.32269215 110.32513023 110.91037094 110.265625 116.49804688 C110.1500322 127.31253275 110.0312385 138.12698053 109.91015625 148.94140625 C105.65087924 148.28661418 102.1256694 147.3231665 98.16015625 145.62890625 C92.71011245 143.4701633 87.32147319 141.94740697 81.59765625 140.69140625 C80.85741211 140.52858154 80.11716797 140.36575684 79.35449219 140.19799805 C56.53216518 135.39101351 29.05607142 136.15319025 8.53515625 148.44140625 C4.6422405 150.05226794 4.37416649 150.09430896 0.734375 148.7265625 C-0.05710937 148.43861816 -0.84859375 148.15067383 -1.6640625 147.85400391 C-2.46457031 147.55284668 -3.26507813 147.25168945 -4.08984375 146.94140625 C-6.2880539 146.16633435 -8.49044225 145.40415248 -10.69335938 144.64257812 C-12.15677147 144.13665936 -13.61777549 143.62371631 -15.07617188 143.10351562 C-42.21454573 133.81870698 -70.92211212 138.8544535 -97.09130859 148.34643555 C-99.08984375 148.94140625 -99.08984375 148.94140625 -102.08984375 148.94140625 C-102.22343108 137.01009218 -102.35393343 125.07874814 -102.48099518 113.14736271 C-102.54014774 107.60091108 -102.60017937 102.05447256 -102.66259766 96.50805664 C-103.01648351 64.98462647 -103.15796737 33.4667905 -103.08984375 1.94140625 C-100.70290698 0.97291457 -98.31474523 0.00765739 -95.92578125 -0.95581055 C-95.25538818 -1.22820305 -94.58499512 -1.50059555 -93.89428711 -1.78124237 C-88.70968409 -3.86789069 -83.5203913 -5.53916083 -78.08984375 -6.87109375 C-77.30996094 -7.07412109 -76.53007812 -7.27714844 -75.7265625 -7.48632812 C-50.99151566 -13.78441148 -22.77264293 -11.71083868 0 0 Z " fill="#E4982F" transform="translate(252.08984375,10.05859375)"/>
<path d="M0 0 C0.07044875 32.60137711 -0.0966961 65.19436696 -0.46356201 97.79364014 C-0.52584751 103.3812859 -0.58502602 108.96896469 -0.64453125 114.55664062 C-0.76012405 125.3711265 -0.87891775 136.18557428 -1 147 C-5.25927701 146.34520793 -8.78448685 145.38176025 -12.75 143.6875 C-18.2000438 141.52875705 -23.58868306 140.00600072 -29.3125 138.75 C-30.05274414 138.58717529 -30.79298828 138.42435059 -31.55566406 138.2565918 C-54.57688283 133.4077154 -80.0173374 134.81367597 -101.2421875 145.65625 C-104 147 -104 147 -107 147 C-107 98.49 -107 49.98 -107 0 C-93.16489362 -6.91755319 -93.16489362 -6.91755319 -85.625 -8.8125 C-84.49384766 -9.11704102 -84.49384766 -9.11704102 -83.33984375 -9.42773438 C-56.3500533 -16.56377845 -24.87514092 -12.43757046 0 0 Z " fill="#FDA834" transform="translate(363,12)"/>
<path d="M0 0 C0.67962071 -0.00436032 1.35924143 -0.00872064 2.05945671 -0.0132131 C4.34149118 -0.02417952 6.62292273 -0.01374128 8.904953 -0.00342751 C10.55562811 -0.00688353 12.20630092 -0.01164772 13.85696888 -0.01760924 C18.39671121 -0.03015653 22.93626484 -0.02393193 27.47600794 -0.01465058 C32.37041675 -0.00787568 37.26479263 -0.01833357 42.15919495 -0.02659035 C51.74883353 -0.03994654 61.33840176 -0.03704154 70.92804313 -0.02835242 C78.72012647 -0.02158371 86.51219007 -0.02065564 94.30427551 -0.02392387 C95.41229894 -0.02438357 96.52032238 -0.02484327 97.66192228 -0.0253169 C99.91268596 -0.02627605 102.16344963 -0.02724869 104.4142133 -0.02823468 C125.53122426 -0.0367941 146.64819618 -0.02694578 167.76520073 -0.01083358 C185.89375425 0.0025701 204.02225014 0.00024216 222.15080261 -0.01358986 C243.19104684 -0.02963592 264.23125682 -0.03597007 285.27150631 -0.02675307 C287.51409848 -0.0257974 289.75669066 -0.02485429 291.99928284 -0.02392387 C293.65448125 -0.02322963 293.65448125 -0.02322963 295.34311801 -0.02252137 C303.12794904 -0.01992856 310.91275839 -0.02430875 318.69758606 -0.03136253 C328.18166998 -0.03976691 337.6656794 -0.03751978 347.14975476 -0.0215203 C351.99083766 -0.01362327 356.83179622 -0.01057033 361.67287827 -0.02046776 C366.10170649 -0.02938556 370.53029473 -0.02453009 374.95910108 -0.0085351 C376.56400736 -0.00517491 378.16893379 -0.00690905 379.7738272 -0.01416247 C381.95069493 -0.02324873 384.12673427 -0.01396611 386.30355835 0 C387.51405444 0.00048706 388.72455053 0.00097411 389.97172832 0.00147593 C393.48387465 0.41679439 395.34047753 1.2681947 398.15177917 3.37752342 C401.60554425 8.38472869 401.60881932 13.01621117 401.52677917 18.87752342 C401.53838074 19.70639061 401.5499823 20.5352578 401.56193542 21.38924217 C401.53783891 26.44147708 401.00566374 30.03640323 398.15177917 34.37752342 C394.51249419 36.80371341 392.82299295 36.63067148 388.48718452 36.63758564 C387.46108475 36.64329415 387.46108475 36.64329415 386.41425568 36.64911798 C384.10518125 36.65948465 381.79635034 36.65551834 379.48725891 36.65167809 C377.82181141 36.65612774 376.15636602 36.66144088 374.49092376 36.66754681 C369.90110284 36.68176988 365.3113495 36.68338929 360.7215097 36.6829499 C355.77662098 36.68459431 350.83176042 36.69765369 345.8868866 36.70914268 C335.06889213 36.73202027 324.25091724 36.73991612 313.43290186 36.74496913 C306.68203469 36.74822266 299.93117324 36.75474301 293.1803093 36.76197052 C274.49996435 36.78153931 255.81962473 36.79794213 237.13926888 36.80084705 C235.9432171 36.80103462 234.74716533 36.80122219 233.51486956 36.80141545 C231.09004076 36.8017817 228.66521196 36.8021454 226.24038316 36.80250656 C225.03664678 36.80268937 223.83291039 36.80287218 222.59269714 36.80306053 C221.38749683 36.80324108 220.18229652 36.80342163 218.94057499 36.80360765 C199.40225116 36.80715097 179.86403743 36.83418202 160.3257518 36.87155842 C140.28033678 36.90959907 120.23497646 36.92900421 100.18952453 36.92930657 C88.9289235 36.92989206 77.66845382 36.93844332 66.40788651 36.96730423 C56.82125576 36.99176133 47.23480428 36.99913941 37.64815082 36.9840567 C32.75433541 36.97686475 27.86087439 36.97784324 22.96709824 37.0004673 C18.48995439 37.02096753 14.01343939 37.01854147 9.53630303 36.99759246 C7.91383338 36.99408032 6.29131918 36.99908002 4.66890801 37.01329689 C2.46785453 37.03134625 0.26903995 37.01875286 -1.93194389 36.99834919 C-3.76754083 36.99957087 -3.76754083 36.99957087 -5.64022052 37.00081724 C-9.77137773 36.19815998 -11.24491874 34.61442898 -13.84822083 31.37752342 C-15.22295366 27.25332491 -15.0721379 23.38500833 -15.09822083 19.06502342 C-15.11884583 18.22262108 -15.13947083 17.38021873 -15.16072083 16.51228905 C-15.19265507 11.40680203 -14.8602436 7.70566919 -11.84822083 3.37752342 C-7.86069227 0.38767372 -4.92972424 0.00198353 0 0 Z " fill="#FDDB42" transform="translate(62.84822082519531,439.6224765777588)"/>
<path d="M0 0 C0 32.34 0 64.68 0 98 C7.92 95.36 15.84 92.72 24 90 C50.5153036 83.62037808 75.98429089 86.27615641 101.05566406 96.29150391 C105.79623445 98.01891918 107.73867707 97.95992558 112.48144531 95.75073242 C113.16819336 95.42049072 113.85494141 95.09024902 114.5625 94.75 C120.94546913 91.82579326 127.10835307 89.46939019 134 88 C135.28777344 87.69449219 135.28777344 87.69449219 136.6015625 87.3828125 C162.86403609 81.98236019 187.51156178 89.09511337 212 98 C212 65.66 212 33.32 212 0 C221.44354238 3.37269371 230.78305326 7.04987997 240 11 C240 54.23 240 97.46 240 142 C235.10503233 141.18417205 232.43880818 140.47067061 228.16796875 138.375 C227.05212402 137.83738037 225.9362793 137.29976074 224.78662109 136.74584961 C224.20031921 136.46079559 223.61401733 136.17574158 223.00994873 135.88204956 C195.10320262 122.3754237 163.26631704 108.16263292 132 118 C124.91997999 120.66714249 118.05160312 123.82834121 111.4375 127.5 C107.22738648 129.33714045 105.45059424 128.9874756 101 128 C98.42449011 126.89655814 96.01046523 125.54656074 93.5625 124.1875 C72.97636216 113.50207566 49.9906269 113.28802156 28 120 C27.32275879 120.20415527 26.64551758 120.40831055 25.94775391 120.61865234 C12.02590373 124.97895595 -1.14959706 131.50972996 -14.34350586 137.66503906 C-15.09671112 138.01524612 -15.84991638 138.36545319 -16.62594604 138.72627258 C-18.05973716 139.39380835 -19.49195738 140.0647312 -20.9223938 140.73942566 C-25.77743496 143 -25.77743496 143 -28 143 C-28 99.44 -28 55.88 -28 11 C-1.875 0 -1.875 0 0 0 Z " fill="#025677" transform="translate(150,61)"/>
<path d="M0 0 C10.76111741 9.22614771 17.93295318 20.83240437 20.13671875 34.89453125 C20.39657933 39.34617682 20.37053372 43.78423792 20.33203125 48.2421875 C20.33001709 49.35364136 20.32800293 50.46509521 20.32592773 51.61022949 C20.31553576 55.72587261 20.28761368 59.84145648 20.26171875 63.95703125 C20.22046875 73.17640625 20.17921875 82.39578125 20.13671875 91.89453125 C-15.50328125 91.89453125 -51.14328125 91.89453125 -87.86328125 91.89453125 C-87.94578125 82.40703125 -88.02828125 72.91953125 -88.11328125 63.14453125 C-88.14969727 60.17356445 -88.18611328 57.20259766 -88.22363281 54.14160156 C-88.23532969 51.75196045 -88.24551914 49.36231128 -88.25390625 46.97265625 C-88.27437012 45.76013184 -88.29483398 44.54760742 -88.31591797 43.29833984 C-88.32215974 27.84995648 -82.73981603 15.40481121 -72.2421875 4.25 C-51.75585557 -16.03449615 -23.04238699 -16.94385619 0 0 Z " fill="#64C8EF" transform="translate(289.86328125,348.10546875)"/>
<path d="M0 0 C9.44354238 3.37269371 18.78305326 7.04987997 28 11 C28 54.23 28 97.46 28 142 C23.10503233 141.18417205 20.43880818 140.47067061 16.16796875 138.375 C15.05212402 137.83738037 13.9362793 137.29976074 12.78662109 136.74584961 C12.20031921 136.46079559 11.61401733 136.17574158 11.00994873 135.88204956 C-16.89679738 122.3754237 -48.73368296 108.16263292 -80 118 C-87.15609468 120.69580088 -94.05900081 123.98010911 -100.875 127.4375 C-104 129 -104 129 -106 129 C-106 119.1 -106 109.2 -106 99 C-96.76803434 94.10140597 -88.24026277 90.38340619 -78 88 C-77.07316406 87.77441406 -76.14632813 87.54882812 -75.19140625 87.31640625 C-49.05850417 81.94155405 -24.35138558 89.1449507 0 98 C0 65.66 0 33.32 0 0 Z " fill="#025F84" transform="translate(362,61)"/>
<path d="M0 0 C6.6 0 13.2 0 20 0 C20 68.97 20 137.94 20 209 C13.4 209 6.8 209 0 209 C0 140.03 0 71.06 0 0 Z " fill="#CED8E6" transform="translate(86,231)"/>
<path d="M0 0 C0.79062332 -0.00043808 1.58124664 -0.00087616 2.39582825 -0.00132751 C5.00404725 0.00075928 7.61162012 0.02408478 10.21972656 0.04760742 C12.03004607 0.05320377 13.84037012 0.05747369 15.6506958 0.06047058 C20.4117694 0.07191627 25.17256775 0.10138109 29.93353271 0.13458252 C35.6478761 0.17068967 41.3623116 0.18444587 47.07673645 0.20194244 C55.75479949 0.2310186 64.43225879 0.28850762 73.11035156 0.34057617 C73.11035156 12.22057617 73.11035156 24.10057617 73.11035156 36.34057617 C53.13616451 36.54112022 53.13616451 36.54112022 44.61035156 36.5847168 C38.7966424 36.61458612 32.98332764 36.64988983 27.16992188 36.71777344 C22.4820232 36.77217074 17.79454755 36.80201303 13.10635757 36.81496239 C11.31937121 36.82418844 9.53240753 36.84220517 7.74560165 36.86922646 C5.23891244 36.90562062 2.73396244 36.91051738 0.22705078 36.90820312 C-0.87670647 36.93516769 -0.87670647 36.93516769 -2.00276184 36.962677 C-5.86069559 36.92423538 -8.35000715 36.35531209 -11.33444214 33.99259949 C-15.70601431 29.45538802 -15.10375182 24.97345347 -15.13964844 19.02807617 C-15.16027344 18.18567383 -15.18089844 17.34327148 -15.20214844 16.4753418 C-15.23911118 10.5659227 -14.61527808 6.10804549 -10.27435303 1.70048523 C-6.9108986 -0.21756876 -3.76515667 -0.05465513 0 0 Z " fill="#68B570" transform="translate(32.8896484375,475.659423828125)"/>
<path d="M0 0 C1.43352212 0.00015908 2.86704998 0.00585132 4.30053711 0.01586914 C5.43041298 0.01799156 5.43041298 0.01799156 6.58311462 0.02015686 C8.99807646 0.02577163 11.41294687 0.03832656 13.82788086 0.05102539 C15.46134307 0.05603849 17.09480672 0.06060173 18.72827148 0.06469727 C22.74067671 0.07574585 26.75301326 0.09302033 30.76538086 0.11352539 C31.95919412 10.40405605 28.97885709 16.77104078 23.64038086 25.36352539 C22.91149829 26.57984727 22.18521728 27.79773158 21.46142578 29.01708984 C19.97925884 31.50653923 18.48393392 33.98725542 16.97680664 36.46166992 C14.21482969 41.00549944 11.54606948 45.60132045 8.87719727 50.20043945 C6.71927065 53.91898329 4.54271122 57.62645987 2.36425781 61.33300781 C0.12058783 65.23484892 -2.0487717 69.179 -4.23461914 73.11352539 C-16.77461914 73.11352539 -29.31461914 73.11352539 -42.23461914 73.11352539 C-43.42291741 68.36033231 -42.87725614 67.76422788 -40.54321289 63.66040039 C-39.63091919 62.03690674 -39.63091919 62.03690674 -38.70019531 60.38061523 C-38.02453732 59.20804017 -37.3485025 58.03568218 -36.67211914 56.86352539 C-35.98411549 55.65131387 -35.29703345 54.43857884 -34.61083984 53.2253418 C-32.50369938 49.51079542 -30.37160605 45.81095951 -28.23461914 42.11352539 C-27.5984668 41.01041016 -26.96231445 39.90729492 -26.30688477 38.77075195 C-22.84314233 32.77637942 -19.35008008 26.7998092 -15.83618164 20.8347168 C-14.2763964 18.18450852 -12.72319695 15.53055606 -11.17211914 12.87524414 C-10.255576 11.30876561 -9.3389171 9.7423548 -8.42211914 8.17602539 C-8.00728271 7.46559082 -7.59244629 6.75515625 -7.16503906 6.02319336 C-3.70444946 0.13001502 -3.70444946 0.13001502 0 0 Z " fill="#DD404D" transform="translate(91.234619140625,157.886474609375)"/>
<path d="M0 0 C1.10272751 0.00424484 2.20545502 0.00848969 3.34159851 0.01286316 C6.85688898 0.0296297 10.37160211 0.06727924 13.88671875 0.10546875 C16.27277817 0.12051816 18.65884659 0.13420611 21.04492188 0.14648438 C26.88842116 0.1769722 32.73067518 0.2356999 38.57421875 0.29296875 C38.57421875 12.17296875 38.57421875 24.05296875 38.57421875 36.29296875 C31.25919113 36.40778432 23.94729103 36.50732217 16.63208008 36.56762695 C14.14401657 36.59276546 11.65602687 36.62688122 9.16821289 36.67016602 C5.59112334 36.73084305 2.0150104 36.75918609 -1.5625 36.78125 C-3.22994514 36.81995964 -3.22994514 36.81995964 -4.93107605 36.85945129 C-12.65338799 36.86225361 -12.65338799 36.86225361 -16.60473633 33.94995117 C-19.95022052 29.06874665 -19.64139024 24.67647977 -19.67578125 18.98046875 C-19.69640625 18.13806641 -19.71703125 17.29566406 -19.73828125 16.42773438 C-19.77021549 11.32224736 -19.43780402 7.62111451 -16.42578125 3.29296875 C-11.61645819 -0.86995655 -6.00229021 -0.08703073 0 0 Z " fill="#E5C53B" transform="translate(67.42578125,439.70703125)"/>
<path d="M0 0 C0.81700882 0.02644089 1.63401764 0.05288177 2.4757843 0.0801239 C5.08486032 0.1678846 7.69254392 0.27703213 10.30078125 0.38671875 C12.06961159 0.44997793 13.83849234 0.51184398 15.60742188 0.57226562 C19.94345879 0.72342469 24.27836852 0.89376857 28.61328125 1.07421875 C30.18995272 4.22756169 29.77625166 7.61184116 29.78125 11.07421875 C29.7862426 12.26144531 29.7862426 12.26144531 29.79133606 13.47265625 C29.79640165 15.1471295 29.7987445 16.82161285 29.79858398 18.49609375 C29.80077252 21.0639701 29.81893734 23.63141834 29.83789062 26.19921875 C29.84082416 27.82421728 29.84280922 29.44921785 29.84375 31.07421875 C29.85093552 31.84507812 29.85812103 32.6159375 29.86552429 33.41015625 C29.84210845 38.84539155 29.84210845 38.84539155 27.61328125 41.07421875 C24.84010766 41.28627831 22.16930088 41.37819016 19.39453125 41.375 C18.58085083 41.37928513 17.76717041 41.38357025 16.92883301 41.38798523 C15.20728487 41.39373211 13.48571244 41.39422615 11.76416016 41.38989258 C9.12360445 41.38673111 6.48416718 41.41019139 3.84375 41.43554688 C2.1731785 41.43781961 0.50260398 41.43852348 -1.16796875 41.4375 C-1.9607019 41.44670975 -2.75343506 41.45591949 -3.57019043 41.46540833 C-5.79492188 41.4465332 -5.79492188 41.4465332 -9.38671875 41.07421875 C-11.85334914 37.37427317 -11.69277011 34.51340578 -11.6875 30.23046875 C-11.69178513 29.46496704 -11.69607025 28.69946533 -11.70048523 27.9107666 C-11.70622392 26.29354847 -11.70673217 24.67630452 -11.70239258 23.05908203 C-11.69923024 20.58321222 -11.72270406 18.10853478 -11.74804688 15.6328125 C-11.75031967 14.06119943 -11.75102346 12.48958313 -11.75 10.91796875 C-11.75920975 10.17728149 -11.76841949 9.43659424 -11.77790833 8.67346191 C-11.75279848 5.88860333 -11.65183969 3.60141401 -10.38818359 1.08862305 C-7.06568036 -0.59532437 -3.62411624 -0.17054746 0 0 Z " fill="#65C8F0" transform="translate(208.38671875,260.92578125)"/>
<path d="M0 0 C1.15628906 0.00607269 1.15628906 0.00607269 2.3359375 0.01226807 C3.12742188 0.01035461 3.91890625 0.00844116 4.734375 0.00646973 C6.4088574 0.00510789 8.08335035 0.00880425 9.7578125 0.01715088 C12.32576131 0.02785067 14.89301053 0.01725582 17.4609375 0.00445557 C19.08593905 0.00577716 20.71094016 0.00833956 22.3359375 0.01226807 C23.10679687 0.0082196 23.87765625 0.00417114 24.671875 0 C30.10601618 0.04797174 30.10601618 0.04797174 32.3359375 2.27789307 C32.53575775 5.05124734 32.6157295 7.7225895 32.6015625 10.49664307 C32.60443268 11.7171637 32.60443268 11.7171637 32.60736084 12.96234131 C32.60872277 14.68390207 32.60502578 16.40547309 32.59667969 18.12701416 C32.58598008 20.76738476 32.5965745 23.40707496 32.609375 26.04742432 C32.60805341 27.71799874 32.60549102 29.38857274 32.6015625 31.05914307 C32.60561096 31.85187622 32.60965942 32.64460938 32.61383057 33.46136475 C32.56585777 39.04797279 32.56585777 39.04797279 30.3359375 41.27789307 C27.63458427 41.4776304 25.03796539 41.5577088 22.3359375 41.54351807 C21.54445312 41.54543152 20.75296875 41.54734497 19.9375 41.54931641 C18.2630176 41.55067824 16.58852465 41.54698188 14.9140625 41.53863525 C12.34611369 41.52793547 9.77886447 41.53853032 7.2109375 41.55133057 C5.58593595 41.55000897 3.96093484 41.54744658 2.3359375 41.54351807 C1.17964844 41.54959076 1.17964844 41.54959076 0 41.55578613 C-5.43414118 41.50781439 -5.43414118 41.50781439 -7.6640625 39.27789307 C-7.86388275 36.50453879 -7.9438545 33.83319664 -7.9296875 31.05914307 C-7.93160095 30.24546265 -7.9335144 29.43178223 -7.93548584 28.59344482 C-7.93684777 26.87188406 -7.93315078 25.15031304 -7.92480469 23.42877197 C-7.91410508 20.78840137 -7.9246995 18.14871117 -7.9375 15.50836182 C-7.93617841 13.83778739 -7.93361602 12.16721339 -7.9296875 10.49664307 C-7.93373596 9.70390991 -7.93778442 8.91117676 -7.94195557 8.09442139 C-7.88381531 1.32377461 -6.80306042 0.06005635 0 0 Z " fill="#66C8F0" transform="translate(128.6640625,335.72210693359375)"/>
<path d="M0 0 C1.54903479 0.03559455 3.09782834 0.08286774 4.64624023 0.1394043 C5.46229233 0.16205856 6.27834442 0.18471283 7.11912537 0.20805359 C8.84502636 0.25804128 10.57078912 0.31301095 12.29638672 0.37255859 C14.94729241 0.46336471 17.59828176 0.53802039 20.24975586 0.61010742 C21.92361293 0.66058891 23.59744258 0.71198987 25.27124023 0.7644043 C26.06913467 0.7873909 26.86702911 0.8103775 27.68910217 0.83406067 C33.27616287 1.03495193 33.27616287 1.03495193 34.39233398 2.15112305 C34.50574373 4.86666697 34.55651418 7.55582348 34.56030273 10.2722168 C34.56529533 11.49485985 34.56529533 11.49485985 34.57038879 12.74220276 C34.5754614 14.46973098 34.57779702 16.19726903 34.57763672 17.92480469 C34.5798219 20.5739755 34.5979702 23.22272921 34.61694336 25.87182617 C34.61987742 27.54695495 34.62186213 29.22208571 34.62280273 30.8972168 C34.62998825 31.69308701 34.63717377 32.48895721 34.64457703 33.3089447 C34.62115626 38.92230077 34.62115626 38.92230077 32.39233398 41.15112305 C29.69079099 41.33862551 27.09364106 41.40677186 24.39233398 41.3815918 C23.60084961 41.38113358 22.80936523 41.38067535 21.99389648 41.38020325 C20.31940208 41.37718036 18.6449105 41.36929295 16.97045898 41.35693359 C14.40264967 41.33869631 11.83520125 41.33642377 9.26733398 41.33666992 C7.64233086 41.33175398 6.01733018 41.32592533 4.39233398 41.3190918 C3.23604492 41.31742256 3.23604492 41.31742256 2.05639648 41.3157196 C-3.37552624 41.26719294 -3.37552624 41.26719294 -5.60766602 40.15112305 C-5.65702111 34.775974 -5.69336403 29.4009562 -5.7175293 24.02563477 C-5.72760086 22.19618432 -5.74125877 20.36675002 -5.75854492 18.53735352 C-5.78274278 15.91117371 -5.79413734 13.2852063 -5.80297852 10.65893555 C-5.81330109 9.8380545 -5.82362366 9.01717346 -5.83425903 8.17141724 C-5.83465786 6.16323162 -5.73016141 4.15556923 -5.60766602 2.15112305 C-3.60766602 0.15112305 -3.60766602 0.15112305 0 0 Z " fill="#64C8EF" transform="translate(356.607666015625,335.848876953125)"/>
<path d="M0 0 C1.54903479 0.03559455 3.09782834 0.08286774 4.64624023 0.1394043 C5.46229233 0.16205856 6.27834442 0.18471283 7.11912537 0.20805359 C8.84502636 0.25804128 10.57078912 0.31301095 12.29638672 0.37255859 C14.94729241 0.46336471 17.59828176 0.53802039 20.24975586 0.61010742 C21.92361293 0.66058891 23.59744258 0.71198987 25.27124023 0.7644043 C26.06913467 0.7873909 26.86702911 0.8103775 27.68910217 0.83406067 C33.27616287 1.03495193 33.27616287 1.03495193 34.39233398 2.15112305 C34.50574373 4.86666697 34.55651418 7.55582348 34.56030273 10.2722168 C34.56529533 11.49485985 34.56529533 11.49485985 34.57038879 12.74220276 C34.5754614 14.46973098 34.57779702 16.19726903 34.57763672 17.92480469 C34.5798219 20.5739755 34.5979702 23.22272921 34.61694336 25.87182617 C34.61987742 27.54695495 34.62186213 29.22208571 34.62280273 30.8972168 C34.62998825 31.69308701 34.63717377 32.48895721 34.64457703 33.3089447 C34.62115626 38.92230077 34.62115626 38.92230077 32.39233398 41.15112305 C29.69079099 41.33862551 27.09364106 41.40677186 24.39233398 41.3815918 C23.60084961 41.38113358 22.80936523 41.38067535 21.99389648 41.38020325 C20.31940208 41.37718036 18.6449105 41.36929295 16.97045898 41.35693359 C14.40264967 41.33869631 11.83520125 41.33642377 9.26733398 41.33666992 C7.64233086 41.33175398 6.01733018 41.32592533 4.39233398 41.3190918 C3.23604492 41.31742256 3.23604492 41.31742256 2.05639648 41.3157196 C-3.37552624 41.26719294 -3.37552624 41.26719294 -5.60766602 40.15112305 C-5.65702111 34.775974 -5.69336403 29.4009562 -5.7175293 24.02563477 C-5.72760086 22.19618432 -5.74125877 20.36675002 -5.75854492 18.53735352 C-5.78274278 15.91117371 -5.79413734 13.2852063 -5.80297852 10.65893555 C-5.81330109 9.8380545 -5.82362366 9.01717346 -5.83425903 8.17141724 C-5.83465786 6.16323162 -5.73016141 4.15556923 -5.60766602 2.15112305 C-3.60766602 0.15112305 -3.60766602 0.15112305 0 0 Z " fill="#64C8EF" transform="translate(356.607666015625,260.848876953125)"/>
<path d="M0 0 C0.7924411 0.02265427 1.5848822 0.04530853 2.40133667 0.06864929 C4.07418964 0.11856598 5.74689869 0.17352423 7.41943359 0.2331543 C9.98903168 0.32410705 12.55871446 0.3986945 15.12890625 0.47070312 C16.7526343 0.52117503 18.37633382 0.5725753 20 0.625 C21.15932541 0.6594799 21.15932541 0.6594799 22.34207153 0.69465637 C27.7509697 0.89550095 27.7509697 0.89550095 28.8671875 2.01171875 C28.95580742 4.82335255 28.98241105 7.6103013 28.96484375 10.421875 C28.9634288 11.26390976 28.96201385 12.10594452 28.96055603 12.97349548 C28.95494013 15.6737721 28.94238498 18.37396703 28.9296875 21.07421875 C28.92467455 22.90038943 28.92011129 24.72656141 28.91601562 26.55273438 C28.90496554 31.03909417 28.88769029 35.52539259 28.8671875 40.01171875 C25.71384456 41.58839022 22.32956509 41.17468916 18.8671875 41.1796875 C17.67996094 41.1846801 17.67996094 41.1846801 16.46875 41.18977356 C14.79427675 41.19483915 13.1197934 41.197182 11.4453125 41.19702148 C8.87743615 41.19921002 6.30998791 41.21737484 3.7421875 41.23632812 C2.11718897 41.23926166 0.4921884 41.24124672 -1.1328125 41.2421875 C-1.90367187 41.24937302 -2.67453125 41.25655853 -3.46875 41.26396179 C-8.9039853 41.24054595 -8.9039853 41.24054595 -11.1328125 39.01171875 C-11.34487206 36.23854516 -11.43678391 33.56773838 -11.43359375 30.79296875 C-11.43787888 29.97928833 -11.442164 29.16560791 -11.44657898 28.32727051 C-11.45232586 26.60572237 -11.4528199 24.88414994 -11.44848633 23.16259766 C-11.44532486 20.52204195 -11.46878514 17.88260468 -11.49414062 15.2421875 C-11.49641336 13.571616 -11.49711723 11.90104148 -11.49609375 10.23046875 C-11.5053035 9.4377356 -11.51451324 8.64500244 -11.52400208 7.82824707 C-11.50512695 5.60351562 -11.50512695 5.60351562 -11.1328125 2.01171875 C-7.3245522 -0.52712145 -4.39215239 -0.16600809 0 0 Z " fill="#64C7EF" transform="translate(285.1328125,260.98828125)"/>
<path d="M0 0 C1.54903479 0.03559455 3.09782834 0.08286774 4.64624023 0.1394043 C5.46229233 0.16205856 6.27834442 0.18471283 7.11912537 0.20805359 C8.84502636 0.25804128 10.57078912 0.31301095 12.29638672 0.37255859 C14.94729241 0.46336471 17.59828176 0.53802039 20.24975586 0.61010742 C21.92361293 0.66058891 23.59744258 0.71198987 25.27124023 0.7644043 C26.06913467 0.7873909 26.86702911 0.8103775 27.68910217 0.83406067 C33.27616287 1.03495193 33.27616287 1.03495193 34.39233398 2.15112305 C34.50574373 4.86666697 34.55651418 7.55582348 34.56030273 10.2722168 C34.56529533 11.49485985 34.56529533 11.49485985 34.57038879 12.74220276 C34.5754614 14.46973098 34.57779702 16.19726903 34.57763672 17.92480469 C34.5798219 20.5739755 34.5979702 23.22272921 34.61694336 25.87182617 C34.61987742 27.54695495 34.62186213 29.22208571 34.62280273 30.8972168 C34.62998825 31.69308701 34.63717377 32.48895721 34.64457703 33.3089447 C34.62115626 38.92230077 34.62115626 38.92230077 32.39233398 41.15112305 C29.69098076 41.35086038 27.09436187 41.43093878 24.39233398 41.41674805 C23.60084961 41.4186615 22.80936523 41.42057495 21.99389648 41.42254639 C20.31941409 41.42390822 18.64492113 41.42021186 16.97045898 41.41186523 C14.40251017 41.40116545 11.83526095 41.4117603 9.26733398 41.42456055 C7.64233244 41.42323895 6.01733132 41.42067656 4.39233398 41.41674805 C3.23604492 41.42282074 3.23604492 41.42282074 2.05639648 41.42901611 C-3.37774469 41.38104437 -3.37774469 41.38104437 -5.60766602 39.15112305 C-5.80748627 36.37776877 -5.88745802 33.70642662 -5.87329102 30.93237305 C-5.87520447 30.11869263 -5.87711792 29.30501221 -5.87908936 28.4666748 C-5.88045128 26.74511404 -5.87675429 25.02354302 -5.8684082 23.30200195 C-5.8577086 20.66163135 -5.86830302 18.02194115 -5.88110352 15.3815918 C-5.87978192 13.71101737 -5.87721953 12.04044337 -5.87329102 10.36987305 C-5.87733948 9.57713989 -5.88138794 8.78440674 -5.88555908 7.96765137 C-5.81923325 0.24376432 -5.81923325 0.24376432 0 0 Z " fill="#64C8EF" transform="translate(126.607666015625,260.848876953125)"/>
<path d="M0 0 C0.88042969 0.15686279 1.76085937 0.31372559 2.66796875 0.4753418 C8.17226304 1.58396367 14.77312168 3.14812168 18.875 7.25 C19.34240995 13.04588336 19.34240995 13.04588336 18.875 15.25 C16.8764589 17.27089615 15.64344821 18.18380409 12.7890625 18.4296875 C7.94801521 17.78531602 3.27732665 16.87365675 -1.46875 15.71875 C-8.75619935 14.14481366 -15.78200792 13.7900133 -23.19384766 13.85888672 C-25.25620028 13.87504859 -27.31661026 13.85888934 -29.37890625 13.83984375 C-36.78706845 13.82951012 -43.53523121 14.4804978 -50.66748047 16.56420898 C-54.0990174 17.52180756 -56.5916025 17.76528714 -60.125 17.25 C-62.625 15.6875 -62.625 15.6875 -64.125 13.25 C-64.125 9.6875 -64.125 9.6875 -63.125 6.25 C-59.90116051 3.06547563 -56.03044171 2.17825829 -51.75 1.125 C-51.10289062 0.95613281 -50.45578125 0.78726563 -49.7890625 0.61328125 C-33.72450158 -3.50002366 -16.24593561 -2.93967404 0 0 Z " fill="#E6EEF3" transform="translate(331.125,69.75)"/>
<path d="M0 0 C0.94875 0.1546875 1.8975 0.309375 2.875 0.46875 C6.59912501 1.10577138 9.01212667 2.00848867 12.125 4.1875 C14 7 14 7 14.0625 10.625 C13 14 13 14 11.4375 16 C6.94998584 17.84103145 2.53564097 16.38042468 -2.01171875 15.25390625 C-19.21962412 11.22652414 -36.87948685 11.89533039 -54 16 C-63.83049442 18.11974482 -63.83049442 18.11974482 -67.9375 16 C-69.60357028 12.86386771 -69.88175521 9.4437054 -69 6 C-65.82751008 2.69200172 -61.76159776 1.928703 -57.4375 0.9375 C-56.35698364 0.68371582 -56.35698364 0.68371582 -55.25463867 0.42480469 C-53.81582166 0.09095154 -52.37580859 -0.23779447 -50.93457031 -0.56103516 C-49.36498617 -0.91718259 -47.80230677 -1.30366443 -46.2421875 -1.69921875 C-31.04885243 -5.14336705 -15.03019672 -3.23926653 0 0 Z " fill="#E5EEF3" transform="translate(231,22)"/>
<path d="M0 0 C1.375 3.4375 1.375 3.4375 1 7 C-1 10 -1 10 -4 12 C-8.25732198 11.63272192 -12.36462031 10.72143198 -16.54199219 9.84448242 C-33.63127312 6.40226018 -50.95051011 7.16935963 -67.875 11.125 C-71.69179515 11.98640514 -75.07401326 12.53886093 -79 12 C-81.5 9.875 -81.5 9.875 -83 7 C-83 3.875 -83 3.875 -82 1 C-67.02768386 -13.11878743 -15.4379322 -12.97804191 0 0 Z " fill="#E5EEF4" transform="translate(244,100)"/>
<path d="M0 0 C1 1 1 1 1.25 4.875 C1.19651719 7.36195054 1.12060023 8.75879953 0 11 C-5.95011197 13.97505598 -12.87516384 11.44136017 -18.875 9.75390625 C-34.68049638 5.94083025 -53.29794294 6.16922718 -68.73046875 11.22265625 C-72.52510472 12.12484569 -75.21407004 11.85518564 -79 11 C-81 9.375 -81 9.375 -82 7 C-81.9375 3.4375 -81.9375 3.4375 -81 0 C-64.24531743 -15.71104866 -18.42198606 -9.76175894 0 0 Z " fill="#E6EEF4" transform="translate(349,27)"/>
<path d="M0 0 C2.46324069 3.69486103 2.38991688 5.63293092 2 10 C0.9375 11.9375 0.9375 11.9375 -1 13 C-6.06018671 13.25081471 -10.56043137 12.62899777 -15.5 11.5625 C-23.98564229 9.74790501 -31.96307823 8.8050687 -40.625 8.8125 C-41.59759766 8.81330566 -42.57019531 8.81411133 -43.57226562 8.81494141 C-51.94843981 8.88599678 -60.13130621 9.31397806 -68.11328125 12.078125 C-71.82998132 13.26505493 -74.2469512 12.99137138 -78 12 C-80 10.375 -80 10.375 -81 8 C-81.1875 4.5 -81.1875 4.5 -80 1 C-74.96816974 -2.7260971 -68.66170644 -4.09264228 -62.625 -5.25 C-61.75286865 -5.41765869 -60.8807373 -5.58531738 -59.98217773 -5.75805664 C-41.22289634 -9.09828535 -17.52050695 -8.09096416 0 0 Z " fill="#E6EFF4" transform="translate(348,99)"/>
<path d="M0 0 C2 2 2 2 2.375 4.875 C2 8 2 8 0.4375 10.375 C-2.90265211 12.60176808 -5.01497921 12.23608908 -9 12 C-10.87091742 11.55321375 -12.74211669 11.10280328 -14.59228516 10.57666016 C-32.31136472 5.54994073 -52.44435456 6.71913701 -69.84375 12.4609375 C-73.24534013 13.31133503 -75.63076964 12.91249989 -79 12 C-81.54731042 9.45268958 -81.35323144 7.55484721 -81.55859375 4.0703125 C-80.65553107 0.72329696 -78.90858113 -0.1821368 -76 -2 C-54.90125885 -10.29868288 -19.94563969 -12.36629661 0 0 Z " fill="#E5EFF5" transform="translate(243,124)"/>
<path d="M0 0 C0.792854 0.10916748 1.58570801 0.21833496 2.40258789 0.33081055 C7.99167486 1.23380426 13.30494717 2.81567704 18.1875 5.75 C20.1875 8.75 20.1875 8.75 20 12.3125 C19.1875 15.75 19.1875 15.75 16.1875 17.75 C10.34991332 18.2712131 5.66583258 17.24098621 0.09375 15.50390625 C-16.19693637 11.27796207 -32.58073272 13.89999844 -48.64453125 17.65625 C-52.43978713 18.51091848 -55.90435672 19.2105137 -59.8125 18.75 C-62.25 16.625 -62.25 16.625 -63.8125 13.75 C-63.75070345 10.66017233 -63.52162382 8.69788605 -61.65234375 6.19921875 C-47.05543259 -5.29856053 -17.25680154 -2.46059229 0 0 Z " fill="#E5EFF5" transform="translate(224.8125,69.25)"/>
<path d="M0 0 C1.14855469 0.32484375 2.29710937 0.6496875 3.48046875 0.984375 C11.64958313 3.47437469 11.64958313 3.47437469 14 7 C13.8684799 10.68256285 13.73329557 13.09748237 11.375 16 C6.27205666 18.14860772 -0.67423911 15.53561246 -6.0625 14.5 C-8.70738349 13.9945445 -11.35319325 13.49543483 -14 13 C-14.93070312 12.81050781 -15.86140625 12.62101562 -16.8203125 12.42578125 C-30.17788847 10.63711321 -43.58228466 11.4149296 -56.50390625 15.125 C-59.87600455 15.9689665 -62.54659867 16.3367946 -66 16 C-68.62846098 13.57904909 -69.81388233 11.95385308 -70.5 8.4375 C-69.8217378 5.13097176 -68.59100265 4.14719306 -66 2 C-62.79296875 0.76953125 -62.79296875 0.76953125 -59.1875 -0.1875 C-58.00542969 -0.51105469 -56.82335937 -0.83460937 -55.60546875 -1.16796875 C-38.56965775 -5.09930975 -16.81704863 -5.04297773 0 0 Z " fill="#E6EFF6" transform="translate(337,47)"/>
<path d="M0 0 C2 2 2 2 2.375 5.375 C2 9 2 9 0.5625 11.5 C-5.45665566 15.02340819 -14.41717797 11.29205482 -20.7890625 9.71875 C-36.24348938 6.25936491 -51.74727525 7.34979075 -66.99609375 11.125 C-70.39921263 11.93454193 -73.48527896 12.30471423 -77 12 C-79.375 10.375 -79.375 10.375 -81 8 C-81.5 5 -81.5 5 -81 2 C-77.86041468 -2.16232902 -74.1363801 -3.11122483 -69.25 -4.1875 C-68.57195312 -4.35185547 -67.89390625 -4.51621094 -67.1953125 -4.68554688 C-46.98952388 -9.42968165 -18.57539837 -10.70684838 0 0 Z " fill="#E6EFF6" transform="translate(348,124)"/>
<path d="M0 0 C1.125 1.8125 1.125 1.8125 1.0625 5.3125 C0.125 8.8125 0.125 8.8125 -1.5625 10.75 C-6.28623253 12.9203636 -10.97807657 11.70271944 -15.8125 10.375 C-32.55599247 5.80859296 -49.84757469 6.96407438 -66.58984375 10.83984375 C-70.34531214 11.70562414 -74.02205417 12.51797657 -77.875 12.8125 C-80.98810233 10.56046853 -82.53736214 9.04027405 -83.5625 5.3125 C-82.54342655 1.60677837 -80.00640375 -0.19353813 -76.875 -2.1875 C-74.13634324 -3.25331129 -71.37754159 -3.86403975 -68.5 -4.4375 C-67.78328125 -4.59734375 -67.0665625 -4.7571875 -66.328125 -4.921875 C-46.32034987 -9.25568911 -18.13135772 -11.48319322 0 0 Z " fill="#E5EFF6" transform="translate(243.875,51.1875)"/>
<path d="M0 0 C0.69738281 0.00451172 1.39476562 0.00902344 2.11328125 0.01367188 C3.82555803 0.0253998 5.53779033 0.04333347 7.25 0.0625 C7.25 0.3925 7.25 0.7225 7.25 1.0625 C6.03376953 1.28292969 6.03376953 1.28292969 4.79296875 1.5078125 C-9.13758975 4.329602 -20.55146193 10.55532275 -29.046875 22.21484375 C-35.05912539 31.61721342 -38.78110608 40.63804903 -38.95532227 51.86254883 C-38.97526749 53.00335403 -38.99521271 54.14415924 -39.01576233 55.3195343 C-39.04083107 57.15103279 -39.04083107 57.15103279 -39.06640625 59.01953125 C-39.08718735 60.27763107 -39.10796844 61.5357309 -39.12937927 62.83195496 C-39.18360465 66.16422286 -39.23387945 69.49650239 -39.28222656 72.82885742 C-39.33261084 76.23426555 -39.38820823 79.6395882 -39.44335938 83.04492188 C-39.55036703 89.71738173 -39.65168302 96.38990666 -39.75 103.0625 C-43.38 103.0625 -47.01 103.0625 -50.75 103.0625 C-50.84092622 95.57717401 -50.91407275 88.09205847 -50.95724869 80.6063118 C-50.97798728 77.12909422 -51.00604728 73.65227904 -51.05175781 70.17529297 C-51.10415724 66.16370118 -51.1230583 62.15252177 -51.140625 58.140625 C-51.16127014 56.91200745 -51.18191528 55.68338989 -51.20318604 54.4175415 C-51.20713465 38.99136244 -45.60933735 26.55450592 -35.12890625 15.41796875 C-25.27895981 5.66506611 -13.9841884 -0.1718284 0 0 Z " fill="#5BB4D8" transform="translate(252.75,336.9375)"/>
<path d="M0 0 C3.63 0 7.26 0 11 0 C11 13.2 11 26.4 11 40 C7.37 40 3.74 40 0 40 C-2.47558143 36.28662786 -2.28901058 33.41772859 -2.265625 29.12109375 C-2.26753845 28.35322037 -2.2694519 27.58534698 -2.27142334 26.79420471 C-2.27278317 25.17277702 -2.26910078 23.55133836 -2.26074219 21.92993164 C-2.25002489 19.4432747 -2.26065148 16.9573378 -2.2734375 14.47070312 C-2.27211616 12.89583173 -2.26955428 11.32096079 -2.265625 9.74609375 C-2.26967346 9.00024521 -2.27372192 8.25439667 -2.27789307 7.48594666 C-2.22993247 2.22993247 -2.22993247 2.22993247 0 0 Z " fill="#5DB6D9" transform="translate(199,262)"/>
<path d="M0 0 C1.65322266 0.01740234 1.65322266 0.01740234 3.33984375 0.03515625 C4.99693359 0.04869141 4.99693359 0.04869141 6.6875 0.0625 C7.54214844 0.07410156 8.39679688 0.08570313 9.27734375 0.09765625 C8.94734375 0.75765625 8.61734375 1.41765625 8.27734375 2.09765625 C8.17843123 4.77314667 8.13750521 7.4220273 8.14453125 10.09765625 C8.14357452 10.88914062 8.1426178 11.680625 8.14163208 12.49609375 C8.14095116 14.17057372 8.14279931 15.84505634 8.14697266 17.51953125 C8.15232217 20.08729971 8.14702472 22.65489325 8.140625 25.22265625 C8.1412858 26.84765664 8.14256699 28.47265692 8.14453125 30.09765625 C8.14250702 30.86851562 8.14048279 31.639375 8.13839722 32.43359375 C8.0718915 36.39480274 8.0718915 36.39480274 9.27734375 40.09765625 C7.48600397 40.15157618 5.69420476 40.19041196 3.90234375 40.22265625 C2.90460938 40.24585938 1.906875 40.2690625 0.87890625 40.29296875 C-1.72265625 40.09765625 -1.72265625 40.09765625 -3.72265625 38.09765625 C-3.91018936 35.31255401 -3.97826857 32.62865979 -3.953125 29.84375 C-3.95266678 29.02769791 -3.95220856 28.21164581 -3.95173645 27.37086487 C-3.94871369 25.6450963 -3.94082667 23.91933047 -3.9284668 22.19360352 C-3.91020603 19.54238292 -3.90795711 16.89151129 -3.90820312 14.24023438 C-3.90328819 12.56640321 -3.89745998 10.89257443 -3.890625 9.21875 C-3.88951218 8.42085556 -3.88839935 7.62296112 -3.88725281 6.80088806 C-3.82935272 0.13735125 -3.82935272 0.13735125 0 0 Z " fill="#5AB4D8" transform="translate(124.72265625,336.90234375)"/>
<path d="M0 0 C1.65322266 0.01740234 1.65322266 0.01740234 3.33984375 0.03515625 C4.99693359 0.04869141 4.99693359 0.04869141 6.6875 0.0625 C7.54214844 0.07410156 8.39679688 0.08570313 9.27734375 0.09765625 C8.94734375 0.75765625 8.61734375 1.41765625 8.27734375 2.09765625 C8.17843123 4.77314667 8.13750521 7.4220273 8.14453125 10.09765625 C8.14357452 10.88914062 8.1426178 11.680625 8.14163208 12.49609375 C8.14095116 14.17057372 8.14279931 15.84505634 8.14697266 17.51953125 C8.15232217 20.08729971 8.14702472 22.65489325 8.140625 25.22265625 C8.1412858 26.84765664 8.14256699 28.47265692 8.14453125 30.09765625 C8.14250702 30.86851562 8.14048279 31.639375 8.13839722 32.43359375 C8.0718915 36.39480274 8.0718915 36.39480274 9.27734375 40.09765625 C7.48600397 40.15157618 5.69420476 40.19041196 3.90234375 40.22265625 C2.90460938 40.24585938 1.906875 40.2690625 0.87890625 40.29296875 C-1.72265625 40.09765625 -1.72265625 40.09765625 -3.72265625 38.09765625 C-3.91018936 35.31255401 -3.97826857 32.62865979 -3.953125 29.84375 C-3.95266678 29.02769791 -3.95220856 28.21164581 -3.95173645 27.37086487 C-3.94871369 25.6450963 -3.94082667 23.91933047 -3.9284668 22.19360352 C-3.91020603 19.54238292 -3.90795711 16.89151129 -3.90820312 14.24023438 C-3.90328819 12.56640321 -3.89745998 10.89257443 -3.890625 9.21875 C-3.88951218 8.42085556 -3.88839935 7.62296112 -3.88725281 6.80088806 C-3.82935272 0.13735125 -3.82935272 0.13735125 0 0 Z " fill="#5AB4D8" transform="translate(277.72265625,261.90234375)"/>
<path d="M0 0 C1.51400391 0.01740234 1.51400391 0.01740234 3.05859375 0.03515625 C4.07050781 0.04417969 5.08242188 0.05320312 6.125 0.0625 C7.29869141 0.07990234 7.29869141 0.07990234 8.49609375 0.09765625 C8.49085693 1.23831543 8.48562012 2.37897461 8.48022461 3.55419922 C8.46215506 7.77717304 8.45065456 12.00014343 8.44116211 16.22314453 C8.43612638 18.05257746 8.42929748 19.88200634 8.4206543 21.71142578 C8.40855551 24.33757523 8.40285792 26.96367157 8.3984375 29.58984375 C8.39327621 30.41072479 8.38811493 31.23160583 8.38279724 32.07736206 C8.27257501 36.21977469 8.27257501 36.21977469 9.49609375 40.09765625 C7.70450886 40.1246199 5.91280902 40.14403542 4.12109375 40.16015625 C3.12335938 40.17175781 2.125625 40.18335938 1.09765625 40.1953125 C-1.50390625 40.09765625 -1.50390625 40.09765625 -3.50390625 39.09765625 C-3.52855474 33.70418637 -3.54674156 28.310749 -3.55883789 22.91723633 C-3.56387856 21.0809675 -3.57071102 19.24470271 -3.5793457 17.40844727 C-3.59142297 14.77489224 -3.59713706 12.14139009 -3.6015625 9.5078125 C-3.60672379 8.68177017 -3.61188507 7.85572784 -3.61720276 7.00465393 C-3.6173983 5.03529257 -3.56594777 3.06604011 -3.50390625 1.09765625 C-2.50390625 0.09765625 -2.50390625 0.09765625 0 0 Z " fill="#5AB4D8" transform="translate(354.50390625,336.90234375)"/>
<path d="M0 0 C1.51400391 0.01740234 1.51400391 0.01740234 3.05859375 0.03515625 C4.07050781 0.04417969 5.08242188 0.05320312 6.125 0.0625 C7.29869141 0.07990234 7.29869141 0.07990234 8.49609375 0.09765625 C8.49085693 1.23831543 8.48562012 2.37897461 8.48022461 3.55419922 C8.46215506 7.77717304 8.45065456 12.00014343 8.44116211 16.22314453 C8.43612638 18.05257746 8.42929748 19.88200634 8.4206543 21.71142578 C8.40855551 24.33757523 8.40285792 26.96367157 8.3984375 29.58984375 C8.39327621 30.41072479 8.38811493 31.23160583 8.38279724 32.07736206 C8.27257501 36.21977469 8.27257501 36.21977469 9.49609375 40.09765625 C7.70450886 40.1246199 5.91280902 40.14403542 4.12109375 40.16015625 C3.12335938 40.17175781 2.125625 40.18335938 1.09765625 40.1953125 C-1.50390625 40.09765625 -1.50390625 40.09765625 -3.50390625 39.09765625 C-3.52855474 33.70418637 -3.54674156 28.310749 -3.55883789 22.91723633 C-3.56387856 21.0809675 -3.57071102 19.24470271 -3.5793457 17.40844727 C-3.59142297 14.77489224 -3.59713706 12.14139009 -3.6015625 9.5078125 C-3.60672379 8.68177017 -3.61188507 7.85572784 -3.61720276 7.00465393 C-3.6173983 5.03529257 -3.56594777 3.06604011 -3.50390625 1.09765625 C-2.50390625 0.09765625 -2.50390625 0.09765625 0 0 Z " fill="#5AB4D8" transform="translate(354.50390625,261.90234375)"/>
<path d="M0 0 C1.51400391 0.01740234 1.51400391 0.01740234 3.05859375 0.03515625 C4.07050781 0.04417969 5.08242187 0.05320312 6.125 0.0625 C7.29869141 0.07990234 7.29869141 0.07990234 8.49609375 0.09765625 C8.49085693 1.23831543 8.48562012 2.37897461 8.48022461 3.55419922 C8.46215506 7.77717304 8.45065456 12.00014343 8.44116211 16.22314453 C8.43612638 18.05257746 8.42929748 19.88200634 8.4206543 21.71142578 C8.40855551 24.33757523 8.40285792 26.96367157 8.3984375 29.58984375 C8.39327621 30.41072479 8.38811493 31.23160583 8.38279724 32.07736206 C8.27257501 36.21977469 8.27257501 36.21977469 9.49609375 40.09765625 C7.70475397 40.15157618 5.91295476 40.19041196 4.12109375 40.22265625 C3.12335938 40.24585938 2.125625 40.2690625 1.09765625 40.29296875 C-1.50390625 40.09765625 -1.50390625 40.09765625 -3.50390625 38.09765625 C-3.69143936 35.31255401 -3.75951857 32.62865979 -3.734375 29.84375 C-3.73391678 29.02769791 -3.73345856 28.21164581 -3.73298645 27.37086487 C-3.72996369 25.6450963 -3.72207667 23.91933047 -3.7097168 22.19360352 C-3.69145603 19.54238292 -3.68920711 16.89151129 -3.68945312 14.24023438 C-3.68453819 12.56640321 -3.67870998 10.89257443 -3.671875 9.21875 C-3.67076218 8.42085556 -3.66964935 7.62296112 -3.66850281 6.80088806 C-3.61063286 0.14082031 -3.61063286 0.14082031 0 0 Z " fill="#5AB4D8" transform="translate(124.50390625,261.90234375)"/>
</svg>
