<?xml version="1.0" encoding="UTF-8"?>
<svg version="1.1" xmlns="http://www.w3.org/2000/svg" width="32" height="27">
<path d="M0 0 C6.28312702 -0.19946435 11.95844718 0.15247157 18 2 C19.67691362 3.67691362 19.17155127 5.70338288 19.1875 8 C19.12070934 13.12952286 18.9936791 18.2069062 17 23 C11.06219947 28.27804491 2.45377505 27.1193665 -5 27 C-8.32355643 21.11336192 -9.6561012 13.81186228 -8.125 7.25 C-7.75375 6.5075 -7.3825 5.765 -7 5 C-5.824375 4.87625 -5.824375 4.87625 -4.625 4.75 C-1.84757889 4.28770472 -1.84757889 4.28770472 -0.8359375 1.953125 C-0.56007813 1.30859375 -0.28421875 0.6640625 0 0 Z " fill="#E45344" transform="translate(10,0)"/>
<path d="M0 0 C0.05418326 2.08304538 0.09287551 4.16649768 0.125 6.25 C0.14820313 7.41015625 0.17140625 8.5703125 0.1953125 9.765625 C0.0103949 12.82786046 -0.39176977 14.44202751 -2 17 C-1.34 17.33 -0.68 17.66 0 18 C-0.66 18 -1.32 18 -2 18 C-2 18.99 -2 19.98 -2 21 C-1.27554687 20.84402344 -0.55109375 20.68804688 0.1953125 20.52734375 C9.79789104 18.5940246 9.79789104 18.5940246 15 20 C11.26040472 23.73959528 6.14799979 23.05603539 1.125 23.0625 C-0.58338595 23.04655506 -2.29175867 23.02735618 -4 23 C-7.32355643 17.11336192 -8.6561012 9.81186228 -7.125 3.25 C-6.75375 2.5075 -6.3825 1.765 -6 1 C-1.125 0 -1.125 0 0 0 Z " fill="#39495C" transform="translate(9,4)"/>
<path d="M0 0 C6.28312702 -0.19946435 11.95844718 0.15247157 18 2 C19 3 19 3 19.1328125 5.29296875 C19.11929401 10.30156901 19.06402291 15.07889404 18 20 C16 20 16 20 14.32421875 18.359375 C11.88474816 14.01294362 13.94450338 9.6664061 15 5 C9.06 4.01 9.06 4.01 3 3 C3 3.99 3 4.98 3 6 C4.65 6 6.3 6 8 6 C8 6.33 8 6.66 8 7 C5.36 7 2.72 7 0 7 C-0.33 7.66 -0.66 8.32 -1 9 C-1.125 2.25 -1.125 2.25 0 0 Z " fill="#D84A3D" transform="translate(10,0)"/>
<path d="M0 0 C6.02900687 0.51241107 12.02004643 1.069785 18 2 C18.33 3.32 18.66 4.64 19 6 C14.75266168 6.98142381 10.52675467 7.30920379 6.1875 7.5625 C5.49462891 7.60568359 4.80175781 7.64886719 4.08789062 7.69335938 C2.39211314 7.79861453 0.69607948 7.89972863 -1 8 C-1.125 2.25 -1.125 2.25 0 0 Z " fill="#894A48" transform="translate(8,17)"/>
<path d="M0 0 C0.99 0.33 1.98 0.66 3 1 C3.18451025 12.52164009 3.18451025 12.52164009 2 18 C0 18 0 18 -1.6875 16.5 C-4.09351611 11.91711217 -2.36489833 7.20201804 -0.9375 2.5 C-0.628125 1.675 -0.31875 0.85 0 0 Z " fill="#C03C2C" transform="translate(26,2)"/>
<path d="M0 0 C6.625 -0.125 6.625 -0.125 10 1 C10 2.65 10 4.3 10 6 C8.741875 6.020625 7.48375 6.04125 6.1875 6.0625 C5.47980469 6.07410156 4.77210937 6.08570313 4.04296875 6.09765625 C2 6 2 6 -1 5 C-0.67 3.35 -0.34 1.7 0 0 Z " fill="#EBE3E3" transform="translate(12,8)"/>
<path d="M0 0 C0.33 0.99 0.66 1.98 1 3 C2.13179688 2.83242188 3.26359375 2.66484375 4.4296875 2.4921875 C5.9113774 2.28587625 7.39315286 2.08017883 8.875 1.875 C9.62136719 1.76285156 10.36773437 1.65070312 11.13671875 1.53515625 C13.08159197 1.27233554 15.04165038 1.1283485 17 1 C17.66 1.66 18.32 2.32 19 3 C12.53991163 4.95021536 6.7281627 5.22262303 0 5 C-0.5625 3.0625 -0.5625 3.0625 -1 1 C-0.67 0.67 -0.34 0.34 0 0 Z " fill="#374353" transform="translate(5,22)"/>
<path d="M0 0 C1.72945653 0.14235457 3.45855654 0.28904382 5.1875 0.4375 C6.63189453 0.55931641 6.63189453 0.55931641 8.10546875 0.68359375 C10.78649602 0.97666151 13.3662986 1.42703754 16 2 C16 2.99 16 3.98 16 5 C10.72 4.34 5.44 3.68 0 3 C0 2.01 0 1.02 0 0 Z " fill="#E6CF9F" transform="translate(8,17)"/>
<path d="M0 0 C0.33 1.32 0.66 2.64 1 4 C2.14339844 4.12117187 3.28679688 4.24234375 4.46484375 4.3671875 C5.95578417 4.53597321 7.44666673 4.70527047 8.9375 4.875 C9.69224609 4.95363281 10.44699219 5.03226563 11.22460938 5.11328125 C13.15919299 5.33883808 15.08176019 5.66258974 17 6 C17.33 6.66 17.66 7.32 18 8 C17.01 9.485 17.01 9.485 16 11 C16 10.01 16 9.02 16 8 C15.26394531 7.95101563 14.52789062 7.90203125 13.76953125 7.8515625 C12.79371094 7.77679687 11.81789063 7.70203125 10.8125 7.625 C9.84957031 7.55539063 8.88664062 7.48578125 7.89453125 7.4140625 C4.98491062 6.99784147 2.67109226 6.20125904 0 5 C0 3.35 0 1.7 0 0 Z " fill="#954844" transform="translate(8,11)"/>
<path d="M0 0 C3.3 0.33 6.6 0.66 10 1 C10 2.32 10 3.64 10 5 C7.03 4.67 4.06 4.34 1 4 C0.67 2.68 0.34 1.36 0 0 Z " fill="#9E5250" transform="translate(12,2)"/>
<path d="M0 0 C0.66 0 1.32 0 2 0 C1.74438677 2.3431213 1.40729228 4.67843403 1 7 C0.01 7.495 0.01 7.495 -1 8 C-1 6.68 -1 5.36 -1 4 C-4.3 3.67 -7.6 3.34 -11 3 C-11.33 3.99 -11.66 4.98 -12 6 C-12 4.68 -12 3.36 -12 2 C-11.21753906 1.93941406 -10.43507813 1.87882813 -9.62890625 1.81640625 C-8.61699219 1.73261719 -7.60507813 1.64882812 -6.5625 1.5625 C-5.55316406 1.48128906 -4.54382813 1.40007813 -3.50390625 1.31640625 C-1.06359221 1.26788532 -1.06359221 1.26788532 0 0 Z " fill="#E76659" transform="translate(23,5)"/>
<path d="M0 0 C2.97 0 5.94 0 9 0 C9.33 0.66 9.66 1.32 10 2 C6.7 2.33 3.4 2.66 0 3 C0 2.01 0 1.02 0 0 Z " fill="#DCCEA0" transform="translate(7,22)"/>
<path d="M0 0 C0.33 1.32 0.66 2.64 1 4 C-3.25566547 5.16063604 -6.6835078 4.76173392 -11 4 C-11 3.67 -11 3.34 -11 3 C-7.7 3 -4.4 3 -1 3 C-0.67 2.01 -0.34 1.02 0 0 Z " fill="#D64638" transform="translate(23,12)"/>
<path d="M0 0 C0.66 0.33 1.32 0.66 2 1 C1.67 2.32 1.34 3.64 1 5 C-1.31 4.67 -3.62 4.34 -6 4 C-6 3.67 -6 3.34 -6 3 C-4.02 3 -2.04 3 0 3 C0 2.01 0 1.02 0 0 Z " fill="#783138" transform="translate(25,19)"/>
</svg>
