<?xml version="1.0" encoding="UTF-8"?>
<svg version="1.1" xmlns="http://www.w3.org/2000/svg" width="100" height="100">
<path d="M0 0 C1.11336698 0.19389382 2.22673395 0.38778763 3.37383932 0.58755702 C7.06630314 1.23337096 10.7557626 1.89491659 14.44541931 2.55656433 C17.10747463 3.0255406 19.76967106 3.49363709 22.43206787 3.96066284 C28.88964855 5.09549639 35.34508772 6.24208397 41.79986794 7.39272717 C49.32936256 8.73447116 56.86095657 10.06424418 64.3926565 11.39354309 C77.83796207 13.76695966 91.28137952 16.15090192 104.72373962 18.54093933 C117.74424649 20.85595996 130.7659788 23.16391411 143.78916931 25.46379089 C144.59143187 25.60547047 145.39369442 25.74715005 146.22026796 25.89312295 C147.02119383 26.03456468 147.82211969 26.17600641 148.64731604 26.32173425 C150.26023185 26.60657316 151.87314719 26.89141475 153.48606205 27.17625904 C154.28164906 27.31676034 155.07723607 27.45726164 155.89693177 27.60202055 C168.34108159 29.79996408 180.7840985 32.00430855 193.22699635 34.2093269 C197.72383657 35.00613799 202.22083888 35.80202684 206.71796186 36.59724049 C213.85301148 37.85894026 220.98755461 39.12342839 228.12110717 40.3935676 C231.37692448 40.97322045 234.63303034 41.55114613 237.88964844 42.12628555 C241.43032243 42.75186775 244.97001887 43.3827213 248.50952148 44.01489258 C249.52403777 44.19291957 250.53855405 44.37094657 251.58381325 44.55436832 C267.43105976 47.40311381 280.85546712 51.41604848 293.19126892 62.19792175 C293.79455017 62.70710144 294.39783142 63.21628113 295.01939392 63.7408905 C304.84205741 72.70075247 312.33859706 86.84009373 313.34279883 100.21634257 C314.06811967 116.52573107 311.65224371 131.95061563 308.74082947 147.94865417 C308.25923428 150.66243087 307.78334655 153.3772014 307.30717468 156.0919342 C306.15456572 162.64336224 304.98222765 169.19110379 303.80291995 175.73777237 C302.42713174 183.3800097 301.07222289 191.02590603 299.71814439 198.67201451 C297.30094829 212.31757441 294.86626407 225.95995299 292.42100525 239.60050964 C290.05338429 252.80811518 287.69662813 266.01759412 285.35264587 279.22941589 C285.2079793 280.04481432 285.06331273 280.86021274 284.91426232 281.70032021 C284.33260844 284.97886995 283.75096544 288.25742163 283.16935239 291.53597863 C280.92671997 304.17581516 278.67596912 316.81420774 276.42366969 329.45232483 C275.74527408 333.25903623 275.06721941 337.06580768 274.38997626 340.87272429 C272.96804335 348.86527571 271.54327859 356.85730146 270.10945328 364.84772911 C269.51728395 368.14797885 268.92713648 371.44855268 268.34028053 374.74975395 C267.70232204 378.33642352 267.05809825 381.92191343 266.41226196 385.50717163 C266.23034402 386.53791642 266.04842608 387.56866121 265.86099547 388.63064069 C262.76282109 405.6987883 257.87980215 419.85356212 245.19126892 432.19792175 C244.41589783 433.02163269 244.41589783 433.02163269 243.62486267 433.86198425 C237.18481019 440.1507039 227.31545718 444.60359911 218.78892517 447.2565155 C215.10560802 448.59137179 214.82267997 450.73117328 213.19126892 454.19792175 C206.00871581 461.91916634 194.64486899 462.6285603 184.69033813 464.38095093 C183.03343443 464.67881161 183.03343443 464.67881161 181.34305793 464.98268968 C177.67050731 465.64155308 173.99671428 466.29319222 170.32286072 466.94474792 C167.67709576 467.41770997 165.0314003 467.8910481 162.38577271 468.36477661 C154.46999758 469.7808238 146.55251011 471.18716452 138.63481376 472.59242269 C134.89334227 473.25670047 131.15206126 473.92204918 127.41076088 474.58728981 C114.95271913 476.80206814 102.49426172 479.01448393 90.03450298 481.21958447 C86.8093309 481.79039439 83.58415949 482.36120811 80.35899353 482.93205261 C79.15680972 483.14483212 79.15680972 483.14483212 77.93033937 483.3619102 C64.9652202 485.65711511 52.00305802 487.9685864 39.04206886 490.28698786 C25.69415634 492.67433583 12.34374763 495.04729154 -1.00919408 497.40635091 C-8.48969888 498.72828176 -15.96902481 500.05619982 -23.44559669 501.40021324 C-29.81608746 502.54534068 -36.18877032 503.67717239 -42.56452916 504.79261132 C-45.80753773 505.36037024 -49.04880294 505.93587961 -52.28813934 506.52427673 C-79.45842553 511.45143138 -103.56808399 513.77079289 -127.22279358 497.54167175 C-143.35784714 484.42792304 -148.34204329 466.20494488 -151.65248108 446.69010925 C-152.01974419 444.60438318 -152.38859647 442.51893649 -152.75880432 440.43373108 C-153.62014829 435.56217083 -154.46993468 430.68874507 -155.31312561 425.81401062 C-156.84990676 416.93268008 -158.41764471 408.05687766 -159.98629761 399.18112993 C-163.89446758 377.06468296 -167.77253494 354.94299581 -171.64570999 332.82039809 C-172.9380863 325.43878645 -174.23126386 318.05731557 -175.52503967 310.6759491 C-175.70733564 309.63588722 -175.88963161 308.59582535 -176.07745171 307.52424645 C-176.99033983 302.31615608 -177.90339337 297.10809475 -178.81663513 291.90006638 C-180.41170395 282.80311398 -182.00614143 273.70605541 -183.5957737 264.6081512 C-184.4357061 259.80105835 -185.27629275 254.99408013 -186.11732483 250.18717957 C-186.27842869 249.26637871 -186.43953255 248.34557786 -186.60551834 247.39687395 C-188.64621245 235.74097224 -190.72211428 224.0922547 -192.84388733 212.45085144 C-193.27996022 210.04348089 -193.71588115 207.6360828 -194.15162659 205.22865295 C-194.90413439 201.07216559 -195.67132413 196.91884213 -196.44923401 192.76704407 C-200.14419322 172.63839804 -199.88522484 154.1397999 -188.80873108 136.19792175 C-175.87670147 117.55111558 -158.41966084 110.16270168 -136.71815491 106.1615448 C-132.98720634 105.49183918 -129.25200881 104.84902342 -125.51576233 104.2096405 C-123.51022423 103.85887124 -121.50483013 103.50727779 -119.49957275 103.15490723 C-115.33314144 102.42500223 -111.16558866 101.70205448 -106.9969635 100.98478699 C-101.65786139 100.06596619 -96.32117615 99.13391742 -90.98517323 98.19728374 C-86.86030015 97.473934 -82.73463164 96.75521644 -78.60866356 96.03814125 C-76.63933831 95.69575341 -74.67017057 95.35245832 -72.70116615 95.00823021 C-69.96016759 94.53022012 -67.21824931 94.05791038 -64.47596741 93.58732605 C-63.6681633 93.44556946 -62.86035919 93.30381287 -62.02807617 93.15776062 C-58.25102833 92.51568228 -54.64350912 92.02787429 -50.80873108 92.19792175 C-50.72743958 91.40837097 -50.64614807 90.61882019 -50.56239319 89.80534363 C-49.00274162 76.09145163 -46.53668747 62.5247083 -44.12294006 48.94108582 C-43.49190509 45.38790186 -42.87172754 41.83291373 -42.2541666 38.27736664 C-41.77128601 35.50702596 -41.28136069 32.73796463 -40.78948784 29.96920776 C-40.44648508 28.02921388 -40.11037283 26.08800569 -39.77444458 24.14677429 C-36.39956036 5.35520507 -36.39956036 5.35520507 -28.37123108 -0.61457825 C-19.35892797 -3.61867928 -9.15622659 -1.67080371 0 0 Z " fill="#E54C3C" transform="translate(198.80873107910156,1.8020782470703125)"/>
<path d="M0 0 C1.09995804 0.20282089 2.19991608 0.40564178 3.33320618 0.61460876 C5.69264576 1.05039181 8.0515031 1.48933702 10.40982056 1.93115234 C15.41012858 2.86763053 20.4133445 3.78809114 25.41645813 4.70944214 C27.93896976 5.17410435 30.4613393 5.63953857 32.98356628 6.10574341 C43.11526164 7.97745552 53.25563994 9.79262583 63.40625 11.55859375 C64.17408813 11.69251526 64.94192627 11.82643677 65.73303223 11.9644165 C76.28634357 13.80434795 86.8441981 15.61773846 97.40234375 17.4296875 C102.38287142 18.28481348 107.36332948 19.14034393 112.34375 19.99609375 C113.59053528 20.21021912 114.83732056 20.42434448 116.12188721 20.6449585 C133.07602917 23.55905036 150.01106906 26.56027543 166.93023682 29.67056274 C181.1747433 32.28664869 195.43920431 34.76642124 209.71875 37.18359375 C211.70013112 37.51999971 213.68149524 37.85650579 215.6628418 38.19311523 C223.83462926 39.58026071 232.00692767 40.9634152 240.18405151 42.31878662 C243.2749565 42.83348582 246.36418842 43.35773267 249.45306396 43.88446045 C250.84250905 44.11918409 252.2326606 44.3497772 253.62359619 44.57550049 C273.39484051 47.78707004 292.14961489 54.26648813 304.83886719 70.66796875 C315.90232488 86.40599493 319.71469508 103.32503751 317.1640625 122.24609375 C314.18538314 134.60209701 307.63282948 145.26469725 298.59375 154.05859375 C297.81837891 154.88230469 297.81837891 154.88230469 297.02734375 155.72265625 C285.05339771 167.41523019 268.69854214 170.3697089 252.66772461 170.21044922 C246.16623448 170.04395012 239.80761527 168.95624027 233.40625 167.87109375 C232.02358045 167.64601135 230.64076464 167.42182585 229.2578125 167.19848633 C222.3507799 166.07284375 215.45911071 164.86678046 208.57421875 163.61328125 C207.31311279 163.38406982 206.05200684 163.1548584 204.75268555 162.91870117 C202.3763058 162.48186083 200.00135322 162.03715699 197.62817383 161.58325195 C196.55462646 161.38304443 195.4810791 161.18283691 194.375 160.9765625 C193.44751953 160.79891357 192.52003906 160.62126465 191.56445312 160.43823242 C184.36571035 159.51827475 177.81256875 160.34032013 170.7265625 161.59765625 C169.31803009 161.83940079 169.31803009 161.83940079 167.88104248 162.08602905 C164.82578907 162.61209897 161.77229254 163.1476904 158.71875 163.68359375 C156.58098227 164.05390735 154.44312319 164.42369392 152.30517578 164.79296875 C147.01697257 165.7082318 141.73021396 166.6315155 136.4440918 167.55871582 C133.8932575 168.0060677 131.34220399 168.45213356 128.79101562 168.89746094 C119.83138035 170.46228413 110.87558688 172.04825546 101.92138672 173.64385986 C94.73576417 174.92418043 87.5497719 176.20242713 80.36383057 177.48095703 C78.43327549 177.82447072 76.5027335 178.168058 74.57220459 178.51171875 C59.64084637 181.16937027 44.70515175 183.80108181 29.76318359 186.3984375 C20.62731814 187.98882226 11.49873508 189.61481105 2.375 191.2734375 C-0.71265973 191.83208328 -3.80040957 192.39022852 -6.88818359 192.94824219 C-8.87986054 193.3097794 -10.87108449 193.67382222 -12.86181641 194.04052734 C-15.63595358 194.55146587 -18.41152261 195.05385847 -21.1875 195.5546875 C-22.00343628 195.70743637 -22.81937256 195.86018524 -23.66003418 196.01756287 C-33.49158395 197.77126588 -41.59128937 197.41259637 -50.234375 191.890625 C-55.4742437 187.80193957 -58.96988546 182.52223419 -60.40625 176.05859375 C-61.32492739 167.60676179 -60.42938405 161.04168898 -55.40625 154.05859375 C-47.44061488 144.85420828 -37.75199054 143.09562849 -26.18359375 141.12109375 C-25.23923965 140.95488525 -24.29488556 140.78867676 -23.32191467 140.61743164 C-20.33014646 140.09218184 -17.33702126 139.5752014 -14.34375 139.05859375 C-12.36513727 138.71279472 -10.38662081 138.36644441 -8.40820312 138.01953125 C-4.56156668 137.34586378 -0.71440893 136.67532203 3.13330078 136.0078125 C10.62300275 134.70776205 18.10847309 133.38384355 25.59375 132.05859375 C17.6338725 130.02230136 9.64343387 128.50150417 1.54296875 127.15625 C0.55281769 126.99079681 -0.43733337 126.82534363 -1.45748901 126.65487671 C-5.59154633 125.96630116 -9.72605412 125.28131537 -13.86352539 124.61352539 C-16.91757916 124.11856382 -19.9685699 123.6073835 -23.01953125 123.09375 C-23.94365311 122.94881607 -24.86777496 122.80388214 -25.81990051 122.65455627 C-32.9283536 121.43920448 -39.47896255 119.59965472 -44.34375 113.99609375 C-48.08678733 108.66510119 -48.05063499 103.38445766 -47.40625 97.05859375 C-45.05090564 92.16672469 -41.6889042 89.24780433 -37.40625 86.05859375 C-33.93299819 84.90084315 -31.04557552 84.98992723 -27.40625 85.05859375 C-27.15717896 83.54845703 -27.15717896 83.54845703 -26.90307617 82.0078125 C-26.2729897 78.19046465 -25.64058883 74.37350294 -25.00756836 70.55664062 C-24.73645152 68.92002265 -24.46592189 67.28330726 -24.19604492 65.64648438 C-22.40003339 54.75670126 -20.48896716 43.8973192 -18.40625 33.05859375 C-19.17839844 32.92710937 -19.95054688 32.795625 -20.74609375 32.66015625 C-25.51493518 31.58173983 -27.83879244 28.8100916 -30.71875 24.99609375 C-33.21435241 20.21028831 -33.39363303 15.30453715 -32.40625 10.05859375 C-25.72220669 -4.11252281 -13.15520447 -2.49836013 0 0 Z " fill="#802F34" transform="translate(145.40625,279.94140625)"/>
<path d="M0 0 C-1.73528734 13.05333049 -3.97618787 26.02077273 -6.1875 39 C-6.38697235 40.17427551 -6.5864447 41.34855103 -6.79196167 42.55841064 C-9.40585896 57.93318849 -12.11114191 73.28611025 -14.98199463 88.61486816 C-17.48067057 101.97037261 -19.79831209 115.35285043 -22.0625 128.75 C-22.23059174 129.74452179 -22.39868347 130.73904358 -22.5718689 131.76370239 C-22.73853058 132.7499057 -22.90519226 133.73610901 -23.0769043 134.75219727 C-23.4093 136.71891994 -23.74173775 138.6856355 -24.07421875 140.65234375 C-24.23661545 141.61304276 -24.39901215 142.57374176 -24.56632996 143.56355286 C-26.13368536 152.81948909 -27.74375869 162.06763046 -29.375 171.3125 C-29.49642365 172.00315552 -29.61784729 172.69381104 -29.74295044 173.40539551 C-30.81052935 179.473275 -31.88856158 185.53280892 -33.13671875 191.56640625 C-34.52102416 198.41110575 -35.49657322 205.09186711 -32 211.4375 C-29.07121219 215.54793131 -25.60914554 217.12509334 -21 219 C-21.48653077 228.83735423 -23.19005401 238.37356468 -25.01123047 248.03076172 C-25.50534578 250.65337376 -25.98963784 253.27766751 -26.47265625 255.90234375 C-26.78328857 257.57302193 -27.09446602 259.24359886 -27.40625 260.9140625 C-27.55106812 261.69729889 -27.69588623 262.48053528 -27.84509277 263.2875061 C-28.88393179 268.76786359 -28.88393179 268.76786359 -30 271 C-32.0390625 271.421875 -32.0390625 271.421875 -34.625 271.75 C-40.03823313 272.72717389 -43.4602489 274.79654557 -47 279 C-49.92232056 283.67767419 -49.60459403 288.66445765 -49 294 C-47.25382792 299.41710202 -43.85384594 302.24526495 -39 305 C-36.08826209 305.92318997 -33.14715691 306.46171767 -30.140625 306.984375 C-29.27503967 307.14597107 -28.40945435 307.30756714 -27.51763916 307.47406006 C-24.68103136 307.99842045 -21.84113231 308.5007762 -19 309 C-17.02015835 309.35468409 -15.04034094 309.70950352 -13.06054688 310.06445312 C-6.96097063 311.14943962 -0.85592634 312.20144908 5.25 313.25 C7.37504165 313.61694637 9.50004188 313.9841327 11.625 314.3515625 C16.74952902 315.23712862 21.87459951 316.11949234 27 317 C24.06150676 318.62364355 21.46893614 319.42581386 18.16577148 319.98974609 C17.2063414 320.15687103 16.24691132 320.32399597 15.25840759 320.4961853 C13.70543724 320.75717514 13.70543724 320.75717514 12.12109375 321.0234375 C11.03981705 321.21088531 9.95854034 321.39833313 8.84449768 321.59146118 C5.37649598 322.19194117 1.90714138 322.78407407 -1.5625 323.375 C-20.23742213 326.55328312 -20.23742213 326.55328312 -38.84375 330.10546875 C-39.60679947 330.25378143 -40.36984894 330.40209412 -41.15602112 330.55490112 C-46.90664374 331.75575084 -51.04099834 333.65640961 -55 338 C-56.1446875 339.2065625 -56.1446875 339.2065625 -57.3125 340.4375 C-61.99676934 347.55064974 -62.99273524 353.51762891 -62 362 C-59.6285816 370.47845827 -54.50100349 375.56063059 -47 380 C-38.97743633 383.48807116 -30.90931175 381.83913407 -22.6015625 380.34765625 C-21.59567078 380.17254517 -20.58977905 379.99743408 -19.55340576 379.8170166 C-16.24273857 379.23879423 -12.93389857 378.65075192 -9.625 378.0625 C-7.28214944 377.65112333 -4.9392117 377.24024282 -2.59619141 376.82983398 C13.84009224 373.9435697 30.26318885 370.98329089 46.68362427 368.00836182 C65.1017578 364.67220168 83.54159595 361.47118896 101.9899292 358.30670166 C120.81287617 355.07763686 139.62327924 351.78467159 158.4230957 348.42358398 C159.74302269 348.18762512 159.74302269 348.18762512 161.08961487 347.94689941 C162.70642569 347.65763875 164.32316215 347.36796193 165.93980408 347.07775879 C167.95940499 346.71590433 169.97967727 346.35780245 172 346 C173.49708496 345.7062146 173.49708496 345.7062146 175.02441406 345.40649414 C182.92017973 344.32785533 190.10016103 345.52731376 197.875 346.93359375 C198.99890137 347.13098648 200.12280273 347.32837921 201.28076172 347.53175354 C204.85500387 348.16061802 208.42753396 348.7986301 212 349.4375 C215.57274075 350.0711168 219.14581294 350.70279053 222.71923828 351.33253479 C224.93682567 351.72390121 227.15397414 352.11776553 229.37060547 352.51451111 C240.3028514 354.47825941 240.3028514 354.47825941 251.375 355.09765625 C252.29667969 355.09443359 253.21835937 355.09121094 254.16796875 355.08789062 C255.10253906 355.07951172 256.03710938 355.07113281 257 355.0625 C257.96550781 355.05798828 258.93101562 355.05347656 259.92578125 355.04882812 C262.28392089 355.03715417 264.64192602 355.02078021 267 355 C264.87660549 360.25910501 263.19870595 364.14425407 258 367 C250.69966769 369.48948138 243.07803999 370.84883095 235.49906921 372.18302917 C233.84216551 372.48088986 233.84216551 372.48088986 232.15178901 372.78476793 C228.47923839 373.44363132 224.80544536 374.09527047 221.1315918 374.74682617 C218.48582684 375.21978821 215.84013138 375.69312635 213.19450378 376.16685486 C205.27872866 377.58290205 197.36124119 378.98924276 189.44354483 380.39450094 C185.70207335 381.05877872 181.96079234 381.72412743 178.21949196 382.38936806 C165.76145021 384.60414639 153.30299279 386.81656218 140.84323406 389.02166271 C137.61806198 389.59247264 134.39289057 390.16328636 131.16772461 390.73413086 C129.9655408 390.94691037 129.9655408 390.94691037 128.73907045 391.16398845 C115.77395128 393.45919335 102.8117891 395.77066464 89.85079994 398.08906611 C76.50288742 400.47641408 63.1524787 402.84936979 49.799537 405.20842916 C42.3190322 406.53036001 34.83970627 407.85827806 27.36313438 409.20229149 C20.99264361 410.34741893 14.61996076 411.47925064 8.24420192 412.59468957 C5.00119335 413.16244849 1.75992814 413.73795786 -1.47940826 414.32635498 C-28.64969445 419.25350962 -52.75935291 421.57287114 -76.4140625 405.34375 C-92.54911606 392.23000129 -97.53331221 374.00702312 -100.84375 354.4921875 C-101.21101311 352.40646143 -101.57986539 350.32101473 -101.95007324 348.23580933 C-102.81141721 343.36424908 -103.6612036 338.49082332 -104.50439453 333.61608887 C-106.04117568 324.73475833 -107.60891363 315.85895591 -109.17756653 306.98320818 C-113.0857365 284.86676121 -116.96380386 262.74507406 -120.83697891 240.62247634 C-122.12935522 233.24086469 -123.42253278 225.85939382 -124.71630859 218.47802734 C-124.89860456 217.43796547 -125.08090054 216.3979036 -125.26872063 215.3263247 C-126.18160875 210.11823433 -127.09466229 204.910173 -128.00790405 199.70214462 C-129.60297287 190.60519223 -131.19741035 181.50813366 -132.78704262 172.41022944 C-133.62697502 167.6031366 -134.46756167 162.79615838 -135.30859375 157.98925781 C-135.46969761 157.06845696 -135.63080147 156.14765611 -135.79678726 155.1989522 C-137.83748137 143.54305049 -139.9133832 131.89433295 -142.03515625 120.25292969 C-142.47122914 117.84555913 -142.90715007 115.43816105 -143.34289551 113.0307312 C-144.09540331 108.87424383 -144.86259305 104.72092038 -145.64050293 100.56912231 C-149.33546214 80.44047629 -149.07649376 61.94187815 -138 44 C-125.06797039 25.35319382 -107.61092976 17.96477993 -85.90942383 13.96362305 C-82.17847526 13.29391742 -78.44327773 12.65110167 -74.70703125 12.01171875 C-72.70149315 11.66094949 -70.69609905 11.30935604 -68.69084167 10.95698547 C-64.52441036 10.22708047 -60.35685758 9.50413273 -56.18823242 8.78686523 C-50.84913031 7.86804444 -45.51244508 6.93599567 -40.17644215 5.99936199 C-36.05156907 5.27601225 -31.92590056 4.55729469 -27.79993248 3.8402195 C-25.83060723 3.49783165 -23.86143949 3.15453657 -21.89243507 2.81030846 C-19.15143651 2.33229836 -16.40951823 1.85998863 -13.66723633 1.3894043 C-12.85943222 1.24764771 -12.05162811 1.10589111 -11.21934509 0.95983887 C-7.44229725 0.31776053 -3.83477804 -0.17004747 0 0 Z " fill="#35495D" transform="translate(148,94)"/>
<path d="M0 0 C0.95455078 0.13027588 1.90910156 0.26055176 2.89257812 0.39477539 C4.04242188 0.54156738 5.19226563 0.68835938 6.37695312 0.83959961 C7.72645647 1.05380447 9.07538154 1.27167207 10.42382812 1.49243164 C11.18050781 1.60854797 11.9371875 1.72466431 12.71679688 1.84429932 C19.13404738 2.83047029 25.52851323 3.93659969 31.92382812 5.05493164 C34.00945581 5.41533796 36.09515049 5.77535676 38.1809082 6.13500977 C44.59698338 7.24411083 51.01068146 8.36653563 57.42382812 9.49243164 C58.40736267 9.66490417 59.39089722 9.83737671 60.40423584 10.01507568 C78.14140158 13.12708868 95.86934098 16.28975777 113.58398438 19.52758789 C114.50337799 19.69545303 115.42277161 19.86331818 116.37002563 20.03627014 C120.94759519 20.87239595 125.52454874 21.71167974 130.10058594 22.55615234 C139.42610717 24.26964649 148.75840274 25.88940549 158.12304688 27.37524414 C160.028362 27.68219576 161.93363611 27.98940211 163.83886719 28.296875 C167.43806336 28.87734604 171.04000305 29.43148242 174.64550781 29.97119141 C176.26839277 30.23115845 177.89112347 30.49209099 179.51367188 30.75415039 C180.2448674 30.85603668 180.97606293 30.95792297 181.72941589 31.06289673 C185.24257056 31.65306448 187.49436217 32.54210164 190.41821289 34.60107422 C194.57715561 40.59673564 192.11754139 48.4283257 190.91992188 55.21899414 C190.76126648 56.1488916 190.60261108 57.07878906 190.43914795 58.03686523 C189.92030372 61.06499349 189.39140858 64.09125161 188.86132812 67.11743164 C188.49758776 69.21553891 188.13406456 71.31368385 187.77075195 73.41186523 C186.8449792 78.74211835 185.90848221 84.07042878 184.96850586 89.39819336 C184.44438625 92.37564379 183.92458441 95.35381302 183.40625 98.33227539 C182.63239723 102.77362034 181.84722097 107.21279959 181.05178833 111.65032959 C180.75990613 113.28521777 180.47119021 114.92067463 180.1857605 116.55670166 C179.78936122 118.82104825 179.37992965 121.08264932 178.96679688 123.34399414 C178.74016357 124.61065918 178.51353027 125.87732422 178.2800293 127.18237305 C177.34835065 130.78422622 176.09046051 133.82579926 173.42382812 136.49243164 C161.40636686 137.83257785 149.51805533 134.98147758 137.78463745 132.73440552 C134.14564758 132.03756702 130.504125 131.35568885 126.86157227 130.67773438 C123.07959444 129.97378371 119.29777853 129.26908903 115.51676941 128.55995178 C104.4980334 126.49434214 93.46398933 124.52441182 82.42141724 122.59082031 C78.31244938 121.87124998 74.20413637 121.14797543 70.09577942 120.42492676 C66.877227 119.85854363 63.658586 119.29266573 60.43994141 118.72680664 C48.99206888 116.71336275 37.54516295 114.69445945 26.09937954 112.66917324 C21.95266934 111.93547978 17.80565901 111.2035172 13.65839863 110.47294044 C10.46273287 109.90945116 7.2675353 109.34331819 4.07226562 108.77758789 C2.92455185 108.57588989 1.77683807 108.37419189 0.59434509 108.16638184 C-4.17229103 107.32013566 -8.93443385 106.45611676 -13.67529297 105.47460938 C-14.3609433 105.33280746 -15.04659363 105.19100555 -15.75302124 105.04490662 C-19.22349761 103.99323743 -20.63689275 102.49518641 -22.57617188 99.49243164 C-23.31474859 92.94193351 -22.28140099 86.43638588 -21.07226562 80.00805664 C-20.91370087 79.12551712 -20.75513611 78.2429776 -20.59176636 77.33369446 C-20.0746408 74.46823714 -19.54487924 71.60530924 -19.01367188 68.74243164 C-18.64816154 66.74765382 -18.28317776 64.75277946 -17.91870117 62.7578125 C-17.35965274 59.70033936 -16.79953944 56.64308723 -16.23548889 53.58653259 C-15.15710148 47.73171756 -14.11605293 41.87243694 -13.12162781 36.0027771 C-12.52908745 32.50884511 -11.92239503 29.01744598 -11.31399536 25.52624512 C-11.03256723 23.89102589 -10.75746136 22.25470481 -10.48898315 20.61730957 C-10.11501563 18.34438844 -9.717486 16.07675847 -9.31445312 13.80883789 C-9.09829346 12.53468018 -8.88213379 11.26052246 -8.65942383 9.94775391 C-7.19423168 5.27413107 -5.24170529 1.00194461 0 0 Z " fill="#EBEFF0" transform="translate(191.576171875,136.507568359375)"/>
<path d="M0 0 C15.36571725 -0.12882928 28.52456362 5.97011278 40 16 C40.60328125 16.50917969 41.2065625 17.01835938 41.828125 17.54296875 C51.64961973 26.50176462 59.15357335 40.64640957 60.15081787 54.02300382 C60.86432207 70.23735969 58.4928064 85.56166188 55.59375 101.46630859 C55.11711696 104.14866793 54.64621345 106.83202582 54.17504883 109.51535034 C53.16584676 115.24558893 52.1431028 120.97326882 51.1105957 126.69935226 C49.61786712 134.97785144 48.14643337 143.26002848 46.67984676 151.54319377 C44.29872228 164.98831546 41.90086643 178.43039489 39.4921875 191.87060547 C37.15513742 204.91134366 34.82615552 217.95348113 32.5078125 230.99755859 C32.29274882 232.20758291 32.29274882 232.20758291 32.07334042 233.44205217 C31.35397479 237.48974247 30.63476562 241.53746054 29.91563416 245.58519244 C23.96799535 279.06113744 17.99307717 312.53215991 12 346 C11.67 346 11.34 346 11 346 C10.98582031 345.175 10.97164063 344.35 10.95703125 343.5 C10.1638793 324.29286084 3.12556426 307.38211351 -11 294 C-23.2509385 283.68342021 -37.5471859 280.5210029 -53 278 C-53 277.67 -53 277.34 -53 277 C-51.35 277 -49.7 277 -48 277 C-47.97421875 276.25838623 -47.9484375 275.51677246 -47.921875 274.75268555 C-47.30658045 262.92661944 -45.12120561 251.44376467 -43 239.8125 C-42.59732257 237.57492156 -42.19539971 235.33720721 -41.79418945 233.09936523 C-41.16939406 229.61627106 -40.54382482 226.13332821 -39.9153595 222.65089417 C-38.43414455 214.44322659 -36.98011222 206.2311177 -35.54296875 198.015625 C-35.3442215 196.88102341 -35.14547424 195.74642181 -34.94070435 194.57743835 C-34.17108034 190.18345254 -33.40150733 185.7894604 -32.63500977 181.39492798 C-30.68665002 170.23518815 -28.64947084 159.10693207 -26.3881073 148.00622559 C-24.88223202 140.55432809 -23.65790067 133.07678777 -22.5 125.5625 C-20.97873357 115.86778282 -19.34364135 106.20991646 -17.44921875 96.58056641 C-16.17357819 90.05191005 -15.06846457 83.50300194 -14 76.9375 C-12.82668048 69.73680734 -11.55167929 62.57945188 -10.0625 55.4375 C-7.97886004 45.42626924 -6.39534445 35.33986937 -4.83813477 25.23608398 C-3.51189514 16.74432209 -1.89011787 8.38380909 0 0 Z " fill="#C03A2B" transform="translate(452,48)"/>
<path d="M0 0 C14.57524984 1.01439468 28.82932871 3.44966344 43.17459106 6.11264038 C60.27967472 9.28464292 77.4078318 12.29639422 94.5625 15.1875 C107.95302451 17.4449204 121.3258348 19.74831095 134.66845703 22.27587891 C144.07150678 24.04598838 153.5059913 25.61228886 162.95336914 27.12573242 C169.64615857 28.2135748 176.28915554 29.44872126 182.9296875 30.8125 C191.61595439 32.58623175 200.33484657 34.13330326 209.07421875 35.62109375 C209.74370733 35.73517138 210.41319592 35.849249 211.10297203 35.96678352 C216.66154767 36.91298328 222.22119445 37.85282683 227.78118896 38.79064941 C237.86064242 40.4909402 247.93438758 42.2193658 258 44 C259.22092346 44.21440735 260.44184692 44.4288147 261.69976807 44.64971924 C265.12271213 45.25907311 268.54021253 45.89244392 271.95703125 46.53515625 C273.44586067 46.79781532 273.44586067 46.79781532 274.96476746 47.06578064 C282.20124376 48.46958939 288.79009036 50.82555898 294.12109375 56.09765625 C294.55550781 56.74605469 294.98992187 57.39445312 295.4375 58.0625 C295.88996094 58.71347656 296.34242188 59.36445313 296.80859375 60.03515625 C297.20175781 60.68355469 297.59492188 61.33195312 298 62 C298.56267578 62.87205078 298.56267578 62.87205078 299.13671875 63.76171875 C301.41658964 69.67287721 300.87617917 78.5320094 299.34765625 84.58203125 C298.41062796 86.62097264 297.38659405 88.23787006 296 90 C295.2884375 90.93392578 295.2884375 90.93392578 294.5625 91.88671875 C289.70173416 97.46024112 283.44207152 100.38886203 276.10424805 101.21289062 C268.69799429 101.52973571 261.50271962 100.03869447 254.25538635 98.69818115 C236.6596307 95.45167387 219.05075833 92.28464032 201.42515182 89.20440865 C195.93052788 88.24407543 190.43635264 87.28118117 184.94211769 86.31862533 C182.92870927 85.96591991 180.91528389 85.61331148 178.90185547 85.26072025 C152.5683532 80.64878931 126.23858854 76.01551697 99.90870953 71.38295364 C90.91685466 69.80093082 81.92487715 68.21961133 72.93261719 66.63989258 C64.91129834 65.23074345 56.89019824 63.82035682 48.86935818 62.40848488 C44.67635404 61.67044909 40.48325202 60.93298149 36.28988266 60.19702339 C32.38355875 59.51142228 28.47753406 58.82414069 24.57172203 58.13562965 C23.15580623 57.88632387 21.73978828 57.63759732 20.32365227 57.38954544 C10.85201809 55.73001722 1.42094392 53.92366806 -8 52 C-7.46908084 40.46609157 -5.6120492 29.44377996 -3.4375 18.125 C-3.10409724 16.35820872 -2.77141025 14.59128222 -2.43945312 12.82421875 C-1.6345255 8.54787912 -0.82000343 4.27347327 0 0 Z " fill="#F8E8AF" transform="translate(127,314)"/>
<path d="M0 0 C1.16197199 1.44461383 2.32512521 2.89367967 3.36328125 4.4296875 C8.28550524 9.15220312 15.70283476 9.88217408 22.1484375 10.9375 C23.11923248 11.1037085 24.09002747 11.26991699 25.09024048 11.44116211 C28.18383444 11.96897615 31.27928748 12.48477291 34.375 13 C36.41550258 13.34554023 38.45586867 13.69188752 40.49609375 14.0390625 C44.46260875 14.71329572 48.42977632 15.38346804 52.39746094 16.05078125 C59.93942547 17.32317769 67.47055549 18.65577457 75 20 C72.06150676 21.62364355 69.46893614 22.42581386 66.16577148 22.98974609 C64.72662636 23.2404335 64.72662636 23.2404335 63.25840759 23.4961853 C62.22309402 23.67017853 61.18778046 23.84417175 60.12109375 24.0234375 C59.03981705 24.21088531 57.95854034 24.39833313 56.84449768 24.59146118 C53.37649598 25.19194117 49.90714138 25.78407407 46.4375 26.375 C27.76257787 29.55328312 27.76257787 29.55328312 9.15625 33.10546875 C8.39320053 33.25378143 7.63015106 33.40209412 6.84397888 33.55490112 C1.09335626 34.75575084 -3.04099834 36.65640961 -7 41 C-7.763125 41.804375 -8.52625 42.60875 -9.3125 43.4375 C-13.99676934 50.55064974 -14.99273524 56.51762891 -14 65 C-11.6285816 73.47845827 -6.50100349 78.56063059 1 83 C9.02256367 86.48807116 17.09068825 84.83913407 25.3984375 83.34765625 C26.40432922 83.17254517 27.41022095 82.99743408 28.44659424 82.8170166 C31.75726143 82.23879423 35.06610143 81.65075192 38.375 81.0625 C40.71785056 80.65112333 43.0607883 80.24024282 45.40380859 79.82983398 C61.84009224 76.9435697 78.26318885 73.98329089 94.68362427 71.00836182 C113.1017578 67.67220168 131.54159595 64.47118896 149.9899292 61.30670166 C168.81287617 58.07763686 187.62327924 54.78467159 206.4230957 51.42358398 C207.30304703 51.26627808 208.18299835 51.10897217 209.08961487 50.94689941 C210.70642569 50.65763875 212.32316215 50.36796193 213.93980408 50.07775879 C215.95940499 49.71590433 217.97967727 49.35780245 220 49 C220.99805664 48.80414307 221.99611328 48.60828613 223.02441406 48.40649414 C230.92017973 47.32785533 238.10016103 48.52731376 245.875 49.93359375 C247.56085205 50.22968285 247.56085205 50.22968285 249.28076172 50.53175354 C252.85500387 51.16061802 256.42753396 51.7986301 260 52.4375 C263.57274075 53.0711168 267.14581294 53.70279053 270.71923828 54.33253479 C272.93682567 54.72390121 275.15397414 55.11776553 277.37060547 55.51451111 C288.3028514 57.47825941 288.3028514 57.47825941 299.375 58.09765625 C300.29667969 58.09443359 301.21835937 58.09121094 302.16796875 58.08789062 C303.10253906 58.07951172 304.03710938 58.07113281 305 58.0625 C305.96550781 58.05798828 306.93101562 58.05347656 307.92578125 58.04882812 C310.28392089 58.03715417 312.64192602 58.02078021 315 58 C312.87660549 63.25910501 311.19870595 67.14425407 306 70 C298.69966769 72.48948138 291.07803999 73.84883095 283.49906921 75.18302917 C282.39446675 75.38160296 281.28986428 75.58017675 280.15178901 75.78476793 C276.47923839 76.44363132 272.80544536 77.09527047 269.1315918 77.74682617 C266.48582684 78.21978821 263.84013138 78.69312635 261.19450378 79.16685486 C253.27872866 80.58290205 245.36124119 81.98924276 237.44354483 83.39450094 C233.70207335 84.05877872 229.96079234 84.72412743 226.21949196 85.38936806 C213.76145021 87.60414639 201.30299279 89.81656218 188.84323406 92.02166271 C185.61806198 92.59247264 182.39289057 93.16328636 179.16772461 93.73413086 C178.36626874 93.87598386 177.56481287 94.01783687 176.73907045 94.16398845 C163.77395128 96.45919335 150.8117891 98.77066464 137.85079994 101.08906611 C124.50288742 103.47641408 111.1524787 105.84936979 97.799537 108.20842916 C90.3190322 109.53036001 82.83970627 110.85827806 75.36313438 112.20229149 C68.99264361 113.34741893 62.61996076 114.47925064 56.24420192 115.59468957 C53.00119335 116.16244849 49.75992814 116.73795786 46.52059174 117.32635498 C19.35030555 122.25350962 -4.75935291 124.57287114 -28.4140625 108.34375 C-43.25694181 96.28021462 -49.29866189 79.24588019 -52 61 C-51.34 61 -50.68 61 -50 61 C-50.03480469 60.34515625 -50.06960937 59.6903125 -50.10546875 59.015625 C-50.5946426 42.52347807 -44.08719817 28.91187206 -33.44921875 16.50390625 C-27.42269007 10.34281393 -9.40049295 -4.85186733 0 0 Z " fill="#2C3E50" transform="translate(100,391)"/>
<path d="M0 0 C1.59409895 0.27149933 3.18825754 0.5426487 4.7824707 0.81347656 C18.63652349 3.18069352 32.46228826 5.70602291 46.28613281 8.24267578 C64.90239449 11.65477293 83.54437891 14.91737388 102.18823242 18.17480469 C103.9594194 18.48434586 103.9594194 18.48434586 105.76638794 18.80014038 C107.96892555 19.18488925 110.17153602 19.56922132 112.37423706 19.95303345 C118.98400059 21.10668171 125.58768482 22.29073333 132.1875 23.5 C129.93885477 25.74864523 129.22050589 25.86766211 126.18554688 26.36621094 C124.93688339 26.57754669 124.93688339 26.57754669 123.66299438 26.79315186 C122.75326874 26.93875549 121.84354309 27.08435913 120.90625 27.234375 C119.95873871 27.39270813 119.01122742 27.55104126 118.03500366 27.71417236 C115.98988342 28.0550015 113.94414883 28.39216007 111.89788818 28.72607422 C108.66133463 29.25427011 105.42644911 29.79173749 102.19189453 30.33203125 C98.9244539 30.87778061 95.65694535 31.42305625 92.38894653 31.9654541 C83.60375534 33.42384481 74.83023222 34.94046884 66.0625 36.5 C64.72347738 36.73742739 63.38444736 36.97481306 62.04541016 37.2121582 C58.53504312 37.83498218 55.02503658 38.45981531 51.51513672 39.08526611 C44.32951417 40.36558668 37.1435219 41.64383338 29.95758057 42.92236328 C28.02702549 43.26587697 26.0964835 43.60946425 24.16595459 43.953125 C9.23459637 46.61077652 -5.70109825 49.24248806 -20.64306641 51.83984375 C-29.77893186 53.43022851 -38.90751492 55.0562173 -48.03125 56.71484375 C-51.11890973 57.27348953 -54.20665957 57.83163477 -57.29443359 58.38964844 C-59.28611054 58.75118565 -61.27733449 59.11522847 -63.26806641 59.48193359 C-66.04220358 59.99287212 -68.81777261 60.49526472 -71.59375 60.99609375 C-72.40968628 61.14884262 -73.22562256 61.30159149 -74.06628418 61.45896912 C-83.89783395 63.21267213 -91.99753937 62.85400262 -100.640625 57.33203125 C-105.8804937 53.24334582 -109.37613546 47.96364044 -110.8125 41.5 C-111.73117739 33.04816804 -110.83563405 26.48309523 -105.8125 19.5 C-97.84686488 10.29561453 -88.15824054 8.53703474 -76.58984375 6.5625 C-75.64548965 6.3962915 -74.70113556 6.23008301 -73.72816467 6.05883789 C-70.73639646 5.53358809 -67.74327126 5.01660765 -64.75 4.5 C-62.77138727 4.15420097 -60.79287081 3.80785066 -58.81445312 3.4609375 C-54.95650984 2.78478452 -51.09750705 2.11518063 -47.23779297 1.44921875 C-43.78905119 0.85154346 -40.34614483 0.23122417 -36.90673828 -0.41796875 C-23.79464579 -2.88184492 -13.12719779 -2.28010855 0 0 Z " fill="#F7E8AF" transform="translate(195.8125,414.5)"/>
<path d="M0 0 C1.69686126 0.30860692 3.39220604 0.62563448 5.08618164 0.94970703 C6.02538956 1.12226517 6.96459747 1.2948233 7.93226624 1.47261047 C9.96913642 1.84747466 12.00536924 2.22581537 14.04101562 2.60726929 C19.61544529 3.65117454 25.19484811 4.66792909 30.77368164 5.68798828 C32.53571426 6.01114769 32.53571426 6.01114769 34.33334351 6.34083557 C47.97435919 8.83509305 61.6409401 11.17845786 75.30883789 13.52001953 C80.23730116 14.36592057 85.1656532 15.2124686 90.09399414 16.05908203 C91.26020294 16.2593248 92.42641174 16.45956757 93.62796021 16.6658783 C103.93300566 18.43660091 114.23300882 20.23410328 124.52685547 22.06884766 C131.99884262 23.40020116 139.474281 24.70772834 146.95481873 25.99031067 C151.63665362 26.79416961 156.3172849 27.60491692 160.99783325 28.41622925 C163.30986359 28.81525157 165.62241946 29.21124206 167.93551636 29.60403442 C171.1798697 30.15534182 174.422192 30.71743553 177.66430664 31.28173828 C178.63567566 31.44404938 179.60704468 31.60636047 180.60784912 31.77359009 C186.65252963 32.83940731 192.56049717 33.9277214 197.30883789 38.08251953 C198.82908733 41.50308078 198.26284962 43.77087573 197.30883789 47.33251953 C195.87133789 49.77001953 195.87133789 49.77001953 193.30883789 51.33251953 C186.28743198 52.05186886 179.35820116 50.89922596 172.46118164 49.68017578 C171.43264572 49.50497406 170.4041098 49.32977234 169.34440613 49.14926147 C165.97686621 48.57296819 162.611627 47.98430262 159.24633789 47.39501953 C156.87059736 46.98517076 154.49478231 46.57575369 152.11889648 46.16674805 C134.50875155 43.12181037 116.93110761 39.90629007 99.3605957 36.64160156 C85.42619797 34.05764592 71.47152527 31.62267823 57.49633789 29.27001953 C42.56509901 26.7502415 27.63850973 24.20731692 12.73257446 21.54129028 C10.80535331 21.1976875 8.87760602 20.85702091 6.9493103 20.51950073 C4.28635338 20.05266036 1.6255753 19.5749258 -1.03491211 19.09423828 C-2.20034798 18.89311432 -2.20034798 18.89311432 -3.389328 18.68792725 C-14.91969341 16.56611051 -14.91969341 16.56611051 -18.12866211 12.52001953 C-18.89627672 9.53485159 -19.13061202 7.40866889 -18.69116211 4.33251953 C-14.00057859 -2.62770117 -7.44624258 -1.19620601 0 0 Z " fill="#415B6B" transform="translate(211.691162109375,40.66748046875)"/>
<path d="M0 0 C0.79473724 0.10964081 1.58947449 0.21928162 2.40829468 0.33224487 C3.25042511 0.46438385 4.09255554 0.59652283 4.96020508 0.73266602 C6.22037949 0.92640305 6.22037949 0.92640305 7.50601196 1.12405396 C10.3027607 1.56993585 13.09438919 2.04076951 15.88598633 2.51782227 C17.45257492 2.78280769 17.45257492 2.78280769 19.05081177 3.05314636 C22.4586253 3.63082997 25.86569786 4.21274722 29.27270508 4.79516602 C31.0298735 5.09420837 31.0298735 5.09420837 32.82254028 5.39929199 C50.84124646 8.46691799 68.83641922 11.65006071 86.80737305 14.98608398 C94.91724581 16.48682805 103.02362496 17.93324879 111.17895508 19.16625977 C111.89020035 19.27577972 112.60144562 19.38529968 113.33424377 19.49813843 C116.58600437 19.99847506 119.8363988 20.47981284 123.09667969 20.9230957 C132.12619151 22.29054739 132.12619151 22.29054739 135.21020508 25.12329102 C137.92074032 29.16489266 137.64454657 30.94227557 136.96020508 35.73266602 C135.09005414 38.16386224 133.67882163 39.37335774 130.96020508 40.73266602 C122.0386499 40.67892759 113.23203091 38.80489933 104.50463867 37.12353516 C100.32991835 36.32050474 96.15103423 35.539822 91.97192383 34.76000977 C91.08604584 34.59455658 90.20016785 34.42910339 89.28744507 34.25863647 C79.69076545 32.47797178 70.06868645 30.85304426 60.44348145 29.23504639 C54.51169743 28.23614066 48.58220875 27.22369544 42.65255737 26.21221924 C37.85879375 25.3948367 33.06443816 24.58148106 28.26831055 23.77807617 C23.80483002 23.02901211 19.34509776 22.26054698 14.88745117 21.47753906 C13.2471882 21.19268853 11.60574807 20.91452329 9.96313477 20.64355469 C7.70734463 20.27047451 5.45694972 19.87371491 3.20629883 19.47094727 C1.31415649 19.14670776 1.31415649 19.14670776 -0.61621094 18.81591797 C-4.85970757 17.47323847 -6.8622516 15.81640952 -10.03979492 12.73266602 C-11.12996364 9.91105286 -10.89302515 7.6173968 -10.03979492 4.73266602 C-6.90370864 0.79245505 -5.0346196 -0.71807519 0 0 Z " fill="#415B6B" transform="translate(230.039794921875,89.267333984375)"/>
</svg>
